<svg xmlns="http://www.w3.org/2000/svg" viewBox="0 0 123.23 161.37"><defs><style>.cls-1{fill:#4baf4f;}.cls-2{fill:#0b6b3d;}.cls-3{fill:#f07e25;}</style></defs><g id="Capa_2" data-name="Capa 2"><g id="Capa_1-2" data-name="Capa 1"><path class="cls-1" d="M58.67.34C52.4,7.5,62.29,41.5,62.29,41.5S41.52,17.88,58.67.34Z"/><path class="cls-1" d="M118.9,24.2C97.17,16.61,63,41,62.31,41.49,63,40.49,87.78,2.76,118.9,24.2Z"/><path class="cls-2" d="M118.9,24.2s-6.23,18.1-23.06,16.14S73,38.33,62.29,41.5h0C63,41,97.17,16.61,118.9,24.2Z"/><path class="cls-2" d="M66.15,22.48a119.14,119.14,0,0,1-3.85,19v0S52.4,7.5,58.67.34a.17.17,0,0,1,.06-.06L59,0S67.83,10.14,66.15,22.48Z"/><path class="cls-2" d="M110.5,85.15a77,77,0,0,0-24.61,8.52,78.12,78.12,0,0,0-21.32,17,79.07,79.07,0,0,0-14.21,22.71,68.23,68.23,0,0,0-4.69,16.52.41.41,0,0,1,0,.11c-.39,2.81-.76,5.62-1.15,8.44a4,4,0,0,1-.18.56c-1,.2-1.15-.45-1.23-1.14-.22-1.92-.39-3.83-.62-5.74a69.88,69.88,0,0,1,.37-16.42,84.29,84.29,0,0,1,3.08-14.64,85.67,85.67,0,0,1,3.12-8.49A84.75,84.75,0,0,1,61.27,92.32,83.49,83.49,0,0,1,84.06,72.81a80.84,80.84,0,0,1,20.41-8.46c1.57-.41,3.17-.73,4.76-1.06a6.44,6.44,0,0,1,1.18,0c.42,2.42,1,4.74,1.19,7.1.35,4.19.49,8.41.65,12.62C112.32,84.84,112.25,84.86,110.5,85.15Z"/><path class="cls-2" d="M123.21,94.1A63.11,63.11,0,0,1,121.59,108a72.43,72.43,0,0,1-7,18.21l-1.48-.43A57.68,57.68,0,0,0,97,123.38a53,53,0,0,0-42.21,21.76,71,71,0,0,1,3-8.72A71.88,71.88,0,0,1,70.59,116a70,70,0,0,1,14.8-12.7l0,0c.7-.58,10-7.85,31.8-12.48,1.87-.39,3.83-.77,5.89-1.12a5.08,5.08,0,0,1,.07.62c0,.17,0,.34,0,.52C123.25,91.89,123.21,93,123.21,94.1Z"/><path class="cls-1" d="M110.89,133.47c-4.69,7.74-10.47,14.31-18,19-12.63,7.87-27.54,9.86-37.4,8.5a43.89,43.89,0,0,1,18.28-22.71C85.26,131.1,97.61,129.62,110.89,133.47Z"/><path class="cls-1" d="M34.87,134.76a77.86,77.86,0,0,0-.35,18.34c.09.83.18,1.66.26,2.49A66.91,66.91,0,0,1,14.21,141a54.94,54.94,0,0,1-11-16.7c-.44-1.08-.84-2.17-1.2-3.3a43.64,43.64,0,0,1-2-11.81c0-1.33.12-1.54,1.46-1.53a50,50,0,0,1,20.68,4.41,48.25,48.25,0,0,1,14.94,10.8A93.15,93.15,0,0,0,34.87,134.76Z"/><path class="cls-3" d="M85.39,63c-1.82.91-3.62,1.88-5.38,2.92A91.46,91.46,0,0,0,47,98.82a95.63,95.63,0,0,0-5.36,10.6c-.69,1.59-1.32,3.22-1.92,4.86a54.74,54.74,0,0,0-14.26-9.49A57.06,57.06,0,0,0,7,99.94a4.75,4.75,0,0,0-.53,0,48.52,48.52,0,0,1,7.08-23.71A47,47,0,0,1,22,65.84a12.85,12.85,0,0,1,1.44-1l.5-.39a47.06,47.06,0,0,1,3.68-3.12A48.75,48.75,0,0,1,60.77,53a49.91,49.91,0,0,1,22.94,8.74C84.29,62.11,84.83,62.53,85.39,63Z"/></g></g></svg>