<svg xmlns="http://www.w3.org/2000/svg" viewBox="0 0 559.79 254.63"><defs><style>.cls-1{fill:#4baf4f;}.cls-2{fill:#0b6b3d;}.cls-3{fill:#292929;}.cls-4{fill:#fff;}.cls-5{fill:#f07e25;}</style></defs><g id="Capa_2" data-name="Capa 2"><g id="Capa_1-2" data-name="Capa 1"><path class="cls-1" d="M495.23.34C489,7.5,498.85,41.5,498.85,41.5S478.08,17.88,495.23.34Z"/><path class="cls-1" d="M555.46,24.2c-21.74-7.59-55.88,16.77-56.6,17.29C499.51,40.49,524.34,2.76,555.46,24.2Z"/><path class="cls-2" d="M555.46,24.2s-6.23,18.1-23.06,16.14-22.88-2-33.55,1.16h0C499.58,41,533.72,16.61,555.46,24.2Z"/><path class="cls-2" d="M502.71,22.48a118.35,118.35,0,0,1-3.86,19v0S489,7.5,495.23.34c0,0,0-.05,0-.06l.28-.28S504.38,10.14,502.71,22.48Z"/><path class="cls-3" d="M57,210.52a62.64,62.64,0,0,1-19.85-1.47,52.05,52.05,0,0,1-18-8A44.31,44.31,0,0,1,6,186.68,43.28,43.28,0,0,1,.13,168.53a37.91,37.91,0,0,1,2-15.72,33.45,33.45,0,0,1,8.35-13.3,21.82,21.82,0,0,1,13.73-6.16,21.49,21.49,0,0,1,9.66,1.38,15.81,15.81,0,0,1,7.46,5.85,7.75,7.75,0,0,1,1,3.23,6.79,6.79,0,0,1-.61,3.54,3,3,0,0,1-2.58,1.77,5.8,5.8,0,0,1-2.9-.72,5.79,5.79,0,0,0-3.22-.58,7.41,7.41,0,0,0-4.28,1.87,14.89,14.89,0,0,0-3.17,3.7,26.9,26.9,0,0,0-3.31,15.28,29.33,29.33,0,0,0,5,14,27.32,27.32,0,0,0,11.72,9.88,30.7,30.7,0,0,0,14.11,2.12A33.93,33.93,0,0,0,69,189.13a27.15,27.15,0,0,0,10.55-12.58,31,31,0,0,0,2-13.67,44.26,44.26,0,0,0-4.67-16.43,85.46,85.46,0,0,0-9.68-14.83q-5.76-7.11-12.14-14.18a207.21,207.21,0,0,1-18-22,57.72,57.72,0,0,1-10.23-27q-1.41-16.61,8.75-32.53A54.77,54.77,0,0,1,63,13.44a49.12,49.12,0,0,1,11.78-2.61q11.49-1,20.07,4.08A39.71,39.71,0,0,1,108.8,28.83q6.77,11.43,8.11,27.28a59,59,0,0,1-.13,11.59,36.33,36.33,0,0,1-3.08,11.09,29,29,0,0,1-8.61,10.27,23.13,23.13,0,0,1-12.18,4.79,20.08,20.08,0,0,1-5.77-.42q-3.12-.65-3.3-2.88a1.77,1.77,0,0,1,1-1.8,19.55,19.55,0,0,1,2.58-1.19L88.68,87q3.91-1.95,4.88-8.14a93.18,93.18,0,0,0,1.28-25.18,93.36,93.36,0,0,0-4.68-22.22,17.18,17.18,0,0,0-3.52-6.18A6.74,6.74,0,0,0,80.76,23q-4.91.42-9.86,6.3a69.5,69.5,0,0,0-12,19.3,45.48,45.48,0,0,0-3.47,21.57A38.9,38.9,0,0,0,59.68,85a73.74,73.74,0,0,0,8.9,13.23q5.31,6.34,11.3,12.59,3.78,4,7.34,8.06,18.68,20.49,20.39,40.59a43.64,43.64,0,0,1-.61,11.74A46.43,46.43,0,0,1,88.54,198.5,61.4,61.4,0,0,1,57,210.52Z"/><path class="cls-3" d="M148.91,180.63a26.91,26.91,0,0,1-17.53-4.35,25.64,25.64,0,0,1-9.29-10,22.81,22.81,0,0,1-1.88-7.3,41.36,41.36,0,0,1-.07-6.1A101.25,101.25,0,0,1,126,122.85q4.65-12.87,12.21-21.06a22.18,22.18,0,0,1,15-7.12l1.8-.06a28.23,28.23,0,0,1,9.5,1.34,16.85,16.85,0,0,1,7.85,5.26A13.44,13.44,0,0,1,175,108a18.11,18.11,0,0,1-1.21,8,23.46,23.46,0,0,1-2,5.56Q166,133,151.89,141.85a84.17,84.17,0,0,1-12,6.59c-.4.27-.45,2.1-.17,5.49l.26,3a21.45,21.45,0,0,0,1.37,6,8.15,8.15,0,0,0,4.18,4.27,15,15,0,0,0,6.54.87,22,22,0,0,0,4.86-.95,45.23,45.23,0,0,0,18.68-11.56,83.69,83.69,0,0,0,18.46-29,2.82,2.82,0,0,1,2.47-1.65,3.45,3.45,0,0,1,1.68.3,2.25,2.25,0,0,1,1.22,1.07,3.92,3.92,0,0,1,.38,1.31c.09,1.07-.85,3.79-2.81,8.14q-10.26,24-29.6,37.37A42.4,42.4,0,0,1,148.91,180.63ZM142,136.13q15.35-11.72,21.64-21.06,3.69-5.25,3.41-8.46a2.71,2.71,0,0,0-1.72-2.28,5.05,5.05,0,0,0-1.9-.2,11,11,0,0,0-5.88,2.61A29.47,29.47,0,0,0,153,111a58.11,58.11,0,0,0-8,15A65.21,65.21,0,0,0,142,136.13Z"/><path class="cls-3" d="M213.27,175.05a19.06,19.06,0,0,1-9.82-2A26.59,26.59,0,0,1,195,167c-2.24-2.48-3.61-6.51-4.08-12.09a54.59,54.59,0,0,1,.32-12q.83-6.14,1.87-11.79l.56-2.92q4.9-26.73,7.46-40,4.32-22,8.75-48a16.33,16.33,0,0,1,1.77-5.54q3.26-5.13,9.94-5.7a25.77,25.77,0,0,1,11.18,1.65,2.66,2.66,0,0,1,1.72,2.19,4.2,4.2,0,0,1-.77,2.54,16.38,16.38,0,0,0-1.65,3.86c-.06,0-.09,0-.08.1a194.93,194.93,0,0,0-5.05,20.82l-.53,2.2q-6.69,33.35-12.5,69.41-1.56,9.12-2.13,15.09l-.21,1.73a41.25,41.25,0,0,0-.5,8.84,9.31,9.31,0,0,0,1.24,4.07,2.92,2.92,0,0,0,2.92,1.59c1.13-.09,2.62-.94,4.46-2.53l.33-.3q10.44-9.24,19.13-24.26a143.86,143.86,0,0,0,7.37-13.57,2.65,2.65,0,0,1,2.37-1.72,2.89,2.89,0,0,1,2.26.7,3,3,0,0,1,1,2.07,3.63,3.63,0,0,1-.37,1.92l-.23.47Q240.83,149.62,228,164.72a54.5,54.5,0,0,1-6.73,6.91A13.85,13.85,0,0,1,213.27,175.05Z"/><path class="cls-3" d="M272.75,170.07a26.93,26.93,0,0,1-17.52-4.34,25.67,25.67,0,0,1-9.29-10,22.75,22.75,0,0,1-1.88-7.29,40,40,0,0,1-.07-6.1,100.56,100.56,0,0,1,5.88-30q4.65-12.89,12.21-21.07a22.22,22.22,0,0,1,15-7.12l1.79-.06a28.2,28.2,0,0,1,9.5,1.34,16.9,16.9,0,0,1,7.86,5.26,13.43,13.43,0,0,1,2.55,6.79,18,18,0,0,1-1.2,8,24.71,24.71,0,0,1-2,5.56q-5.67,11.44-19.83,20.28a83.1,83.1,0,0,1-12,6.59c-.39.27-.45,2.11-.16,5.49l.26,3a21,21,0,0,0,1.37,6,8.11,8.11,0,0,0,4.18,4.27,15,15,0,0,0,6.54.88,22.85,22.85,0,0,0,4.86-1,45.36,45.36,0,0,0,18.68-11.57,83.69,83.69,0,0,0,18.46-29,2.86,2.86,0,0,1,2.46-1.65,3.61,3.61,0,0,1,1.69.31,2.21,2.21,0,0,1,1.21,1.06,3.94,3.94,0,0,1,.39,1.32q.13,1.6-2.81,8.14-10.28,24-29.6,37.37A42.54,42.54,0,0,1,272.75,170.07Zm-6.93-44.49q15.35-11.73,21.64-21.07,3.69-5.25,3.41-8.46a2.71,2.71,0,0,0-1.72-2.28,5.27,5.27,0,0,0-1.9-.2,11,11,0,0,0-5.89,2.62,28.85,28.85,0,0,0-4.48,4.29,58.09,58.09,0,0,0-8,15A64.53,64.53,0,0,0,265.82,125.58Z"/><path class="cls-3" d="M343,164.08A26.91,26.91,0,0,1,330,162a27.61,27.61,0,0,1-10.59-7.81,20.55,20.55,0,0,1-4.81-11.62,42.17,42.17,0,0,1,0-6.65,103.09,103.09,0,0,1,3.31-21.29A85,85,0,0,1,326,94.22q6.24-11.13,14.56-14.62a27.06,27.06,0,0,1,6.88-1.48q13.13-.86,19.42,6.6a13.2,13.2,0,0,1,2.45,6.62,15,15,0,0,1-.45,5.25c-.45,1.71-1,3.53-1.69,5.44a2.45,2.45,0,0,1-2.37,1.64,3,3,0,0,1-2.21-.67,2.74,2.74,0,0,1-1.07-2l0-.81a19.75,19.75,0,0,0,.44-6.32c-.21-2.56-1.13-4.18-2.75-4.89a9.33,9.33,0,0,0-2.52-.14,9.92,9.92,0,0,0-4,1.24,22.89,22.89,0,0,0-3.64,2.56,25.3,25.3,0,0,0-5.72,7.76,87,87,0,0,0-4,9.23A76.22,76.22,0,0,0,335,125.16a78.81,78.81,0,0,0-.76,15.42c.33,3.86,1.38,6.68,3.15,8.44q3.31,3,9.38,2.53a22.57,22.57,0,0,0,7.8-2.2,67.55,67.55,0,0,0,13.33-9,65.31,65.31,0,0,0,12-14.22,100.22,100.22,0,0,0,8.49-16.26c.28-1,1.1-1.53,2.47-1.65a2.83,2.83,0,0,1,2.21.67,2.8,2.8,0,0,1,1,1.93,3.9,3.9,0,0,1-.22,1.64A103,103,0,0,1,383,134a85.49,85.49,0,0,1-16.78,19.12Q355.35,162.41,343,164.08Z"/><path class="cls-3" d="M442.67,50.51a3.71,3.71,0,0,0-2.91-.92l-18.9,1.61q3.42-16.81,5.33-24A45.24,45.24,0,0,1,429,19l.17-.1A3.45,3.45,0,0,0,430,16.3,2.71,2.71,0,0,0,428.29,14,26.38,26.38,0,0,0,417,12.46c-4.53.39-7.83,2.29-9.94,5.69a16.32,16.32,0,0,0-1.77,5.54Q402.8,38.37,400,53l-17.83,1.51a4.09,4.09,0,0,0-2.67,1.4,3.7,3.7,0,0,0-1,2.88A4.44,4.44,0,0,0,380,61.6a3.67,3.67,0,0,0,2.9.92l15.61-1.33q-6.25,33.3-8.76,47.26c-.24,1.36-.46,2.58-.65,3.66l-.18.91a115.74,115.74,0,0,0-2.38,15.28h0c-.23,2.53-.37,5.05-.44,7.58l.16,2.87a45.84,45.84,0,0,0,1,6.51,13.67,13.67,0,0,0,3.06,5.89,28.14,28.14,0,0,0,9.45,6.38,17.61,17.61,0,0,0,8.94,1.66,12.79,12.79,0,0,0,5.5-1.82,41.89,41.89,0,0,0,9.33-8.52,131.45,131.45,0,0,0,11.42-16c-.24-.42-.45-.84-.67-1.26l-.08-.17c-.2-.38-.39-.78-.57-1.17-.47-1-.9-1.94-1.31-2.93-.15-.39-.3-.77-.44-1.15s-.29-.76-.41-1.14a0,0,0,0,1,0,0q-1.47,2.36-5.16,7.34a84.66,84.66,0,0,1-9.11,10.43,19.71,19.71,0,0,0-1.73,1.41,19.9,19.9,0,0,1-3,2.14,5.17,5.17,0,0,1-2.26.91c-2,.17-3.14-2.25-3.57-7.24a37.06,37.06,0,0,1,.37-9.28l.91-6.19,3-18.57q5.36-30.9,6.85-38.76l1.48-7.84,21.23-1.82a4.08,4.08,0,0,0,2.67-1.34,4.92,4.92,0,0,0,.41-.52,3.61,3.61,0,0,0,.59-1.69,4.2,4.2,0,0,0,0-.71A4.41,4.41,0,0,0,442.67,50.51Z"/><path class="cls-3" d="M446.13,217a9.26,9.26,0,0,0,5.19-1.24A13.14,13.14,0,0,1,446.13,217Z"/><path class="cls-3" d="M455.73,209.49a9.17,9.17,0,0,1-3,5.3,10.06,10.06,0,0,1-1.37,1,13.14,13.14,0,0,1-5.19,1.24,31.66,31.66,0,0,1-8.75-1c-1.34-.32-2.76-.71-4.3-1.19h0c-2.26-.61-4.53-1.19-6.8-1.76-11.86-2.94-23.84-5.37-35.89-7.4a556.37,556.37,0,0,0-69-7.22,548.56,548.56,0,0,0-87.94,3.3,502.87,502.87,0,0,0-91.2,19.51q-22.22,7-43.67,16.11Q87.36,242.16,76.4,247.5q-5.76,2.81-11.44,5.76a13.89,13.89,0,0,1-5.11,1.36,1.42,1.42,0,0,1-.92-2.57c2.83-1.59,5.66-3.17,8.52-4.72A520.55,520.55,0,0,1,139,215.22a539.43,539.43,0,0,1,232.17-29.68,517.72,517.72,0,0,1,77.62,13.17,1.35,1.35,0,0,1,.64.33,9.2,9.2,0,0,1,6.39,8.09A9,9,0,0,1,455.73,209.49Z"/><path class="cls-2" d="M547.05,85.15a77.09,77.09,0,0,0-24.61,8.52,78.27,78.27,0,0,0-21.32,17,79.51,79.51,0,0,0-14.21,22.71,68.67,68.67,0,0,0-4.68,16.52s0,.08,0,.11q-.57,4.22-1.15,8.44a2.43,2.43,0,0,1-.18.56c-1,.2-1.15-.45-1.23-1.14-.21-1.92-.38-3.83-.61-5.74a69.88,69.88,0,0,1,.36-16.42,84.31,84.31,0,0,1,3.09-14.64,85.66,85.66,0,0,1,15.33-28.76,83.64,83.64,0,0,1,22.79-19.51A80.91,80.91,0,0,1,541,64.35c1.57-.41,3.17-.73,4.75-1.06a6.55,6.55,0,0,1,1.19,0c.42,2.42,1,4.74,1.19,7.1.34,4.19.49,8.41.65,12.62C548.88,84.84,548.81,84.86,547.05,85.15Z"/><path class="cls-2" d="M559.77,94.1A63.71,63.71,0,0,1,558.15,108a72.46,72.46,0,0,1-7,18.21l-1.48-.43a57.62,57.62,0,0,0-16.1-2.38,53,53,0,0,0-42.21,21.76,74.51,74.51,0,0,1,3-8.72A72.1,72.1,0,0,1,507.14,116,70.3,70.3,0,0,1,522,103.29l0,0c.71-.58,10-7.85,31.8-12.48,1.88-.39,3.84-.77,5.9-1.12a5.22,5.22,0,0,1,.06.62c0,.17,0,.34,0,.52C559.81,91.89,559.77,93,559.77,94.1Z"/><path class="cls-1" d="M547.44,133.47c-4.68,7.74-10.46,14.31-18,19-12.63,7.87-27.53,9.86-37.4,8.5a43.91,43.91,0,0,1,18.29-22.71C521.82,131.1,534.16,129.62,547.44,133.47Z"/><path class="cls-4" d="M431.47,125.07c.12.38.27.75.41,1.14-.14-.38-.29-.76-.42-1.13A0,0,0,0,0,431.47,125.07Z"/><path class="cls-1" d="M471.43,134.76a78.35,78.35,0,0,0-.36,18.34q.15,1.25.27,2.49A67,67,0,0,1,450.76,141a55.13,55.13,0,0,1-11-16.7c-.43-1.08-.83-2.17-1.19-3.3a42.52,42.52,0,0,1-1.35-5.45,43.53,43.53,0,0,1-.66-6.36c0-1.33.13-1.54,1.46-1.53a50.05,50.05,0,0,1,20.69,4.41,48.37,48.37,0,0,1,14.94,10.8A91.43,91.43,0,0,0,471.43,134.76Z"/><path class="cls-5" d="M522,63q-2.75,1.37-5.38,2.92a91.68,91.68,0,0,0-33,32.93,95.57,95.57,0,0,0-5.35,10.6c-.69,1.59-1.33,3.22-1.93,4.86a54.69,54.69,0,0,0-14.25-9.49,57.19,57.19,0,0,0-18.49-4.85,4.75,4.75,0,0,0-.53,0,48.53,48.53,0,0,1,7.09-23.71,46.94,46.94,0,0,1,8.45-10.34,14,14,0,0,1,1.45-1c.17-.13.34-.26.49-.39a47.2,47.2,0,0,1,3.69-3.12A48.72,48.72,0,0,1,497.33,53a50,50,0,0,1,22.94,8.74C520.84,62.11,521.39,62.53,522,63Z"/></g></g></svg>