<svg xmlns="http://www.w3.org/2000/svg" viewBox="0 0 350.15 165.15"><defs><style>.cls-1{fill:#3b1a1a;}.cls-2{fill:#5a2000;}.cls-3{fill:#ff0b00;}.cls-4{fill:#6f9600;}.cls-5{fill:#4f1602;}.cls-6{fill:#aec439;}.cls-7{fill:#519044;}.cls-8{fill:#529044;}.cls-9{fill:#529144;}.cls-10{fill:#529145;}.cls-11{fill:#aec43a;}.cls-12{fill:#539145;}.cls-13{fill:#aec53b;}.cls-14{fill:#549247;}.cls-15{fill:#539246;}.cls-16{fill:#bdb1b1;}.cls-17{fill:#917e7e;}.cls-18{fill:#634949;}.cls-19{fill:#f2f0f0;}</style></defs><g id="Capa_2" data-name="Capa 2"><g id="Capa_1-2" data-name="Capa 1"><path class="cls-1" d="M152.18,37.88c-.09-.08-.16-.18-.26-.27.19.22.44.55.77,1a3,3,0,0,1,.23.27A11.58,11.58,0,0,0,152.18,37.88Z"/><path class="cls-2" d="M172.28,33.45c-3.5,1-7.21,2.1-10.8,3.26l-.7.24-1.06.36q-2.61.88-5,1.81h0l-1.18.45c-.19-.24-.39-.48-.59-.7a3,3,0,0,0-.23-.27c-.33-.44-.58-.77-.77-1l-.14-.17a.17.17,0,0,1-.06-.06l0,0h0a12,12,0,0,0-1.4-1.25c-.44-.33-.91-.64-1.41-1l-.16-.08a19,19,0,0,0-1.87-.9,8.18,8.18,0,0,0-.87-.32h0a7.61,7.61,0,0,0-.72-.25c-.35-.1-.71-.2-1.07-.28a25.64,25.64,0,0,0-3.71-.61,30.9,30.9,0,0,0-4.72,0l-.76.06a9.81,9.81,0,0,1,.19-1.19,13.74,13.74,0,0,1,2.22-5.39c.67-1,1.37-1.91,2-2.88a14.74,14.74,0,0,0,2-3.48,1,1,0,0,0,0-1c-.09.19-.17.33-.25.49a14.72,14.72,0,0,1-2.18,3.37c-1,1.26-2.09,2.5-3.19,3.81a10.34,10.34,0,0,1-1.29-3,5.13,5.13,0,0,1,0-2.88,16.51,16.51,0,0,0,.59-2.3,6.17,6.17,0,0,0-.09-2.46c0-.07-.16-.1-.23-.16a3.9,3.9,0,0,1-.07,1.53,7.66,7.66,0,0,1-.74,2.86,7.07,7.07,0,0,0-.25,4.86A14.92,14.92,0,0,0,135,27.86a16.38,16.38,0,0,0-1.7,5c-.58.07-1.17.17-1.75.27l-.13-.19c-1-1.37-2-2.71-3-4.07a15.38,15.38,0,0,1-2-3.48,15,15,0,0,1-1.09-6.18c0-.42,0-.83,0-1.32-.07.09-.1.1-.11.13a9,9,0,0,0-.33,2.44,8.66,8.66,0,0,0,.1,2,15.8,15.8,0,0,0,.7,3.4,18.28,18.28,0,0,0,2.19,4.43c.69,1.06,1.36,2.12,2,3.22a40.22,40.22,0,0,0-12.6,5.17,4.61,4.61,0,0,1,.42-1.72A30.53,30.53,0,0,0,119,32.66a4.94,4.94,0,0,0,0-2c-.35,1.25-.69,2.45-1,3.77a4.46,4.46,0,0,1-.31-.43c-.39-.94-.81-1.88-1.16-2.82a13.71,13.71,0,0,1-1-5.69,6.94,6.94,0,0,0,0-.79c0-.1-.11-.2-.16-.3a3.34,3.34,0,0,0-.19.87,9.42,9.42,0,0,0,.1,4.26A31.73,31.73,0,0,0,117,35.2a1.28,1.28,0,0,1,0,1.08,13.85,13.85,0,0,0-1,3.21,30.16,30.16,0,0,0-3.42,2.71A21.24,21.24,0,0,1,108.45,35a18.34,18.34,0,0,1-.82-3.54,5.47,5.47,0,0,1,.1-2.41,7.28,7.28,0,0,0,.25-1.3c-1.18,1.95-1,4.07-.71,6.28-.87-.61-1.69-1.09-2.4-1.68a8.58,8.58,0,0,1-3-3.87,6.47,6.47,0,0,0-.46-1.09c0-.1-.15-.16-.31-.29a9.32,9.32,0,0,0,1,2.94,8.31,8.31,0,0,0,1.75,2.22,19.5,19.5,0,0,0,2.79,2.17c.8.51.78.56,1,1.44.17.55.33,1.08.52,1.62a22.14,22.14,0,0,0,3.17,5.81l-.58.6a24.44,24.44,0,0,0-2.32,3,19.56,19.56,0,0,0-2.14,4.2c-.34-.81-.73-1.58-1.13-2.36-.16-.3-.36-.58-.79-.47,0-.26-.1-.49-.15-.7a15.15,15.15,0,0,1-.64-4.13,11.92,11.92,0,0,0-.12-2.14,7.71,7.71,0,0,0-.91-2.55c-.41-.77-.81-1.56-1.23-2.34,0-.08-.14-.12-.22-.2a7.34,7.34,0,0,0,.61,2,7.28,7.28,0,0,1,.86,3.79c-.09,1-.15,2.06-.22,3.15a23.83,23.83,0,0,0-4.9-3.63c-1-.61-2-1.29-3-2A14.53,14.53,0,0,1,93.1,38.2c-.19-.17-.36-.32-.66-.1.76.77,1.46,1.59,2.26,2.31s1.69,1.34,2.71,2.13l-1.73-.18-1.55-.18L92.49,42a8.16,8.16,0,0,0-1.55-.16c-.48.06-1-.23-1.5.06a1.24,1.24,0,0,0,.46.23c1.39.24,2.77.49,4.16.72,1.16.18,2.32.33,3.47.54a4.23,4.23,0,0,1,2.12.88,16.85,16.85,0,0,1,4.2,5.92A15.89,15.89,0,0,1,105.11,56c0,1.71-.12,3.4-.13,5.1a20.39,20.39,0,0,0,.14,4,2.63,2.63,0,0,1,0,.63c-1.29-.32-2.55-.58-3.77-.92a8.32,8.32,0,0,1-2.41-1.06,13.08,13.08,0,0,0-3.44-1.49c0,.31,0,.57-.07.91-.14-.21-.24-.35-.33-.5a6.31,6.31,0,0,1-1.22-2.88,20.24,20.24,0,0,1,.22-4.92A13.35,13.35,0,0,0,94,51a2,2,0,0,0-.3-.7c0-.07-.21-.06-.37-.1a6.39,6.39,0,0,1,.2.73,12.15,12.15,0,0,1-.49,4.23,17.67,17.67,0,0,0-.89,5.45l.09.17-.16-.1a2.82,2.82,0,0,1-.61-.27,20.26,20.26,0,0,1-4-3.75,19.93,19.93,0,0,1-3.35-6.38c-.45.29-.2.66-.1,1a20,20,0,0,0,1.53,4.3,19.18,19.18,0,0,0,3.87,5.45c.16.15.29.33.51.58a7.88,7.88,0,0,0-1.17.06c-1.13.27-2.28.52-3.38.89A1.49,1.49,0,0,1,84,62.47c-1.09-.63-2.22-1.2-3.26-1.89a13,13,0,0,1-3.52-3.06A7.6,7.6,0,0,1,76,54.84c-.32-1.26-.49-2.56-.75-3.84a8.65,8.65,0,0,0-.37-1.39c0-.14-.16-.42-.46-.23a12.35,12.35,0,0,1,.66,3.38,20.84,20.84,0,0,0,.39,2.53A7.51,7.51,0,0,0,76.62,58,13.93,13.93,0,0,0,80,61.35c.87.59,1.75,1.21,2.62,1.81a.57.57,0,0,1-.11.14.85.85,0,0,1-.23.12,33.08,33.08,0,0,1-5.16.54,22,22,0,0,1-3.34-.31c-.56-.09-1.11-.42-1.72-.13.18,0,.36.08.51.14a17.06,17.06,0,0,0,5.57,1,27.28,27.28,0,0,0,4.61-.2c.88-.14,1.74-.33,2.61-.49,1-.18,2-.43,3.06-.53s2,0,3,0a2.08,2.08,0,0,1,1.28.43A12.9,12.9,0,0,0,94.31,65c1.58.84,3.14,1.72,4.79,2.44,2.22,1,4.52,1.75,6.78,2.6.18.07.33.15.53.24a1.22,1.22,0,0,1-.27.23c-1.59.83-3.18,1.69-4.79,2.49A16.14,16.14,0,0,1,96,74.38c-1.15.13-2.31.15-3.47.22-.65.06-1.28.14-2.05.23a1.83,1.83,0,0,0,.54.26c1.06.11,2.12.3,3.17.31a35.85,35.85,0,0,0,6-.11,21.09,21.09,0,0,0,3.31-.83c1.7-.55,3.37-1.22,5.09-1.74a11.92,11.92,0,0,1,2-.39c.3.51.62,1,.94,1.51s.54.86.83,1.29a.88.88,0,0,0,.14.23q.51.78,1,1.53c2.43,3.49,5.16,6.81,7.88,10.15,4.56,5.62,9.09,11.26,12.16,17.62.14.33.3.65.44,1a38.94,38.94,0,0,1,1.5,3.8c.07.18.11.35.17.53a35.34,35.34,0,0,1,1.33,5.83,1.72,1.72,0,0,1,0,.24,28.36,28.36,0,0,1-.33,5.62,30.6,30.6,0,0,1-1.07,4.52,33.35,33.35,0,0,1-2.75,6.25,35.24,35.24,0,0,1-2.14,3.35,37.14,37.14,0,0,1-3.27,4,34.64,34.64,0,0,1-2.67,2.61c-11.32,10.1-28.37,14.48-41.8,7.17-13.88-8.61-3.08-27.69,10.59-29.61,1-.24,1.92-.47,2.88-.66l1.52-.29a66,66,0,0,1,11.92-.81c1.12,0,2.25,0,3.35.1,3.09.15,6.15.44,9.18.77a4.37,4.37,0,0,0,.5.09,2.85,2.85,0,0,0,2.65-1.28,4.58,4.58,0,0,0-1.79-1.92,12,12,0,0,0-1.07-.62,22.39,22.39,0,0,0-6-1.73c-.84-.14-1.75-.27-2.67-.37l-.81.1c-.23,0-.39.17-.46-.18a.39.39,0,0,0,.14,0,79.48,79.48,0,0,0-9-.26c-1.27,0-2.55.08-3.81.17-2,.13-3.86.3-5.66.55A52.6,52.6,0,0,0,87.17,115a15.51,15.51,0,0,0-4.12,1.69c-22.87,9.66-18.57,42.19,7.79,41.65a59.69,59.69,0,0,0,33.72-7.83l1-.56a51.62,51.62,0,0,0,9.88-7.63c.4-.38.77-.78,1.14-1.19a37.78,37.78,0,0,0,2.73-3.22c.31-.4.62-.8.9-1.21a34.76,34.76,0,0,0,1.91-3c.08-.14.17-.28.24-.43a32,32,0,0,0,2.15-4.64c.22-.58.43-1.15.61-1.74.14-.43.25-.86.37-1.29s.31-1.19.43-1.77a31.61,31.61,0,0,0,.67-5.88q0-1.28,0-2.58a36.54,36.54,0,0,0-1.49-8.49c-.07-.32-.14-.62-.21-.92-.15-.51-.29-1-.46-1.56-2.47-7.51-8.53-14.57-14.5-21.62A116.27,116.27,0,0,1,119.82,69.6a38.45,38.45,0,0,1-2.51-4.66,24.73,24.73,0,0,1-2.08-7,17.58,17.58,0,0,1-.14-3.48,18.78,18.78,0,0,1,1-5.27c.1-.32.23-.67.36-1a25.22,25.22,0,0,1,1.13-2.44c.17-.24.36-.47.53-.7a20,20,0,0,1,2.38-2.55v0a17.68,17.68,0,0,1,5-3.18A16.83,16.83,0,0,1,131.82,38a.1.1,0,0,0,.07,0,18.6,18.6,0,0,1,3-.17,15.34,15.34,0,0,1,2.75.33l.38.1a26.51,26.51,0,0,1,8.08,2.12,15.54,15.54,0,0,1,2.2,1.54,24.15,24.15,0,0,0-4.61,2.79c-15.58,12.76-14.78,18.93-12.63,24.18,2.1,5.1,12.59,7.31,19.47,1.1a16.2,16.2,0,0,0,3.26-4.14c.21-.39.41-.79.61-1.21.1-.21.19-.41.28-.63a20.16,20.16,0,0,0,.81-2.31l-.14.08c.2-.54.39-1,.53-1.54s.2-.92.29-1.4a.09.09,0,0,1,0,0l.16-.08c1.86-6.68,1.13-11.73-.59-15.46-.17-.36-.33-.69-.51-1,.24-.16.5-.3.74-.46,1-.59,2-1.15,3-1.69.27-.16.56-.3.84-.45.93-.48,1.88-1,2.83-1.4.25-.13.51-.26.77-.37,3.08-1.44,6.18-2.69,9.1-3.76A5.83,5.83,0,0,1,172.28,33.45ZM110.87,46.17a.58.58,0,0,0-.13-.14l-.35-.06c.2-.22.3-.17.38,0a.91.91,0,0,0,.16.11Zm26.88-13.42-.1-.06s0,0,0,0l.11,0S137.77,32.72,137.75,32.75Zm7.73,12.13s0,0,0,0h-.06Zm5.39,14.44a3.48,3.48,0,0,1-.2.38,28.21,28.21,0,0,1-5.57,7.24c-3.9,3.47-7.36,3.24-5.7-5.92,1.15-6.33,5.72-11.64,11.64-16C154.49,50.61,151.88,57.19,150.87,59.32Zm3.27,3a.06.06,0,0,0,0-.05h0Z"/><path class="cls-2" d="M152.2,145.15c-13.77-11.09,8.46-47.56,24.75-44.52,11.22,8.18-5.58,25.08-15.84,25.79-5.35-.21-7.59,15.35-2.1,16.11,11.5,0,20.7-10.52,27-19.12.26-.39,1.57-.39,2.22.13C185.2,135.85,165.52,150,152.2,145.15Zm10.87-22.92c5.81.57,21-17.66,10.74-17.81C170.72,105.35,156.43,121.93,163.07,122.23Z"/><path class="cls-2" d="M183.23,139.78c-2.4-18.7,20.27-52.06,27-71.63.78-4.4,6.75-6.63,8.12-1.44-6.18,21.1-18.65,40.65-26.19,61.55-6.95,24.93,13,4.22,17.28-5.5C220.59,119.63,188.82,160.17,183.23,139.78Z"/><path class="cls-2" d="M209.55,145.15c-13.77-11.09,8.46-47.56,24.75-44.52,11.22,8.18-5.58,25.08-15.84,25.79-5.35-.21-7.59,15.35-2.1,16.11,11.5,0,20.7-10.52,27-19.12.26-.39,1.57-.39,2.22.13C242.55,135.85,222.87,150,209.55,145.15Zm10.87-22.92c5.81.57,21-17.66,10.74-17.81C228.07,105.35,213.78,121.93,220.42,122.23Z"/><path class="cls-2" d="M245,144.23c-18.92-8.26,18.66-63.3,27.9-39.81.74,5-4.7,8.92-3.8,1.18-4.75-15-35.18,42.59-11.39,34.57,8.68-4,15.24-10.48,20.82-18.2C289.47,122,256.43,152,245,144.23Z"/><path class="cls-2" d="M277.9,144c-10.76-13.17,7.92-34.73,11.78-48.71,1.1-3.77-4.82-1.4-5.36-4.06.41-3.66,7.15-.29,8.64-3.54,1.06-2,3.82-8.17,5.11-10,2.58-2.62,7.41.46,6,4.58-.25,2.41-3.35,5.17-.39,7.07,1.33.41,1.79,2.59.26,3-2.54.3-4.81.73-5.76,3.4-5,13.84-15.27,27.28-15.72,42.3,4.75,8.59,16.33-12.22,19.25-15.85C311.27,121.21,285.23,152.61,277.9,144Z"/><path class="cls-3" d="M296.62,139.91c-.26-1.31-.13-2.62-.26-2.75,1.17-15.79,10.34-32.59,25.53-37.84C348.66,99.05,307,166.54,296.62,139.91Zm15.32-2.49c4.83-3.07,23.07-36.12,9-32.08C314.12,107.13,292.9,153,311.94,137.42Z"/><path class="cls-4" d="M333,98.63c18.21-2.3,17.06-15.72,17.06-15.72s1.61,2.59-9.91,2.13-11.29,12.44-11.29,12.44,3.91-5.3,7.37-5.53l-4.84,6.68"/><path class="cls-4" d="M16,150.44a4.32,4.32,0,0,0-.43.45A.67.67,0,0,1,16,150.44Z"/><path class="cls-4" d="M29.46,160.08l-.2.2c-1.54,1.43-11.33,9.88-19.74.53C3.3,153.91.9,153.3,0,153.62c2.28-2.16,12.11-9.84,27,2L28.34,157l-9.69,1.43c2.31,2.08,7.29,2,9.59,1.8h0C29,160.14,29.46,160.08,29.46,160.08Z"/><path class="cls-3" d="M331.34,106.1c.26,1.31.13,2.61.26,2.75-1.17,15.79-10.34,32.59-25.53,37.84C279.3,147,320.94,79.47,331.34,106.1ZM316,108.58c-4.83,3.08-23.07,36.13-9,32.09C313.84,138.88,335.06,93,316,108.58Z"/><path class="cls-5" d="M61.62,148.61s-11.14,11.25-32.49,11.11l.21-.21c.54-.49-.64-2-.78-2.2C38.87,156.07,54.35,153.13,61.62,148.61Z"/><path class="cls-2" d="M176.49,61.34l-1.34,1a6,6,0,0,1-1.61.94,5.34,5.34,0,0,1-2.12.4c-.5,0-1,0-1.52,0h0a21.39,21.39,0,0,1-2.65-.14c-1.09-.14-2.19-.07-3.3-.17l-.15,0h0c-1.65-.13-3.31-.14-5-.21a1.55,1.55,0,0,1-.22-.06c.39-.39.78-.73,1.12-1.12a6.62,6.62,0,0,0,.66-.89,8.25,8.25,0,0,0,1-4.08c0-.79,0-1.58,0-2.35a2.48,2.48,0,0,1,.49-1.62,21.07,21.07,0,0,1,1.72-2,3.52,3.52,0,0,1,2-1.1,14.89,14.89,0,0,0,1.86-.36,52.89,52.89,0,0,0,5.63-1.71,2.7,2.7,0,0,0,1-.51,5,5,0,0,0,.33-.38c-.13,0-.24.08-.37.1l-1.72.46c-.72.19-1.45.36-2.17.53a8,8,0,0,1-2.09.3,6,6,0,0,1,.59-2.27,9.55,9.55,0,0,1,2.05-2.76l.43-.43c.71-.71,1.49-1.37,2.2-2.09a1.85,1.85,0,0,0,.59-1,1.72,1.72,0,0,0-.38.2,40,40,0,0,1-3.32,2.78l-.3.28a22,22,0,0,0-1.68,1.79,4.34,4.34,0,0,0-.35.49,10.49,10.49,0,0,0-1.25,3.09,2,2,0,0,1-.06.23h-.17a5.36,5.36,0,0,0-2.57.57,0,0,0,0,1,0,0s-.07,0-.12.06c-.22.1-.43.23-.64.35v0a11.82,11.82,0,0,0-2.31,2.14,17.3,17.3,0,0,0-.23-2,9.29,9.29,0,0,1,.06-3.93,5,5,0,0,1,1-2.3c.48-.55.95-1.08,1.44-1.61l-.05,0c-.11,0-.27,0-.34,0a7.51,7.51,0,0,0-1.56,1.35A8.58,8.58,0,0,0,160,45.05a2.29,2.29,0,0,1-.29.36c-.1-.54-.2-1-.25-1.51a7.87,7.87,0,0,0-.05-1.29,5,5,0,0,1,0-1.23,4.58,4.58,0,0,1,.41-1.78c-.28.15-.57.29-.84.45a6.52,6.52,0,0,0-.42,2.49,26.56,26.56,0,0,0,.16,2.67,10.31,10.31,0,0,0,.41,2.16,2.06,2.06,0,0,1,.09,1.19,4.14,4.14,0,0,0-.1,1.09c0,.55.1,1.09.13,1.62.06.84.07,1.67.16,2.5a12.8,12.8,0,0,1-.32,4.27,5.35,5.35,0,0,1-.57,1.42,3.23,3.23,0,0,1-.72.85,8.27,8.27,0,0,1-1.53.94l-.81.4a20.16,20.16,0,0,1-.81,2.31c-.09.22-.18.42-.28.63-.2.42-.4.82-.61,1.21,1.75-.09,3.5-.15,5.26-.23.13,0,.27,0,.4-.06a4.93,4.93,0,0,1,3.11.39c1.56.86,3.18,1.57,4.78,2.38a12.64,12.64,0,0,0,6.16,1.29c0-.1,0-.2,0-.29a10.1,10.1,0,0,1-3.83-.87,35.67,35.67,0,0,1-5.21-3.16l2.91-.18c1.09-.06,2.2-.08,3.3-.19a9.33,9.33,0,0,0,2.87-.77,5,5,0,0,0,.5-.29h0a11.42,11.42,0,0,0,2.41-2.14S176.49,61.52,176.49,61.34ZM162,35.42c-.41.51-.81,1-1.18,1.53l.7-.24c.16-.22.3-.45.46-.66S162.23,35.69,162,35.42Zm-6.61-2.74a.65.65,0,0,0-.15.11c-.1.16-.18.3-.26.46A10,10,0,0,1,152,36.88a0,0,0,0,1,0,0l0,0,0,.05a5.74,5.74,0,0,1,.41.45,12.06,12.06,0,0,0,1-1,13.76,13.76,0,0,0,1.79-2.89A.94.94,0,0,0,155.35,32.68Zm-4.35-7a1.23,1.23,0,0,0-.33.08,11.48,11.48,0,0,0-2.77,1.52,7.88,7.88,0,0,0-3.36,5.29l0,.25c.38.1.73.18,1.09.3q0-.53.12-1a5.72,5.72,0,0,1,.9-2.45,10.77,10.77,0,0,1,3.27-3.07c.44-.26.87-.5,1.36-.77A1,1,0,0,0,151,25.7Z"/><path class="cls-6" d="M154.33,20.05l-1.05,1.11L152,22.48a.49.49,0,0,1-.3-.54,20.8,20.8,0,0,1,0-2.09,9,9,0,0,1,3.62-6.64,11.39,11.39,0,0,1,4-2,4.22,4.22,0,0,1,.42,1.77,21.89,21.89,0,0,1,0,2.43,7.87,7.87,0,0,1-.92,3.12,8.14,8.14,0,0,1-1.74,2.21,8.38,8.38,0,0,1-2.66,1.64c-.54.21-1.06.48-1.79.81a4.54,4.54,0,0,1,.24-.53c.45-.69.91-1.37,1.34-2.06a1.3,1.3,0,0,0,.1-.49l.14-.07-.08-.08Z"/><path class="cls-7" d="M92,35.14l-1.2-2.91c-.11.3-.23.47-.19.55a19.94,19.94,0,0,1,.68,2.52c0,.06,0,.15-.06.32a9.87,9.87,0,0,1-5-5.56c-.79-2.35-.35-5.46.42-6.51C92.25,25.76,93.8,30.45,92,35.14Z"/><path class="cls-6" d="M147.8,73.66l2.29,1.41c0-.22.06-.35-.16-.52-.61-.44-1.16-1-1.72-1.44-.08-.07-.15-.16-.25-.26,4-.88,9,.82,10.8,6.7a9.28,9.28,0,0,1-7.13-.5,8.32,8.32,0,0,1-4-5.25Z"/><path class="cls-8" d="M93.07,12.41a9.25,9.25,0,0,1,5.37,3.05,6.61,6.61,0,0,1,1.41,2.87,9.68,9.68,0,0,1,0,4.08,18.26,18.26,0,0,0-1.6-2.3c.17,1,.71,1.79.91,2.66-1.21.15-4.22-1.92-5.25-3.87A9.07,9.07,0,0,1,93.07,12.41Zm5.2,7.53a1.06,1.06,0,0,0-.23-.05S98,20,98,20l.22.08S98.23,20,98.27,19.94Z"/><path class="cls-9" d="M118.86,0A9.26,9.26,0,0,0,120,.36a7.36,7.36,0,0,1,3.81,2,6.72,6.72,0,0,1,2.06,3.83,12.42,12.42,0,0,1,0,3.28,3.11,3.11,0,0,1-.23-.28c-.35-.52-.69-1-1-1.56a.67.67,0,0,0-.46-.25l1.25,2.8A9.1,9.1,0,0,1,120,6.34,9,9,0,0,1,118.86,0Z"/><path class="cls-9" d="M108,2.91a9.87,9.87,0,0,0,1.18.36,7.36,7.36,0,0,1,3.81,2A6.78,6.78,0,0,1,115,9.09a12.86,12.86,0,0,1,0,3.28c-.08-.1-.16-.18-.23-.28-.35-.52-.69-1.05-1.05-1.56a.67.67,0,0,0-.47-.25l1.26,2.8a9.14,9.14,0,0,1-5.41-3.83A9,9,0,0,1,108,2.91Z"/><path class="cls-6" d="M76.2,23.54a6.47,6.47,0,0,1,1.68.14,11.51,11.51,0,0,0,1.26.19,7.3,7.3,0,0,1,5.59,5.54c.15.62.22,1.26.35,2a1.54,1.54,0,0,1-.38-.17c-.46-.43-.88-.9-1.51-1.45,0,.32,0,.46.07.54.42.57.86,1.12,1.38,1.78a9.36,9.36,0,0,1-5.88-2.36A9.1,9.1,0,0,1,76.2,23.54ZM83,29.65l.11.15.06-.05L83,29.63c-.07-.2-.17-.24-.37,0Z"/><path class="cls-8" d="M143.11,13c-.12-.93.64-1.6.48-2.56a12.65,12.65,0,0,0-1.3,2.53c-.89-.88-1.17-3.77-.91-5.09a8.45,8.45,0,0,1,4.51-6.07A7.54,7.54,0,0,1,143.11,13Z"/><path class="cls-8" d="M145,16.9l-1.27.69L143,18c-.29-1.31,1-3.79,2.18-4.95a8.36,8.36,0,0,1,6.46-2.42,7.41,7.41,0,0,1-8.07,7.91,3.17,3.17,0,0,1,1-.95c.23-.16.5-.31.5-.66l.34-.19.13-.08-.08-.07-.07.13Z"/><path class="cls-9" d="M142.11,24.94c-.18,0-.38.1-.57.17-2.78,1.05-4.83,2.78-5.48,5.79a9.87,9.87,0,0,0-.31,1.49,2.23,2.23,0,0,0,0,.27,30.9,30.9,0,0,1,4.72,0A7.19,7.19,0,0,0,142.11,24.94Z"/><path class="cls-9" d="M145.5,44.92h-.06l0,0S145.5,44.91,145.5,44.92Z"/><path class="cls-9" d="M153.44,30.92a6.67,6.67,0,0,1-2.67,4.84,4.2,4.2,0,0,1-.49.33c-.44-.33-.91-.64-1.41-1a.35.35,0,0,0,0-.27l.15-.07-.07-.07a.57.57,0,0,0-.08.13.17.17,0,0,0-.18.2,19,19,0,0,0-1.87-.9,7.45,7.45,0,0,1,.29-1.42,7.82,7.82,0,0,1,2.71-3.66,11.73,11.73,0,0,1,2.78-1.46c.42-.16.56-.05.66.38A8.71,8.71,0,0,1,153.44,30.92Z"/><path class="cls-8" d="M98.62,70.4l1.92,1,.6.31a7.43,7.43,0,0,1-5.47.66,8.8,8.8,0,0,1-5.18-4c3.8-2.46,8.78-1.46,10.77,2.71-.66-.2-1.26-.4-1.87-.57a6.71,6.71,0,0,0-.76-.13c-.12-.31-.31-.13-.49,0Z"/><path class="cls-8" d="M112.55,75.36l-.37.1-.29.17s0-.07-.06-.11l.32-.1a.61.61,0,0,1,.26-.29c-.29-.43-.58-.86-.83-1.29a6.23,6.23,0,0,0-3.46,1A7.64,7.64,0,0,0,104.69,80c.59.07,1.09.16,1.61.17s1,0,1.49,0a7.18,7.18,0,0,0,3.26-.93,7.72,7.72,0,0,0,2.55-2.33Q113.06,76.14,112.55,75.36Zm-.93.4-.29,0v0l.29,0Z"/><path class="cls-10" d="M102.89,63.22,102,60.67c-.11.21-.21.3-.2.37.16.77.34,1.53.51,2.3-.86,0-2.46-1.42-3.31-3a7.78,7.78,0,0,1-.07-7.18C102.43,54.38,105.12,58.24,102.89,63.22Z"/><path class="cls-9" d="M111.67,24.85c-.15-.82.47-1.44.27-2.23-.46.73-.71,1.49-1.15,2.32a7.07,7.07,0,0,1-.72-1.86,8.9,8.9,0,0,1-.18-3,6.64,6.64,0,0,1,1.33-3.34,9,9,0,0,1,2.14-2.12c.32-.23.54-.21.71.15a11.39,11.39,0,0,1,1.11,3.35,6.42,6.42,0,0,1-1.26,4.69A7.18,7.18,0,0,1,111.67,24.85Z"/><path class="cls-9" d="M101.79,50.19c-.42,0-.61-.4-1-.53a4.41,4.41,0,0,1-.5-.28c.08.26.08.4.15.48.36.38.73.74,1.14,1.15a7.89,7.89,0,0,1-7-2.3,9.38,9.38,0,0,1-1.91-3.29c-.19-.54,0-.75.53-.8a12.83,12.83,0,0,1,1.63-.15,6.86,6.86,0,0,1,5.44,2.45,5.64,5.64,0,0,1,1.49,3.27ZM100,49.34l.13.14,0,0-.14-.13-.31-.14,0,.12Z"/><path class="cls-9" d="M122.51,16.25a2.47,2.47,0,0,0,.51,1.24c.13.24.28.48.43.71-.49.32-.91.06-1.27-.09a9,9,0,0,1-3.17-2,7.89,7.89,0,0,1-1.93-3.54,11.37,11.37,0,0,1-.17-2.92,8.48,8.48,0,0,1,3.57,1,6.17,6.17,0,0,1,3.28,4.25c.12.58.25,1.16.33,1.74a11.08,11.08,0,0,1,0,1.32l-1.55-1.78-.3-.14,0,.12Z"/><path class="cls-9" d="M134.47,12.69l-1.17-2.54h-.09l-.12.06a10.37,10.37,0,0,1,.7,2.79,3.89,3.89,0,0,1-.63-.25,13.12,13.12,0,0,1-1.79-1.32,7.05,7.05,0,0,1-2-3.16,5.77,5.77,0,0,1-.24-3.09,13.36,13.36,0,0,1,.21-1.51c.09-.23.16-.46.25-.69C134.51,4.74,135.91,8.73,134.47,12.69Z"/><path class="cls-8" d="M95.15,30.78c2.44,1.09,4.22,2.63,4.77,5.16a7.23,7.23,0,0,1-.58,4.83,11.63,11.63,0,0,0-1.09-2.43A21.76,21.76,0,0,1,98.64,41a2.82,2.82,0,0,1-1.53-.93,7.32,7.32,0,0,1-2.67-4.8A8.53,8.53,0,0,1,95.15,30.78Z"/><path class="cls-8" d="M105.49,29.31l.2-3.26-.15,0c-.11.57-.23,1.14-.34,1.71l-.31,1.77a7.66,7.66,0,0,1,.36-10.85,7.69,7.69,0,0,1,2.7,6.09C107.84,26,106.46,28.92,105.49,29.31Z"/><path class="cls-11" d="M82.46,57.33A14.55,14.55,0,0,0,83,60a2.26,2.26,0,0,1-.55-.16,8.07,8.07,0,0,1-3.68-4.33,6.18,6.18,0,0,1-.32-1.65A8.71,8.71,0,0,1,78.93,50a3.65,3.65,0,0,1,1,.27,10.81,10.81,0,0,1,2.28,1.66,6.79,6.79,0,0,1,1.88,3.61,10.4,10.4,0,0,1-.41,4.14c-.54-.52-.56-1.18-.86-1.72l-.35-.61-.06-.47C82.38,57,82.13,57.25,82.46,57.33Z"/><path class="cls-6" d="M89.48,38.88,91,40.51a7.68,7.68,0,0,1-8.94-6.15c.33-.06.65-.14,1-.19s.64.07.93-.16c0,0,.17,0,.25,0A9.51,9.51,0,0,1,88,35a6.55,6.55,0,0,1,2.64,2.83,3.13,3.13,0,0,1,.61,1.91h0a2.1,2.1,0,0,1-1.06-.63.83.83,0,0,0-.69-.25c-.07-.21-.18-.25-.38,0Z"/><path class="cls-7" d="M91.34,56.28l-.68-1.91c-.43,0-.31.31-.28.46.08.41.22.81.31,1.22a3.64,3.64,0,0,1,0,.68,8.33,8.33,0,0,1-4-5.35c-.34-1.62.12-4.21.81-5C91.89,48.2,93.25,52.39,91.34,56.28Z"/><path class="cls-9" d="M182.6,33.78a5.6,5.6,0,0,1-2.34,4.09,8.47,8.47,0,0,1-2.2,1.26,4,4,0,0,1-.69.09h0c.15-.28.28-.55.4-.82a3.2,3.2,0,0,0,.16-.39c.19-.08.26-.18,0-.39a2.88,2.88,0,0,0,0,.35,1.9,1.9,0,0,0-.45.23c-.3.26-.58.56-.87.84a7.18,7.18,0,0,1,2.58-7.19h0c.15-.13.31-.26.48-.38a6.6,6.6,0,0,1,2.76-1.1c0,.13.08.26.11.39s0,0,0,.07A7.72,7.72,0,0,1,182.6,33.78Z"/><path class="cls-8" d="M157.67,27.36l-1.51,1.51a7.22,7.22,0,0,1,1.05-5.57A8.08,8.08,0,0,1,162,20a8.83,8.83,0,0,1,.23,3.74,5.56,5.56,0,0,1-1.39,3,7.93,7.93,0,0,1-3.74,2.32c-.2-.19-.1-.34,0-.53.23-.38.65-.67.61-1.19l.13-.08-.08-.08Z"/><path class="cls-11" d="M166.87,31.94l.91-1.64c-.52.07-.64.38-.83.64a5.56,5.56,0,0,1-.79.73,3.16,3.16,0,0,1-.18-2.12,8.34,8.34,0,0,1,.83-2.71,7.73,7.73,0,0,1,2.82-2.94,10.72,10.72,0,0,1,1.66-.83c.46-.2.67,0,.81.43a7.09,7.09,0,0,1,.13,2.82,6,6,0,0,1-1.58,3.47,7.81,7.81,0,0,1-3.2,2.07A3.92,3.92,0,0,1,166.87,31.94Zm1-2,.14-.06-.08-.09-.07.14-.15.12.05,0Z"/><path class="cls-6" d="M132.36,17.11a1.69,1.69,0,0,0,.66,1.07c.16.16.35.32.19.59a7.38,7.38,0,0,1-5.26-2.2,7.12,7.12,0,0,1-2.06-4.83,7,7,0,0,1,5.92,1.82,6.87,6.87,0,0,1,2,4.68c-.39-.38-.67-.67-1-.93a1.71,1.71,0,0,0-.45-.22l-.17-.18-.18-.17-.12-.15,0,.05.16.11.17.18Z"/><path class="cls-11" d="M100.77,30c-.65-.09-.75-.86-1.41-.68l.89,1.21c-1,.33-3.32-.31-4.58-1.34a7.79,7.79,0,0,1-2.84-5.43,7,7,0,0,1,5.66,1.49A7.46,7.46,0,0,1,100.77,30Z"/><path class="cls-12" d="M138.35,20.12a20.56,20.56,0,0,0-.11-2.63l-.53,2.77c-.68-.35-.88-1-1.18-1.61a6.3,6.3,0,0,1-.77-3.86,8.09,8.09,0,0,1,2.36-4.68A6.59,6.59,0,0,1,138.35,20.12Z"/><path class="cls-9" d="M111.76,29.09c3.87,2.36,4.75,6,2.56,9.82-.14-.54-.28-1-.38-1.49s-.17-1-.26-1.59c-.35,1.13.17,2.16,0,3.22A7,7,0,0,1,111.76,29.09Z"/><path class="cls-9" d="M81.12,39.05c1.48.08,3.41,1.77,4.22,3.61a7.35,7.35,0,0,1-.14,5.6c-.58-.59-.39-1.55-1.12-2.2l.51,2.39c-.22,0-.4,0-.51-.08a7.47,7.47,0,0,1-3.24-4.18A6.75,6.75,0,0,1,80.67,41C80.81,40.37,81,39.74,81.12,39.05Z"/><path class="cls-8" d="M86.45,67c.53.41.9,0,1.3-.09a7.85,7.85,0,0,0,1.35-.37c0,.17.07.29,0,.37a7.33,7.33,0,0,1-4.8,3.94,4.73,4.73,0,0,1-2.72.12,8.49,8.49,0,0,0-1.77-.23,6.6,6.6,0,0,1,8.93-4.78A6.68,6.68,0,0,1,86.45,67Z"/><path class="cls-7" d="M119.37,28.19V26h-.13l-.44,2.25a7.1,7.1,0,0,1,.4-10.1A6.48,6.48,0,0,1,119.37,28.19Z"/><path class="cls-13" d="M108.19,18.3l-.63-2.93c-.13,1,.18,2.07,0,3.12a7.16,7.16,0,0,1-2-9.91A6.55,6.55,0,0,1,108.19,18.3Z"/><path class="cls-9" d="M155.09,70.15l1.81.27,0-.12c-.27-.14-.54-.3-.81-.42s-.62-.25-1-.39a7,7,0,0,1,9.61,2.21,6.6,6.6,0,0,1-5.13,1.45A6.73,6.73,0,0,1,155.09,70.15Z"/><path class="cls-8" d="M169.9,71.44c-.1-.29-.18-.59-.3-.87s-.29-.61-.44-.92c1.08-.19,3.14,1,4.38,2.76a6.86,6.86,0,0,1,1.07,5.16,7.08,7.08,0,0,1-4.15-1.81c-1.71-1.53-2-3.51-1.78-5.69.44.25.57.71.85,1,.1.12.22.24.34.36l.12.15,0-.06Zm.3.37h-.11l0,.29h0Z"/><path class="cls-11" d="M171.66,35.73c-.11.43-.2.72-.27,1a6.48,6.48,0,0,1-1.32,2.6,5.28,5.28,0,0,1-2.6,1.73,4.05,4.05,0,0,1-1.43.24c-.72,0-1.45,0-2.35,0l1.43-1c-.63-.19-1,.36-1.59.29,0-.1-.08-.22,0-.31a7.76,7.76,0,0,1,2.38-3.24,6.5,6.5,0,0,1,4-1.33Z"/><path class="cls-8" d="M172.14,54.27a7.8,7.8,0,0,1-2.24,4.15,4.05,4.05,0,0,1-1.41.92,6.25,6.25,0,0,1-3.93.36c.06-.36.37-.47.64-.62s.5-.24.92-.44c-.28-.07-.4-.14-.49-.11-.55.21-1.1.45-1.66.68a6.35,6.35,0,0,1,2.26-3.64A7.58,7.58,0,0,1,172.14,54.27Z"/><path class="cls-7" d="M173.5,69.74l2.41-.53c-.9-.29-1.77.1-2.66.06a6.64,6.64,0,0,1,9.15-2.15A6,6,0,0,1,173.5,69.74Z"/><path class="cls-7" d="M175.61,52.36l2.41-.53c-.9-.28-1.77.11-2.66.06a6.65,6.65,0,0,1,9.15-2.14A6,6,0,0,1,175.61,52.36Z"/><path class="cls-10" d="M127.35,19.59a5.93,5.93,0,0,1,4.84,7.83c-.45-.51-.47-1.25-1-1.61,0,0-.05,0-.15,0a6.17,6.17,0,0,1,.67,1.84c-1.16,0-3-1.56-3.82-3.12A6.93,6.93,0,0,1,127.35,19.59Z"/><path class="cls-11" d="M120.25,35.91l.36-1c.2-.07.25-.18,0-.37l0,.35c-.1,0-.25,0-.31.11-.25.32-.48.65-.8,1.08a7,7,0,0,1,.59-4.94A7.32,7.32,0,0,1,124,27.88a5.89,5.89,0,0,1,.45,3.37A5.44,5.44,0,0,1,122.22,35c-.29.22-.61.41-.92.6a1.42,1.42,0,0,1-1,.28Z"/><path class="cls-11" d="M108.45,42.1a6.29,6.29,0,0,0-4-.17,6.52,6.52,0,0,0,4.1,5,24.44,24.44,0,0,1,2.32-3A5,5,0,0,0,108.45,42.1Z"/><path class="cls-12" d="M166,16.07a5.36,5.36,0,0,1,.09,8.37c-.23-.4,0-.85-.2-1.31l-.34,1.46A6,6,0,0,1,166,16.07Z"/><path class="cls-12" d="M148.61,19.18c1.66,3.92-.28,6.84-3,7.86l.16-.86-.14-.07c-.11.14-.21.27-.33.4l-.43.4C143.84,23.69,145.27,20.74,148.61,19.18Zm-2.69,6.64c.19-.08.25-.18,0-.38l-.05.35-.15.13.06,0Z"/><path class="cls-13" d="M160.82,34.26a6.3,6.3,0,0,1-1.1,3.05q-2.61.88-5,1.81l.34-.26a1.06,1.06,0,0,0,.19-.33l.3-.07a.52.52,0,0,0-.06-.13,2,2,0,0,1-.25.18l-1.38.56a3.44,3.44,0,0,1,.46-1.62,5.84,5.84,0,0,1,1.83-2.15,8.27,8.27,0,0,1,1.88-.94,5.1,5.1,0,0,1,1.18-.19c.11,0,.26,0,.34,0A1.32,1.32,0,0,1,160.82,34.26Z"/><path class="cls-12" d="M163,32.66l-.49,2.4a5.88,5.88,0,0,1,.5-8.41,5.24,5.24,0,0,1,0,8.26l.15-2.27Z"/><path class="cls-12" d="M108.13,39.21c-.32-.11-.44-.53-.87-.28l.56.69a5.68,5.68,0,0,1-4.24-1.5A6.57,6.57,0,0,1,101.66,34a5.64,5.64,0,0,1,4.72,1.3A5.35,5.35,0,0,1,108.13,39.21Z"/><path class="cls-12" d="M163,49.64a5.47,5.47,0,0,1,1.63-4.3,4.49,4.49,0,0,1,3.22-1.43,5.83,5.83,0,0,1-.31,3.14,4.78,4.78,0,0,1-2.82,2.61,1.23,1.23,0,0,1-1.28,0C163.31,49.59,163.13,49.64,163,49.64Zm.86-.51-.15.13.05.05.13-.15L164,49l-.06-.06Z"/><path class="cls-14" d="M174.65,37.26c.36,2.82-.65,5.27-4.2,6.12-.08-.29-.33-.37-.63-.38a5.34,5.34,0,0,1,1.37-4A5.16,5.16,0,0,1,174.65,37.26Z"/><path class="cls-15" d="M173.53,63.75c0-2.7,1.17-5.11,4.83-5.88a5.6,5.6,0,0,1-.67,4,5.22,5.22,0,0,1-3,2,1.08,1.08,0,0,1-.5,0c-.1,0-.19-.1-.3-.13A2.49,2.49,0,0,0,173.53,63.75Zm.87-.48.16-.18.16-.12-.05,0-.13.15-.18.17-.15.12.06.06Z"/><path class="cls-12" d="M154.18,62.26a.06.06,0,0,1,0,.05l.09,0Zm4.33-4.39a7,7,0,0,0-2.16.79l-.16.08a.09.09,0,0,0,0,0c-.09.48-.19,1-.29,1.4s-.33,1-.53,1.54l.14-.08a20.16,20.16,0,0,1-.81,2.31c.05,0,.08,0,.13,0A5.12,5.12,0,0,0,158,61.54a4.59,4.59,0,0,0,.53-2.08A10.56,10.56,0,0,0,158.51,57.87Z"/><path class="cls-10" d="M179.94,41.34c-.16,3.69-2,5.13-5,5.41l.32-.71-.75.26A5.12,5.12,0,0,1,179.94,41.34Z"/><path class="cls-12" d="M172.56,34.07c1-.37,2.05-.73,3-1.06a4.72,4.72,0,0,1-1.13,2.58c-.1-.66-.2-1.29-.3-1.92h-.1v2.09c-.72-.24-.95-.83-1.25-1.29C172.72,34.34,172.65,34.21,172.56,34.07Z"/><path class="cls-12" d="M175.62,32.54l-3.34.91a4.84,4.84,0,0,1,1-5A4.94,4.94,0,0,1,175.62,32.54Z"/><path class="cls-16" d="M101.09,25.63l-.34,0a18.53,18.53,0,0,1,.23-4.46s0,0,0,0,.06,0,.06.06v4.4Z"/><path class="cls-17" d="M176.65,132l0-.27,3.3,0a1.07,1.07,0,0,1,.32.08A17.13,17.13,0,0,1,176.65,132Z"/><path class="cls-18" d="M87,41.38c.77-.25,1.41.13,2.07.17.11,0,.21.16.34.26C88.84,42,88.48,42,87,41.38Z"/><path class="cls-16" d="M101.09,25.63c.24.06.19.18,0,.31v-.31Z"/><path class="cls-1" d="M122.18,139.54l-.25.19-.06-.12.3-.08Z"/><path class="cls-9" d="M101.79,50.19l.13.06-.06.07-.07-.13Z"/><path class="cls-11" d="M120.25,35.91l-.06.14-.08-.07.14-.07Z"/><path class="cls-6" d="M91.25,39.74l.14.06-.07.08-.07-.14Z"/><path class="cls-12" d="M177.89,72.14l-.13-.07.07-.07.06.14Z"/><path class="cls-9" d="M177.37,39.22l-.06.14-.09-.08.14-.07Z"/><path class="cls-19" d="M135.75,110l-.15-.22c-.06-.08,0-.21-.06-.32h0C135.64,109.6,135.7,109.77,135.75,110Z"/><path class="cls-19" d="M135.54,109.41l-.14,0,.07-.08.06.13Z"/><path class="cls-1" d="M145.5,44.92h-.06l0,0S145.5,44.91,145.5,44.92Z"/><path class="cls-1" d="M154.23,62.27l-.09,0a.06.06,0,0,0,0-.05Z"/><path class="cls-1" d="M155.89,60.19c-.11.5-.24,1-.39,1.46l-.14.08C155.56,61.19,155.75,60.69,155.89,60.19Z"/><path class="cls-12" d="M179.63,31.47c-.17.12-.33.25-.48.38h0c-1.12.36-2.31.73-3.54,1.16-1,.33-2,.69-3,1.06a5.83,5.83,0,0,1-.28-.62l3.34-.91Z"/><path class="cls-1" d="M186.46,29.78c-1.05.26-2.38.62-4,1-1,.3-2.16.64-3.36,1,.15-.13.31-.26.48-.38,1-.25,2-.5,2.87-.71C184.06,30.36,185.4,30,186.46,29.78Z"/><path class="cls-1" d="M145.5,44.92h-.06l0,0S145.5,44.91,145.5,44.92Z"/><path class="cls-1" d="M156.35,58.66a15.6,15.6,0,0,1-.46,1.53c.1-.44.2-.92.29-1.4a.09.09,0,0,1,0,0Z"/><path class="cls-2" d="M148.76,154.11v1.18H146.3v1.27h1.84v1.14H146.3v2.45h-1.47v-6Z"/><path class="cls-2" d="M161.22,160.15,160,157.87h-.35v2.28h-1.47v-6h2.47a2.71,2.71,0,0,1,1.22.25,1.71,1.71,0,0,1,.75.68,2,2,0,0,1,.25,1,1.76,1.76,0,0,1-1.34,1.74l1.39,2.4Zm-1.61-3.32h.91a.86.86,0,0,0,.61-.2.77.77,0,0,0,.2-.56.73.73,0,0,0-.2-.54.86.86,0,0,0-.61-.2h-.91Z"/><path class="cls-2" d="M173.82,155.29v1.22h2v1.13h-2V159h2.23v1.18h-3.7v-6h3.7v1.18Z"/><path class="cls-2" d="M186.6,160a1.75,1.75,0,0,1-1.17-1.65H187a.76.76,0,0,0,.23.51.75.75,0,0,0,.52.18.78.78,0,0,0,.51-.15.55.55,0,0,0,0-.79,1.08,1.08,0,0,0-.37-.24,5.74,5.74,0,0,0-.62-.22,7.07,7.07,0,0,1-1-.36,1.76,1.76,0,0,1-.63-.53,1.48,1.48,0,0,1-.27-.92,1.58,1.58,0,0,1,.61-1.32,2.91,2.91,0,0,1,3.2,0,1.71,1.71,0,0,1,.66,1.33h-1.6a.61.61,0,0,0-.21-.46.77.77,0,0,0-.51-.17.65.65,0,0,0-.43.14.56.56,0,0,0,.11.87,4.94,4.94,0,0,0,.86.35,7.44,7.44,0,0,1,1,.38,1.77,1.77,0,0,1,.64.52,1.47,1.47,0,0,1,.26.89,1.71,1.71,0,0,1-.26.94,1.85,1.85,0,0,1-.76.67,2.7,2.7,0,0,1-1.18.25A3,3,0,0,1,186.6,160Z"/><path class="cls-2" d="M204.73,154.11v6h-1.47v-2.49H201v2.49H199.5v-6H201v2.36h2.29v-2.36Z"/><path class="cls-2" d="M231.65,154.11v6h-1.47v-3.63l-1.35,3.63h-1.19l-1.35-3.63v3.63h-1.48v-6h1.74l1.7,4.18,1.67-4.18Z"/><path class="cls-2" d="M245.07,159.08h-2.25l-.36,1.07h-1.54l2.18-6h1.71l2.18,6h-1.56Zm-.38-1.14-.74-2.21-.74,2.21Z"/><path class="cls-2" d="M259.33,160.15l-1.25-2.28h-.35v2.28h-1.48v-6h2.47a2.65,2.65,0,0,1,1.22.25,1.61,1.61,0,0,1,.75.68,1.87,1.87,0,0,1,.25,1,1.75,1.75,0,0,1-.34,1.07,1.77,1.77,0,0,1-1,.67l1.39,2.4Zm-1.6-3.32h.91a.82.82,0,0,0,.6-.2.73.73,0,0,0,.21-.56.7.7,0,0,0-.21-.54.82.82,0,0,0-.6-.2h-.91Z"/><path class="cls-2" d="M274,160.15l-2-2.67v2.67h-1.47v-6h1.47v2.65l2-2.65h1.73l-2.34,3,2.42,3.08Z"/><path class="cls-2" d="M286.53,155.29v1.22h2v1.13h-2V159h2.23v1.18h-3.7v-6h3.7v1.18Z"/><path class="cls-2" d="M302.66,154.11v1.18h-1.6v4.86h-1.47v-4.86H298v-1.18Z"/></g></g></svg>