<svg xmlns="http://www.w3.org/2000/svg" viewBox="0 0 712.75 403.56"><defs><style>.cls-1{fill:#fff;}.cls-2{fill:#56c800;}</style></defs><g id="Capa_2" data-name="Capa 2"><g id="Capa_1-2" data-name="Capa 1"><path class="cls-1" d="M153.61,60.94c-.92.13-2.23-.92-3-2.24s-.66-2.23.26-2.23c15.12-.66,32.35-8.81,45.24-18.94,6.31-4.87,11.44-10.13,14.73-15.26,3.29-4.86,4.73-9.33,3.81-12.88a5.55,5.55,0,0,0-1.71-2.5,5.47,5.47,0,0,0-2.1-1.19c-7.89-3.15-22.62,0-38.53,8.16-16.18,8.28-37.22,20.25-58.4,48.66a120.25,120.25,0,0,0-15.25,26c-5.26,12.89-6.45,24.2-3.82,32.48A16.93,16.93,0,0,0,103,131.3c4.86,2.37,11.44,3.16,19.59,1.84,19.34-3.15,47.09-18.28,81.94-50.5.52-.39,1.84.13,2.89,1.18s1.45,2.5.92,3c-35.11,32.48-63,47.61-82.72,50.9-8.81,1.44-16.18.39-21.83-2.5a25.86,25.86,0,0,1-13.16-15.79c-2.76-9.07-1.57-21.17,3.82-34.58,3.81-9.47,9.47-18.15,15.52-26.44,21.3-28.54,42.48-40.64,58.79-48.92s31.95-11.71,40.9-8a19.67,19.67,0,0,1,3.94,2.23,14.53,14.53,0,0,1,5.13,7.37c1.32,4.47-.26,9.73-3.81,15.12a68.68,68.68,0,0,1-15,15.52C186.75,52,169.13,60.41,153.61,60.94Z"/><path class="cls-1" d="M207.92,79.35c.53-.39,1.84.13,2.89,1.32s1.32,2.5.79,3a7.35,7.35,0,0,0-1,.79c-2.76,2.5-5,6.58-6.44,10.65-1.06,3.42-1.58,6.58-.92,7.89a3.88,3.88,0,0,0,2.49,0,10.22,10.22,0,0,0,3.95-2.49,23.51,23.51,0,0,0,5.13-7,26.73,26.73,0,0,0,2.1-5.4,18.9,18.9,0,0,1-5.13-6.7A14.14,14.14,0,0,1,210.42,75c.26-1.84,1.05-3.15,2.63-3.42a5.71,5.71,0,0,1,3.29.66,9.74,9.74,0,0,1,4.08,4.47,14.38,14.38,0,0,1,1.44,4.74,20.54,20.54,0,0,1,0,5.65,16.65,16.65,0,0,0,11.84-1.58c.66-.39,1.31-.92,2.37.27s.78,2.1.13,2.49c-6.18,3.42-10.79,3.95-14.87,2.5a23.28,23.28,0,0,1-2.49,6.58,25.4,25.4,0,0,1-5.4,7.36A12.87,12.87,0,0,1,209,107.5a6.46,6.46,0,0,1-5.13-.53,9.85,9.85,0,0,1-2.63-2.1l-.79-.79c-2.1-3-2-7.89-.52-12.5a27.64,27.64,0,0,1,6.84-11.31C207.13,80,207.53,79.62,207.92,79.35Zm9.6,5.66a22.51,22.51,0,0,0,0-5.92,11.39,11.39,0,0,0-.66-2.89H217a1,1,0,0,0-.92,0c-.79,0-1.19.78-1.32,2a8,8,0,0,0,.79,4.08A6.69,6.69,0,0,0,217.52,85Z"/><path class="cls-1" d="M237.64,78.43c.4-.66,1.71-.39,2.76.66s1.71,2.5,1.32,3.16l-3.29,5.91c7.1-5.91,14.86-11.7,17.75-10.91h.27c3.94,1.18,4.6,3.68,3.68,7a37.18,37.18,0,0,1-2.24,5.13c-1.71,3.42-3.68,7.23-3.68,7.23,4.21,2.76,18.41-9.73,18.55-9.73.39-.53,1.84-2.24,2.89-1s.39,1.31-.13,2c0,0-14.34,17-21.18,12.49-5.91-3.81-3-9.6-.52-14.73a33.84,33.84,0,0,0,1.44-3.15c-7.49,3.94-25,20.64-25.51,21.17s-1.58.13-2.63-.79c-1.05-1.18-1.71-2.5-1.32-3.15Z"/><path class="cls-1" d="M310,26.88c.4-.53,1.71-.27,2.76.92s1.58,2.5,1.19,3c0,.13-9.6,13.42-19.86,28.8H327.6a4.44,4.44,0,0,1,3,2.24c.79,1.32.66,2.37-.26,2.37H291c-2.76,4.21-5.52,8.55-8.15,12.75v.14c0,.52-.26.79-.53.79-8,13-12.36,20.51-10.91,23.14,2.37,4.47,29.06-16.83,29.06-17,.53-.4,1.32-.66,2.37.52s.26,1.84-.26,2.24c-.13.13-30,29.59-36.43,17.75-2-3.68,4.07-16.31,12.49-30.25-.13,0,.79-1.44.79-1.44.26-10-33.4-8.68-33.4-8.68a4.28,4.28,0,0,1-3-2.37c-.79-1.18-.66-2.24.26-2.24h44.46C298.79,42.4,309.84,27,310,26.88ZM280.91,70.54l3.94-6.31-16.44-.66C272.36,65.15,278.8,67.78,280.91,70.54Z"/><path class="cls-1" d="M321.94,83.56c.52,1.32.13,2.1-.92,1.84a5.14,5.14,0,0,1-2.9-2.63c-2.63-2.5-9.07.53-11.44,2.5A25.61,25.61,0,0,0,297.61,100c4.6-1.32,16.57-15.26,16.57-15.26.53-.52,1.71-.13,2.89,1.06.92,1,1.45,2.23,1.05,2.89a13.4,13.4,0,0,0-1.05,7.76c.53,3.16,17.63-11.18,17.89-11.31a1.72,1.72,0,0,1,2.63-.13c1.05,1.18.92,2.23.39,2.76-8.68,7.76-13.81,12.36-17.36,14.2-6.05,3.16-10.65,1.32-10.52-5.13-4.73,4.48-9.6,8.55-12.49,7.24a7.81,7.81,0,0,1-2.63-2,7.2,7.2,0,0,1-1.58-5.52,15.2,15.2,0,0,1,1.45-5A31.17,31.17,0,0,1,303,81.06C308.92,76.2,319.7,75.93,321.94,83.56Z"/><path class="cls-1" d="M338.77,75c.26-.66,1.58-.26,2.63.79s1.84,2.37,1.45,3.16L340.48,83c4.08-3.94,8-7.23,10.52-8.15,8.15-2.76,6.84,6.18,4.21,14.2a6.14,6.14,0,0,1,1.31-.65,8.34,8.34,0,0,1,3.16-.92c2.1-.14,3.81.92,5,3.42.65,1.44.65,3.68-.4,6.7-.13.27,14.08-11.44,14.21-11.44.52-.53,1.71-2,2.76-.79s1.05,1.84.52,2.37c-.13.13-31.56,33.27-21.7,6.18.14-.53.27-.92.4-1.45l-.53.27c-3.55,1.84-8.15,5.65-9.07,7.23v.13c-.4.79-1.58.53-2.76-.52s-1.71-2.5-1.45-3.16c0-.13,8-17.23,7.63-17.1-7.1,2.5-26,25.65-26.17,25.78-.4.53-1.58.13-2.63-.79s-1.71-2.5-1.32-3.16Z"/><path class="cls-1" d="M383.61,79.35c.53-.39,1.84.13,2.9,1.32s1.31,2.5.79,3a7.49,7.49,0,0,0-1.06.79c-2.76,2.5-5,6.58-6.44,10.65-1.05,3.42-1.58,6.58-.92,7.89a3.91,3.91,0,0,0,2.5,0,10.26,10.26,0,0,0,3.94-2.49,23.51,23.51,0,0,0,5.13-7,27.37,27.37,0,0,0,2.11-5.4,18.68,18.68,0,0,1-5.13-6.7A14.17,14.17,0,0,1,386.11,75c.27-1.84,1.05-3.15,2.63-3.42a5.69,5.69,0,0,1,3.29.66,9.69,9.69,0,0,1,4.08,4.47,14.15,14.15,0,0,1,1.44,4.74,19.78,19.78,0,0,1,0,5.65,16.64,16.64,0,0,0,11.84-1.58c.66-.39,1.32-.92,2.37.27s.79,2.1.13,2.49c-6.18,3.42-10.79,3.95-14.86,2.5a23.61,23.61,0,0,1-2.5,6.58,25.57,25.57,0,0,1-5.39,7.36,13.05,13.05,0,0,1-4.47,2.77,6.46,6.46,0,0,1-5.13-.53,9.85,9.85,0,0,1-2.63-2.1l-.79-.79c-2.11-3-2-7.89-.53-12.5a27.86,27.86,0,0,1,6.84-11.31C382.82,80,383.22,79.62,383.61,79.35Zm9.6,5.66a21.68,21.68,0,0,0,0-5.92,11.89,11.89,0,0,0-.65-2.89h.13c-.13-.14-.53-.14-.92,0-.79,0-1.19.78-1.32,2a8,8,0,0,0,.79,4.08A6.78,6.78,0,0,0,393.21,85Z"/><path class="cls-1" d="M409.78,90.27c-.52.52-2.1,1.31-3.16.26s1.71-3.55,2.24-4.08l9.86-12a30.39,30.39,0,0,1,3-2.9c.53-.52,1.84,0,2.76,1.19s1.58,2.5,1.05,3l-3.15,3c-2.76,3.15-6.45,8.81-5,14.86a14.31,14.31,0,0,1-.66,9.07,10.75,10.75,0,0,1-2.5,2.9,9.22,9.22,0,0,1-3,1.44,7.47,7.47,0,0,1-5.13-.66c-7.5-3.81-3.42-11.17-3.42-11.31.39-.65,1.58-.39,2.76.66s1.71,2.5,1.45,3.16c0,.13-1.84,3.42-1.58,3.55a4.44,4.44,0,0,0,2.63,0,5.35,5.35,0,0,0,2.63-1.18,5.79,5.79,0,0,0,2-2.37,10.68,10.68,0,0,0,.66-7.24c0-1.71-1.18-1.84,2-7.62Z"/><path class="cls-1" d="M491.32,89c-.4.79-1.58.53-2.63-.52s-1.85-2.5-1.58-3.16c.13,0,2.23-4.6,1.71-4.6-2.5-.13-7.89,3.42-12,8a30.07,30.07,0,0,0-4,5.39,13.48,13.48,0,0,0-1.57,5.13,4,4,0,0,0,.92,2.89c5.52,4.87,32.48-15.38,32.61-15.38.53-.14,1.71-1.71,2.63-1.45,1.05,1.18,1.45,2.5.92,3-.13,0-28.54,24.33-37.35,16.44-2.89-2.63-4.07-5.52-3.94-8.41a12.65,12.65,0,0,1,1.71-6,32.23,32.23,0,0,1,4.07-5.66c4.34-4.86,10.26-8.68,13.29-8.55C497.37,76.46,491.32,89,491.32,89Z"/><path class="cls-1" d="M510.65,79.35c.52-.39,1.84.13,2.89,1.32s1.31,2.5.79,3a6.83,6.83,0,0,0-1.05.79c-2.77,2.5-5,6.58-6.45,10.65-1.05,3.42-1.58,6.58-.92,7.89a3.91,3.91,0,0,0,2.5,0,10.36,10.36,0,0,0,3.95-2.49,23.51,23.51,0,0,0,5.13-7,27.33,27.33,0,0,0,2.1-5.4,18.68,18.68,0,0,1-5.13-6.7A14,14,0,0,1,513.15,75c.26-1.84,1.05-3.15,2.63-3.42a5.67,5.67,0,0,1,3.28.66,9.69,9.69,0,0,1,4.08,4.47,14.39,14.39,0,0,1,1.45,4.74,20.54,20.54,0,0,1,0,5.65,16.62,16.62,0,0,0,11.83-1.58c.66-.39,1.32-.92,2.37.27s.79,2.1.13,2.49c-6.18,3.42-10.78,3.95-14.86,2.5a23,23,0,0,1-2.5,6.58,25.57,25.57,0,0,1-5.39,7.36,13,13,0,0,1-4.47,2.77,6.46,6.46,0,0,1-5.13-.53,9.85,9.85,0,0,1-2.63-2.1l-.79-.79c-2.1-3-2-7.89-.53-12.5a27.86,27.86,0,0,1,6.84-11.31C509.86,80,510.25,79.62,510.65,79.35Zm9.6,5.66a22.51,22.51,0,0,0,0-5.92,11.83,11.83,0,0,0-.66-2.89h.13c-.13-.14-.52-.14-.92,0-.79,0-1.18.78-1.31,2a8,8,0,0,0,.78,4.08A6.8,6.8,0,0,0,520.25,85Z"/><path class="cls-1" d="M540.37,78.43c.39-.66,1.71-.39,2.76.66s1.71,2.5,1.31,3.16l-3.28,5.91c7.1-5.91,14.86-11.7,17.75-10.91h.26c4,1.18,4.61,3.68,3.68,7a38.22,38.22,0,0,1-2.23,5.13c-1.71,3.42-3.68,7.23-3.68,7.23,4.21,2.76,18.41-9.73,18.54-9.73.4-.53,1.84-2.24,2.89-1s.4,1.31-.13,2c0,0-14.33,17-21.17,12.49-5.92-3.81-3-9.6-.53-14.73A34,34,0,0,0,558,82.38c-7.5,3.94-25,20.64-25.52,21.17s-1.57.13-2.63-.79c-1.05-1.18-1.71-2.5-1.31-3.15Z"/><path class="cls-1" d="M40.29,176.08q-6.13,5.71-18.38,5.71H7.27v30.94H0V140.15H21.91q12.15,0,18.33,5.71T46.42,161Q46.42,170.37,40.29,176.08ZM38.94,161q0-7.26-4-11t-13-3.73H7.27v29.28H21.91Q38.94,175.56,38.94,161Z"/><path class="cls-1" d="M100.62,195.5h-33l-6.34,17.23H53.58l26.48-71.65h8.2l26.38,71.65H107Zm-2.18-6L84.11,150.22,69.78,189.47Z"/><path class="cls-1" d="M164.9,212.73l-18-30.32H133.54v30.32h-7.27V140.15h21.81q12.15,0,18.43,5.81t6.28,15.27a20.67,20.67,0,0,1-4.52,13.45q-4.52,5.55-13.34,7.21l18.69,30.84Zm-31.36-36.24h14.64q8.52,0,12.82-4.15t4.31-11.11q0-7.17-4.15-11.06t-13.08-3.89H133.54Z"/><path class="cls-1" d="M247.14,227l-16.2-15.06a39.14,39.14,0,0,1-11.11,1.56,36,36,0,0,1-18.28-4.72,34.09,34.09,0,0,1-12.93-13.19,41.25,41.25,0,0,1,0-38.32A34.09,34.09,0,0,1,201.55,144a38,38,0,0,1,36.66,0,33.66,33.66,0,0,1,12.87,13.19,41.62,41.62,0,0,1-.2,38.73,33.34,33.34,0,0,1-13.4,13.14L256.9,227Zm-52-34.32a26.62,26.62,0,0,0,10.18,10.75,30.13,30.13,0,0,0,29.08,0,26.54,26.54,0,0,0,10.17-10.75,37.06,37.06,0,0,0,0-32.45,26.65,26.65,0,0,0-10.17-10.7,30.2,30.2,0,0,0-29.08,0,26.74,26.74,0,0,0-10.18,10.7,37.15,37.15,0,0,0,0,32.45Z"/><path class="cls-1" d="M276.11,140.15v45.69q0,10.8,5.14,16T295.32,207q8.93,0,14-5.14t5-16V140.15h7.27v45.58q0,13.82-7.32,20.77t-19.06,7q-11.73,0-19-7t-7.32-20.77V140.15Z"/><path class="cls-1" d="M345.06,146.07v27.1h27.52v6H345.06v27.52h30.63v6h-37.9V140h37.9v6Z"/><path class="cls-1" d="M432.08,195.5h-33l-6.33,17.23H385l26.48-71.65h8.2l26.37,71.65h-7.68Zm-2.19-6-14.32-39.25-14.33,39.25Z"/><path class="cls-1" d="M499.88,144.51a30.48,30.48,0,0,1,13.19,12.57q4.57,8.19,4.57,19.52T513.07,196a30.18,30.18,0,0,1-13.19,12.46q-8.61,4.32-20.66,4.31h-21.5V140.15h21.5Q491.27,140.15,499.88,144.51Zm2.44,54.26q7.95-8,7.95-22.17t-7.95-22.38q-7.94-8-23.1-8.05H465v60.54h14.23Q494.39,206.71,502.32,198.77Z"/><path class="cls-1" d="M538.3,146.07v27.1h27.52v6H538.3v27.52h30.64v6H531V140h37.9v6Z"/><path class="cls-1" d="M621.89,212.73l-18-30.32h-13.4v30.32h-7.26V140.15h21.8q12.15,0,18.43,5.81t6.29,15.27a20.67,20.67,0,0,1-4.52,13.45q-4.51,5.55-13.34,7.21l18.69,30.84Zm-31.36-36.24h14.65q8.51,0,12.82-4.15t4.31-11.11q0-7.17-4.15-11.06t-13.09-3.89H590.53Z"/><path class="cls-1" d="M658.55,208.74a34.09,34.09,0,0,1-12.93-13.19,41.25,41.25,0,0,1,0-38.32A34.09,34.09,0,0,1,658.55,144a38,38,0,0,1,36.66,0,33.73,33.73,0,0,1,12.87,13.19,41.64,41.64,0,0,1,0,38.32,33.73,33.73,0,0,1-12.87,13.19,38,38,0,0,1-36.66,0Zm32.81-5.35a26.56,26.56,0,0,0,10.18-10.75,37.06,37.06,0,0,0,0-32.45,26.68,26.68,0,0,0-10.18-10.7,30.18,30.18,0,0,0-29.07,0,26.61,26.61,0,0,0-10.18,10.7,37.06,37.06,0,0,0,0,32.45,26.49,26.49,0,0,0,10.18,10.75,30.11,30.11,0,0,0,29.07,0Z"/><path class="cls-1" d="M128.46,260.16a14.88,14.88,0,0,0-6.35-6.24,20.87,20.87,0,0,0-9.73-2.15q-9.69,0-15.51,6.35t-5.83,17q0,11.31,6.12,17.67T114,299.1a20.35,20.35,0,0,0,12.41-3.73,21.1,21.1,0,0,0,7.41-10.72h-25.3V270H151.9v18.54a39.12,39.12,0,0,1-7.52,13.88,39.9,39.9,0,0,1-13.47,10.38,41.65,41.65,0,0,1-18.42,4,43.61,43.61,0,0,1-21.63-5.31,37.73,37.73,0,0,1-14.8-14.74,46.59,46.59,0,0,1,0-43.2A37.76,37.76,0,0,1,90.8,238.65a43.28,43.28,0,0,1,21.58-5.31q14.69,0,24.77,7.12a33.6,33.6,0,0,1,13.35,19.7Z"/><path class="cls-1" d="M204.72,316.13l-17-30.9h-4.78v30.9H163V234.28h33.46a36.92,36.92,0,0,1,16.5,3.38,23.31,23.31,0,0,1,10.2,9.27A25.89,25.89,0,0,1,226.52,260a24.38,24.38,0,0,1-4.61,14.58q-4.6,6.4-13.58,9.09l18.89,32.42Zm-21.81-45h12.36c3.65,0,6.4-.89,8.22-2.68s2.74-4.32,2.74-7.58a9.77,9.77,0,0,0-2.74-7.34c-1.82-1.79-4.57-2.69-8.22-2.69H182.91Z"/><path class="cls-1" d="M289.94,301.67H259.4l-4.9,14.46H233.63l29.62-81.85h23.08L316,316.13H294.84Zm-5.13-15.39-10.14-30-10,30Z"/><path class="cls-1" d="M383.8,234.28v16H362.12v65.88H342.18V250.25H320.49v-16Z"/><path class="cls-1" d="M413.42,234.28v49q0,7.33,3.61,11.31t10.61,4q7,0,10.73-4t3.73-11.31v-49H462v48.85q0,11-4.66,18.54a29.87,29.87,0,0,1-12.53,11.42,39.38,39.38,0,0,1-17.55,3.85A38.37,38.37,0,0,1,410,313.15a28.14,28.14,0,0,1-12.07-11.42q-4.44-7.64-4.43-18.6V234.28Z"/><path class="cls-1" d="M496,234.28v81.85H476V234.28Z"/><path class="cls-1" d="M569.3,234.28v16H547.61v65.88H527.67V250.25H506v-16Z"/><path class="cls-1" d="M596.87,311.58a40.15,40.15,0,0,1-15.27-15,44,44,0,0,1,0-43.2,40.3,40.3,0,0,1,15.27-14.93,44.47,44.47,0,0,1,42.33,0,39.44,39.44,0,0,1,15.15,14.93,44.67,44.67,0,0,1-.06,43.2,39.84,39.84,0,0,1-15.15,15,44.35,44.35,0,0,1-42.27,0Zm36.84-19.36q5.89-6.53,5.89-17.25t-5.89-17.32q-5.88-6.46-15.68-6.47t-15.79,6.42q-5.9,6.4-5.89,17.37t5.89,17.31q5.88,6.48,15.79,6.47T633.71,292.22Z"/><rect class="cls-2" x="44.99" y="355.98" width="644.14" height="47.57" rx="23.79"/><path class="cls-1" d="M101.4,376.91A8.23,8.23,0,0,1,98,380.15a12,12,0,0,1-5.73,1.24H88v10H81.21V363.47h11a12.53,12.53,0,0,1,5.65,1.15,7.92,7.92,0,0,1,3.47,3.19,9.25,9.25,0,0,1,1.15,4.66A9,9,0,0,1,101.4,376.91Zm-6.77-1.85a4,4,0,0,0,0-5.18,4.08,4.08,0,0,0-2.91-.92H88v7h3.7A4.08,4.08,0,0,0,94.63,375.06Z"/><path class="cls-1" d="M106,374.26a9.64,9.64,0,0,1,3.52-4,9.22,9.22,0,0,1,5-1.4,8.53,8.53,0,0,1,4.12,1,7.07,7.07,0,0,1,2.73,2.51V369.2h6.81v22.22h-6.81v-3.14a7.49,7.49,0,0,1-2.77,2.51,8.64,8.64,0,0,1-4.12.95,9.06,9.06,0,0,1-4.94-1.41,9.75,9.75,0,0,1-3.52-4,14.61,14.61,0,0,1,0-12.05Zm13.93,2a4.79,4.79,0,0,0-6.89,0,5.5,5.5,0,0,0-1.41,4,5.63,5.63,0,0,0,1.41,4,4.73,4.73,0,0,0,6.89,0,6.4,6.4,0,0,0,0-8Z"/><path class="cls-1" d="M142.89,370a7.72,7.72,0,0,1,4-1.06v7.21H145a5.73,5.73,0,0,0-3.82,1.1c-.85.73-1.28,2-1.28,3.84v10.31h-6.81V369.2h6.81v3.71A9,9,0,0,1,142.89,370Z"/><path class="cls-1" d="M150.08,374.26a9.64,9.64,0,0,1,3.52-4,9.22,9.22,0,0,1,5-1.4,8.53,8.53,0,0,1,4.12,1,7.07,7.07,0,0,1,2.73,2.51V369.2h6.81v22.22h-6.81v-3.14a7.49,7.49,0,0,1-2.77,2.51,8.64,8.64,0,0,1-4.12.95,9.06,9.06,0,0,1-4.94-1.41,9.75,9.75,0,0,1-3.52-4,14.61,14.61,0,0,1,0-12.05Zm13.93,2a4.79,4.79,0,0,0-6.89,0,5.5,5.5,0,0,0-1.41,4,5.63,5.63,0,0,0,1.41,4,4.73,4.73,0,0,0,6.89,0,6.4,6.4,0,0,0,0-8Z"/><path class="cls-1" d="M198,385.65v5.77h-3.47a8.47,8.47,0,0,1-5.77-1.81q-2.07-1.82-2.07-5.91v-8.84H184V369.2h2.71v-5.41h6.81v5.41H198v5.66H193.5v8.92a1.85,1.85,0,0,0,.48,1.43,2.32,2.32,0,0,0,1.59.44Z"/><path class="cls-1" d="M206,390.35a10.26,10.26,0,0,1-4.1-4,12.93,12.93,0,0,1,0-12.09,10.28,10.28,0,0,1,4.14-4,13.11,13.11,0,0,1,11.79,0,10.28,10.28,0,0,1,4.14,4,12.74,12.74,0,0,1,0,12.07,10.44,10.44,0,0,1-4.18,4,12.51,12.51,0,0,1-5.91,1.39A12.27,12.27,0,0,1,206,390.35Zm9.2-5.94a5.66,5.66,0,0,0,1.37-4.1,5.8,5.8,0,0,0-1.33-4.1,4.53,4.53,0,0,0-6.59,0,5.83,5.83,0,0,0-1.31,4.12,5.91,5.91,0,0,0,1.29,4.1,4.17,4.17,0,0,0,3.25,1.44A4.42,4.42,0,0,0,215.22,384.41Z"/><path class="cls-1" d="M227.09,374.26a9.64,9.64,0,0,1,3.52-4,9.22,9.22,0,0,1,5-1.4,8.75,8.75,0,0,1,4,.92,7.25,7.25,0,0,1,2.85,2.47V362h6.81v29.46h-6.81v-3.18a7,7,0,0,1-2.73,2.55,8.64,8.64,0,0,1-4.12.95,9.14,9.14,0,0,1-5-1.41,9.75,9.75,0,0,1-3.52-4,14.61,14.61,0,0,1,0-12.05Zm13.93,2a4.59,4.59,0,0,0-3.44-1.47,4.65,4.65,0,0,0-3.45,1.45,5.5,5.5,0,0,0-1.41,4,5.63,5.63,0,0,0,1.41,4,4.73,4.73,0,0,0,6.89,0,6.4,6.4,0,0,0,0-8Z"/><path class="cls-1" d="M258.43,390.35a10.28,10.28,0,0,1-4.11-4,12,12,0,0,1-1.49-6.06,11.79,11.79,0,0,1,1.51-6,10.24,10.24,0,0,1,4.15-4,13.09,13.09,0,0,1,11.78,0,10.28,10.28,0,0,1,4.14,4,11.79,11.79,0,0,1,1.52,6,11.62,11.62,0,0,1-1.54,6,10.38,10.38,0,0,1-4.18,4,12.45,12.45,0,0,1-5.91,1.39A12.21,12.21,0,0,1,258.43,390.35Zm9.19-5.94a5.66,5.66,0,0,0,1.38-4.1,5.8,5.8,0,0,0-1.34-4.1,4.53,4.53,0,0,0-6.59,0,7.15,7.15,0,0,0,0,8.22,4.2,4.2,0,0,0,3.25,1.44A4.41,4.41,0,0,0,267.62,384.41Z"/><path class="cls-1" d="M283.41,390.75a9,9,0,0,1-3.58-2.73,7.11,7.11,0,0,1-1.47-3.88h6.72a2.62,2.62,0,0,0,1.08,1.87,3.79,3.79,0,0,0,2.35.71,3.35,3.35,0,0,0,2-.49,1.54,1.54,0,0,0,.7-1.3,1.48,1.48,0,0,0-1-1.41,19.38,19.38,0,0,0-3.22-1,30.52,30.52,0,0,1-4-1.17,6.85,6.85,0,0,1-2.74-1.95,5.33,5.33,0,0,1-1.16-3.61,6.07,6.07,0,0,1,1.06-3.48,7.1,7.1,0,0,1,3.1-2.49,11.94,11.94,0,0,1,4.88-.92A9.83,9.83,0,0,1,294.7,371a8.09,8.09,0,0,1,2.77,5.5h-6.29a2.73,2.73,0,0,0-1-1.83,3.53,3.53,0,0,0-2.25-.68,3.07,3.07,0,0,0-1.83.46,1.46,1.46,0,0,0-.64,1.25,1.54,1.54,0,0,0,1,1.44,16.4,16.4,0,0,0,3.16,1,36.11,36.11,0,0,1,4,1.26,6.87,6.87,0,0,1,2.72,2,5.6,5.6,0,0,1,1.22,3.68,5.89,5.89,0,0,1-1.1,3.49,7.33,7.33,0,0,1-3.14,2.41,12.14,12.14,0,0,1-4.76.87A12.87,12.87,0,0,1,283.41,390.75Z"/><path class="cls-1" d="M330,371.49a9.84,9.84,0,0,1,2.33,6.95v13h-6.77V379.36a4.89,4.89,0,0,0-1.15-3.47,4.55,4.55,0,0,0-6.22,0,4.94,4.94,0,0,0-1.15,3.47v12.06h-6.81V369.2H317v2.95a7.19,7.19,0,0,1,2.79-2.33,8.87,8.87,0,0,1,3.94-.86A8.08,8.08,0,0,1,330,371.49Z"/><path class="cls-1" d="M359,369.2v22.22h-6.81v-3a7.46,7.46,0,0,1-2.81,2.37,8.62,8.62,0,0,1-3.92.89,8.84,8.84,0,0,1-4.5-1.13,7.65,7.65,0,0,1-3-3.29,11.13,11.13,0,0,1-1.08-5.06v-13h6.77v12.07a4.81,4.81,0,0,0,1.16,3.46,4,4,0,0,0,3.1,1.24,4.08,4.08,0,0,0,3.15-1.24,4.85,4.85,0,0,0,1.15-3.46V369.2Z"/><path class="cls-1" d="M384.71,382H369.3a4.65,4.65,0,0,0,1.34,3.16,4.07,4.07,0,0,0,2.89,1.1,3.58,3.58,0,0,0,3.54-2.15h7.25a10,10,0,0,1-5.66,6.69,11.75,11.75,0,0,1-4.9,1,11.91,11.91,0,0,1-5.81-1.39,9.9,9.9,0,0,1-4-4,12.29,12.29,0,0,1-1.43-6.06,12.46,12.46,0,0,1,1.41-6.05,9.79,9.79,0,0,1,4-4,12.86,12.86,0,0,1,11.59,0,9.71,9.71,0,0,1,3.92,3.86,11.73,11.73,0,0,1,1.41,5.85A17.42,17.42,0,0,1,384.71,382Zm-6.84-3.79a3.52,3.52,0,0,0-1.2-2.79,4.43,4.43,0,0,0-3-1,4.31,4.31,0,0,0-2.88,1,4.44,4.44,0,0,0-1.46,2.83Z"/><path class="cls-1" d="M392.28,390.75A8.91,8.91,0,0,1,388.7,388a7.2,7.2,0,0,1-1.48-3.88H394A2.59,2.59,0,0,0,395,386a3.79,3.79,0,0,0,2.35.71,3.38,3.38,0,0,0,2-.49,1.56,1.56,0,0,0,.7-1.3,1.49,1.49,0,0,0-1-1.41,19.38,19.38,0,0,0-3.22-1,30.06,30.06,0,0,1-4-1.17,6.88,6.88,0,0,1-2.75-1.95,5.37,5.37,0,0,1-1.15-3.61,6.07,6.07,0,0,1,1.06-3.48,7,7,0,0,1,3.1-2.49,11.9,11.9,0,0,1,4.88-.92,9.83,9.83,0,0,1,6.59,2.07,8.09,8.09,0,0,1,2.77,5.5h-6.29a2.73,2.73,0,0,0-1-1.83,3.53,3.53,0,0,0-2.25-.68,3.05,3.05,0,0,0-1.83.46,1.44,1.44,0,0,0-.64,1.25,1.54,1.54,0,0,0,1,1.44,16.18,16.18,0,0,0,3.16,1,35.19,35.19,0,0,1,4,1.26,6.83,6.83,0,0,1,2.73,2,5.6,5.6,0,0,1,1.22,3.68,5.89,5.89,0,0,1-1.1,3.49,7.33,7.33,0,0,1-3.14,2.41,12.14,12.14,0,0,1-4.76.87A12.83,12.83,0,0,1,392.28,390.75Z"/><path class="cls-1" d="M423,385.65v5.77h-3.46a8.5,8.5,0,0,1-5.78-1.81q-2.07-1.82-2.07-5.91v-8.84H409V369.2h2.7v-5.41h6.81v5.41H423v5.66h-4.46v8.92a1.85,1.85,0,0,0,.48,1.43,2.34,2.34,0,0,0,1.59.44Z"/><path class="cls-1" d="M436.6,370a7.72,7.72,0,0,1,4-1.06v7.21h-1.87a5.73,5.73,0,0,0-3.82,1.1c-.85.73-1.28,2-1.28,3.84v10.31H426.8V369.2h6.81v3.71A9.06,9.06,0,0,1,436.6,370Z"/><path class="cls-1" d="M448.09,390.35a10.2,10.2,0,0,1-4.1-4,12.85,12.85,0,0,1,0-12.09,10.28,10.28,0,0,1,4.14-4,13.11,13.11,0,0,1,11.79,0,10.28,10.28,0,0,1,4.14,4,11.89,11.89,0,0,1,1.51,6,11.71,11.71,0,0,1-1.53,6,10.51,10.51,0,0,1-4.18,4,12.52,12.52,0,0,1-5.92,1.39A12.26,12.26,0,0,1,448.09,390.35Zm9.2-5.94a5.7,5.7,0,0,0,1.37-4.1,5.8,5.8,0,0,0-1.33-4.1,4.53,4.53,0,0,0-6.59,0,7.1,7.1,0,0,0,0,8.22,4.17,4.17,0,0,0,3.24,1.44A4.44,4.44,0,0,0,457.29,384.41Z"/><path class="cls-1" d="M473.08,390.75a8.94,8.94,0,0,1-3.59-2.73,7.19,7.19,0,0,1-1.47-3.88h6.73a2.61,2.61,0,0,0,1.07,1.87,3.79,3.79,0,0,0,2.35.71,3.35,3.35,0,0,0,2-.49,1.54,1.54,0,0,0,.7-1.3,1.48,1.48,0,0,0-1-1.41,19.56,19.56,0,0,0-3.23-1,30.33,30.33,0,0,1-4-1.17,6.88,6.88,0,0,1-2.75-1.95,5.32,5.32,0,0,1-1.15-3.61,6.14,6.14,0,0,1,1.05-3.48,7.07,7.07,0,0,1,3.11-2.49,11.87,11.87,0,0,1,4.88-.92,9.85,9.85,0,0,1,6.59,2.07,8.12,8.12,0,0,1,2.76,5.5h-6.29a2.68,2.68,0,0,0-1-1.83,3.57,3.57,0,0,0-2.25-.68,3.11,3.11,0,0,0-1.84.46,1.45,1.45,0,0,0-.63,1.25,1.54,1.54,0,0,0,1,1.44,16.55,16.55,0,0,0,3.17,1,35.85,35.85,0,0,1,4,1.26,6.9,6.9,0,0,1,2.73,2,5.59,5.59,0,0,1,1.21,3.68,5.88,5.88,0,0,1-1.09,3.49,7.3,7.3,0,0,1-3.15,2.41,12.11,12.11,0,0,1-4.76.87A12.82,12.82,0,0,1,473.08,390.75Z"/><path class="cls-1" d="M499.93,374.26a9.89,9.89,0,0,1,3.95-4,11.76,11.76,0,0,1,5.79-1.4,11.07,11.07,0,0,1,7,2.19,10.35,10.35,0,0,1,3.68,6.18H513.1a3.5,3.5,0,0,0-3.55-2.55,3.55,3.55,0,0,0-3,1.45,8.29,8.29,0,0,0,0,8.32,3.56,3.56,0,0,0,3,1.46,3.5,3.5,0,0,0,3.55-2.55h7.24a10.41,10.41,0,0,1-3.7,6.13,10.9,10.9,0,0,1-7,2.23,11.75,11.75,0,0,1-5.79-1.39,9.89,9.89,0,0,1-3.95-4,13.71,13.71,0,0,1,0-12.11Z"/><path class="cls-1" d="M530.78,362v29.46H524V362Z"/><path class="cls-1" d="M536.21,365.84a3.41,3.41,0,0,1-1.13-2.61,3.46,3.46,0,0,1,1.13-2.65,4.14,4.14,0,0,1,2.93-1.05,4.05,4.05,0,0,1,2.88,1.05,3.47,3.47,0,0,1,1.14,2.65,3.42,3.42,0,0,1-1.14,2.61,4.05,4.05,0,0,1-2.88,1.05A4.14,4.14,0,0,1,536.21,365.84Zm6.31,3.36v22.22h-6.81V369.2Z"/><path class="cls-1" d="M568.29,382H552.88a4.6,4.6,0,0,0,1.33,3.16,4.08,4.08,0,0,0,2.89,1.1,3.58,3.58,0,0,0,3.54-2.15h7.25a9.91,9.91,0,0,1-2,3.94,10.16,10.16,0,0,1-3.65,2.75,11.74,11.74,0,0,1-4.89,1,11.93,11.93,0,0,1-5.82-1.39,10,10,0,0,1-4-4,12.29,12.29,0,0,1-1.43-6.06,12.46,12.46,0,0,1,1.41-6.05,9.79,9.79,0,0,1,4-4,12.86,12.86,0,0,1,11.59,0A9.71,9.71,0,0,1,567,374.1a11.73,11.73,0,0,1,1.42,5.85A17.42,17.42,0,0,1,568.29,382Zm-6.85-3.79a3.52,3.52,0,0,0-1.2-2.79,4.42,4.42,0,0,0-3-1,4.31,4.31,0,0,0-2.89,1,4.43,4.43,0,0,0-1.45,2.83Z"/><path class="cls-1" d="M591.76,371.49a9.88,9.88,0,0,1,2.33,6.95v13h-6.77V379.36a4.89,4.89,0,0,0-1.15-3.47,4.55,4.55,0,0,0-6.22,0,4.89,4.89,0,0,0-1.15,3.47v12.06H572V369.2h6.81v2.95a7.19,7.19,0,0,1,2.79-2.33,8.84,8.84,0,0,1,3.94-.86A8.08,8.08,0,0,1,591.76,371.49Z"/><path class="cls-1" d="M611.21,385.65v5.77h-3.46a8.48,8.48,0,0,1-5.78-1.81q-2.07-1.82-2.07-5.91v-8.84h-2.7V369.2h2.7v-5.41h6.81v5.41h4.46v5.66h-4.46v8.92a1.85,1.85,0,0,0,.48,1.43,2.34,2.34,0,0,0,1.59.44Z"/><path class="cls-1" d="M635.82,382H620.41a4.61,4.61,0,0,0,1.34,3.16,4.06,4.06,0,0,0,2.88,1.1,3.6,3.6,0,0,0,3.55-2.15h7.24a9.91,9.91,0,0,1-2,3.94,10.12,10.12,0,0,1-3.64,2.75,11.75,11.75,0,0,1-4.9,1,11.89,11.89,0,0,1-5.81-1.39,9.9,9.9,0,0,1-4-4,12.29,12.29,0,0,1-1.44-6.06,12.46,12.46,0,0,1,1.41-6.05,9.88,9.88,0,0,1,4-4,12.84,12.84,0,0,1,11.58,0,9.73,9.73,0,0,1,3.93,3.86,11.73,11.73,0,0,1,1.41,5.85A17.42,17.42,0,0,1,635.82,382ZM629,378.16a3.55,3.55,0,0,0-1.19-2.79,4.45,4.45,0,0,0-3-1,4.35,4.35,0,0,0-2.89,1,4.48,4.48,0,0,0-1.45,2.83Z"/><path class="cls-1" d="M643.39,390.75A8.94,8.94,0,0,1,639.8,388a7.27,7.27,0,0,1-1.47-3.88h6.73a2.61,2.61,0,0,0,1.07,1.87,3.79,3.79,0,0,0,2.35.71,3.41,3.41,0,0,0,2-.49,1.55,1.55,0,0,0,.69-1.3,1.48,1.48,0,0,0-1-1.41,19.56,19.56,0,0,0-3.23-1,30.33,30.33,0,0,1-4-1.17,6.88,6.88,0,0,1-2.75-1.95,5.32,5.32,0,0,1-1.15-3.61,6.14,6.14,0,0,1,1.05-3.48,7.07,7.07,0,0,1,3.11-2.49,11.9,11.9,0,0,1,4.88-.92,9.85,9.85,0,0,1,6.59,2.07,8.08,8.08,0,0,1,2.76,5.5h-6.29a2.68,2.68,0,0,0-1-1.83,3.53,3.53,0,0,0-2.25-.68,3.11,3.11,0,0,0-1.84.46,1.45,1.45,0,0,0-.63,1.25,1.54,1.54,0,0,0,1,1.44,16.55,16.55,0,0,0,3.17,1,35.19,35.19,0,0,1,4,1.26,6.83,6.83,0,0,1,2.73,2,5.59,5.59,0,0,1,1.21,3.68,5.88,5.88,0,0,1-1.09,3.49,7.3,7.3,0,0,1-3.15,2.41,12.07,12.07,0,0,1-4.76.87A12.82,12.82,0,0,1,643.39,390.75Z"/></g></g></svg>