<?xml version="1.0" encoding="utf-8"?>
<!-- Generator: Adobe Illustrator 25.4.1, SVG Export Plug-In . SVG Version: 6.00 Build 0)  -->
<svg version="1.1" id="Capa_1" xmlns="http://www.w3.org/2000/svg" xmlns:xlink="http://www.w3.org/1999/xlink" x="0px" y="0px"
	 viewBox="0 0 594.2 129.9" style="enable-background:new 0 0 594.2 129.9;" xml:space="preserve">
<style type="text/css">
	.st0{fill:#FFFFFF;}
	.st1{fill:#8C004B;}
</style>
<path class="st0" d="M144.8,25.5c-0.5,0.5-1.7,0-2.7-1.1s-1.4-2.3-0.9-2.8c0.6-0.5,0.9-1.3,1-2.1c0.3-1.7-0.1-3.5-1.1-4.9
	c-1.4-2.1-3.3-3.9-5.6-5.1c-20.1-11.3-59.8-1.5-79.4,7.7C46.7,21.6,23.7,34.7,30,48.1c2.9,6.3,13.2,9.9,23.2,13.3
	c5.7,2.1,11.5,4,16.2,6.7c34.5,19.4-8.5,61.1-42.5,61.7c-12.3,0.6-26.7-5.2-27-17.6c-0.1-5.6,4.3-12.9,15.1-21.6
	c0.5-0.5,1.7,0.1,2.7,1.2s1.4,2.3,0.7,2.7C8.1,103,3.9,109.8,4,114.8c0.1,7.8,13.7,8.7,19,8.4c29.6-0.7,72.3-37.2,46.8-51.6
	c-4.3-2.3-9.8-4.3-15.4-6.2c-11.6-4-23.4-8.1-28-17.9c-7.5-16,13.9-29.9,25.6-35.4c21-9.8,61.5-18.3,83-6.1c3.8,2,6.9,5,9.1,8.7
	c1.5,2.3,2.3,5,2.1,7.8C146.2,23.6,145.6,24.7,144.8,25.5z"/>
<path class="st0" d="M108.3,75c-4,1.9-8.2,3.2-12.6,3.7c-8.3,17.8,24.6,2.7,28.4-4.2c0.4-0.9,1.4-1.3,2.3-0.9
	c0.1,0.1,0.3,0.2,0.4,0.3c1,1,1,1.5,0.6,2.2C124.1,82,105,95.2,96.6,90.4c-4.3-2.4-6.6-7.2-5.7-12c0.8-3.4,2.5-6.5,4.9-9
	c2.4-2.7,5.1-5.1,7.9-7.2c3.5-2.4,6.8-3.9,8.2-3.7c1.1,0.3,2.2,0.9,2.9,1.8c1.1,1.2,1.7,2.8,1.5,4.4c-0.2,1.2-0.6,2.4-1.2,3.4
	C113.5,71.1,111.2,73.5,108.3,75z M99.7,73c1.9-0.6,3.7-1.3,5.5-2.1c2.6-1.5,4.7-3.6,6.1-6.2c0.2-0.5,0.4-0.8,0.6-1.3
	c-1.7,0.8-3.3,1.8-4.8,2.9C104.4,68.3,101.9,70.5,99.7,73z"/>
<path class="st0" d="M141.1,76.7c-0.4,0.7-1.5,0.5-2.4-0.5s-1.7-2.3-1.5-2.9c0.1,0,2.1-4.3,1.6-4.3c-2.3-0.1-7.3,3.2-11.1,7.4
	c-1.4,1.5-2.6,3.2-3.7,5c-0.8,1.5-1.3,3.1-1.5,4.8c-0.1,1,0.2,1.9,0.8,2.7c5.1,4.5,30.1-14.3,30.3-14.3c0.5-0.1,1.6-1.6,2.4-1.3
	c1,1.1,1.3,2.3,0.9,2.8c-0.1,0-26.5,22.6-34.6,15.2c-2.7-2.4-3.8-5.1-3.7-7.8c0.1-2,0.6-3.9,1.6-5.6c1.1-1.9,2.3-3.6,3.8-5.2
	c4-4.5,9.5-8,12.3-7.9C146.8,65.1,141.1,76.7,141.1,76.7z"/>
<path class="st0" d="M171.5,76.7c-0.4,0.7-1.5,0.5-2.4-0.5s-1.7-2.3-1.5-2.9c0.1,0,2.1-4.3,1.6-4.3c-2.3-0.1-7.3,3.2-11.1,7.4
	c-1.4,1.5-2.6,3.2-3.7,5c-0.8,1.5-1.3,3.1-1.4,4.7c-0.1,1,0.2,1.9,0.9,2.7c5.1,4.5,30.1-14.3,30.2-14.3c0.5-0.1,1.6-1.6,2.4-1.3
	c1,1.1,1.3,2.3,0.9,2.8c-0.1,0-26.5,22.6-34.6,15.2c-2.7-2.4-3.8-5.1-3.7-7.8c0.1-2,0.6-3.9,1.6-5.6c1.1-1.9,2.3-3.6,3.8-5.2
	c4-4.5,9.5-8,12.3-7.9C177.1,65.1,171.5,76.7,171.5,76.7z"/>
<path class="st0" d="M193.1,64.2c0.6-0.5,1.8,0,2.8,1.1s1.3,2.3,0.7,2.8c-3.9,3.7-7.2,8-9.8,12.7c-1.7,3.4-1.6,5.4-0.4,6
	c5,0.7,18.5-12.4,18.5-12.6c0.5-0.5,1.3-1.5,2.3-0.4s0.6,1.5,0.1,2c-0.1,0-20.4,22-25.6,12.8c-1.7-3-0.9-7.2,1.2-11.3
	C185.7,72.4,189.1,68,193.1,64.2z M200.7,60.7c-0.5,0.6-1.7,0.1-2.7-0.9s-1.5-2.3-1-2.9l6.8-7.8c0.5-0.6,1.6-0.1,2.7,0.8
	s1.4,2.3,1,2.9L200.7,60.7z"/>
<path class="st0" d="M209.6,67.8c0.5-0.4,1.7,0.1,2.7,1.2s1.2,2.3,0.7,2.8c-0.4,0.2-0.7,0.5-1,0.7c-2.6,2.3-4.6,6.1-6,9.9
	c-1,3.2-1.5,6.1-0.9,7.3c0.8,0.3,1.6,0.3,2.3,0c1.4-0.5,2.6-1.3,3.7-2.3c2-1.8,3.6-4,4.8-6.5c0.8-1.6,1.5-3.3,1.9-5
	c-2-1.7-3.7-3.8-4.8-6.2c-0.9-1.9-1.3-3.9-1.2-6c0.2-1.7,1-2.9,2.4-3.2c1.1-0.1,2.1,0.1,3.1,0.6c1.7,0.9,3,2.4,3.8,4.1
	c0.7,1.4,1.2,2.9,1.4,4.4c0.2,1.7,0.2,3.5,0,5.2c3.7,0.9,7.6,0.4,11-1.5c0.6-0.4,1.2-0.9,2.2,0.2s0.7,2,0.1,2.3
	c-5.7,3.2-10,3.7-13.8,2.3c-0.5,2.1-1.2,4.2-2.3,6.1c-1.2,2.6-2.9,4.9-5,6.8c-1.2,1.1-2.6,2-4.1,2.6c-1.6,0.5-3.3,0.3-4.8-0.5
	c-0.9-0.5-1.7-1.2-2.4-2l-0.7-0.7c-1.9-2.8-1.8-7.3-0.5-11.6c1.2-4,3.4-7.6,6.4-10.5C208.9,68.4,209.2,68,209.6,67.8z M215.7,55.7
	c0.3-0.3,0.5-0.6,0.7-1c0.9-1.2,1.5-2.6,1.9-4c0.2-0.7,0.7-1.3,1.3-1.6c0.7-0.4,2.4,0.8,2.4,1.5c-0.2,1.7-4.8,8.5-8.2,7.6
	c-0.1,0-0.2-0.1-0.4-0.2s0-1,0.6-1.6C214.7,55.9,215.3,55.5,215.7,55.7z M218.5,73c0.2-1.8,0.2-3.7,0-5.5c-0.1-0.9-0.3-1.8-0.6-2.7
	h0.1c-0.1-0.1-0.5-0.1-0.9,0c-0.7,0-1.1,0.7-1.2,1.8c-0.1,1.3,0.2,2.6,0.7,3.8C217,71.4,217.7,72.3,218.5,73z"/>
<path class="st0" d="M237.2,66.9c0.4-0.6,1.6-0.4,2.6,0.6s1.6,2.3,1.2,2.9l-3,5.5c6.6-5.5,13.8-10.9,16.5-10.1h0.2
	c3.7,1.1,4.3,3.4,3.4,6.5c-0.6,1.6-1.3,3.2-2.1,4.7c-1.6,3.2-3.4,6.7-3.4,6.7c3.9,2.6,17.1-9,17.2-9c0.4-0.5,1.7-2.1,2.7-1
	s0.4,1.2-0.1,1.8c0,0-13.3,15.7-19.6,11.6c-5.5-3.5-2.8-8.9-0.5-13.7c0.5-1,0.9-1.9,1.3-2.9c-6.9,3.7-23.2,19.2-23.7,19.6
	s-1.5,0.1-2.4-0.7c-1-1.1-1.6-2.3-1.2-2.9L237.2,66.9z"/>
<g>
	<path class="st1" d="M297.6,85.2h17.2v10.2h-30.4V41.3h13.2V85.2z"/>
	<path class="st1" d="M334.4,41.3v54.1h-13.1V41.3H334.4z"/>
	<path class="st1" d="M345.1,53.9c2.2-4.1,5.6-7.5,9.7-9.8c4.3-2.4,9.1-3.6,14-3.5c5.9-0.2,11.7,1.6,16.5,5.1
		c4.6,3.4,7.8,8.3,9.2,13.9H380c-1-2.1-2.6-3.9-4.6-5.2c-2-1.2-4.4-1.8-6.7-1.8c-3.8-0.1-7.4,1.4-9.9,4.3c-2.5,2.8-3.8,6.6-3.8,11.3
		s1.3,8.5,3.8,11.3c2.5,2.8,6.1,4.4,9.9,4.2c2.4,0,4.7-0.6,6.7-1.8c2-1.2,3.6-3,4.6-5.1h14.5c-1.3,5.5-4.6,10.4-9.2,13.8
		c-4.8,3.4-10.6,5.2-16.5,5c-4.9,0.1-9.7-1.1-14-3.5c-4.1-2.3-7.4-5.7-9.7-9.7C340.6,73.5,340.6,62.9,345.1,53.9L345.1,53.9z"/>
	<path class="st1" d="M414.2,92.3c-4.2-2.3-7.7-5.7-10.1-9.9c-5-8.9-5-19.7,0-28.5c2.4-4.1,5.9-7.5,10.1-9.8c8.7-4.7,19.3-4.7,28,0
		c4.2,2.3,7.6,5.7,10,9.8c4.9,8.9,4.9,19.6,0,28.5c-2.4,4.1-5.8,7.6-10,9.9C433.4,97.1,422.9,97.1,414.2,92.3L414.2,92.3z
		 M438.5,79.6c2.6-2.9,3.9-6.7,3.9-11.4s-1.3-8.5-3.9-11.4c-2.7-2.9-6.4-4.4-10.4-4.3c-3.9-0.2-7.7,1.4-10.4,4.2
		c-2.6,2.8-3.9,6.7-3.9,11.5s1.3,8.6,3.9,11.4c2.7,2.9,6.5,4.5,10.4,4.3C432.1,84.1,435.9,82.5,438.5,79.6z"/>
	<path class="st1" d="M490.7,95.3l-11.2-20.4h-3.2v20.4h-13.1v-54h22.1c3.8-0.1,7.5,0.7,10.9,2.2c2.8,1.3,5.2,3.4,6.7,6.1
		c1.5,2.6,2.3,5.6,2.2,8.7c0.1,3.4-1,6.8-3,9.6c-2.2,3-5.4,5.1-9,6l12.5,21.4H490.7z M476.2,65.6h8.2c2,0.2,3.9-0.5,5.4-1.8
		c1.3-1.3,1.9-3.2,1.8-5c0.1-1.8-0.6-3.6-1.8-4.8c-1.5-1.3-3.5-1.9-5.4-1.8h-8.2V65.6z"/>
	<path class="st1" d="M526.5,51.8v10.9h17.6v10.1h-17.6v11.9h19.9v10.6h-33.1v-54h33.1v10.6L526.5,51.8z"/>
	<path class="st1" d="M563.9,93.9c-3-1.2-5.6-3.1-7.5-5.7c-1.9-2.6-3-5.8-3-9.1h14c0.1,1.7,0.8,3.4,2.1,4.6c1.3,1.1,2.9,1.7,4.6,1.6
		c1.6,0.1,3.3-0.4,4.6-1.4c2-1.8,2.2-4.9,0.5-6.9c0,0-0.1-0.1-0.1-0.1c-1-0.9-2.1-1.6-3.3-2.1c-1.8-0.7-3.7-1.4-5.6-1.9
		c-2.9-0.9-5.8-1.9-8.5-3.2c-2.3-1.1-4.2-2.7-5.7-4.8c-1.7-2.4-2.5-5.3-2.4-8.2c0-5,1.8-9,5.5-11.8s8.4-4.3,14.2-4.3
		c6,0,10.8,1.4,14.4,4.3c3.7,2.9,5.8,7.2,5.9,11.9h-14.2c0-1.6-0.7-3.1-1.9-4.1c-1.3-1-2.9-1.6-4.5-1.5c-1.4-0.1-2.8,0.4-3.8,1.3
		c-1,0.9-1.5,2.3-1.5,3.7c0,1.7,0.9,3.3,2.5,4.1c2.4,1.3,5,2.4,7.7,3.2c2.9,0.9,5.7,2.1,8.5,3.4c2.2,1.1,4.2,2.7,5.7,4.7
		c1.7,2.3,2.5,5.1,2.4,7.9c0,3-0.8,5.9-2.3,8.4c-1.7,2.6-4,4.7-6.8,6c-3.3,1.6-6.9,2.3-10.5,2.3C570.9,96,567.3,95.3,563.9,93.9z"/>
</g>
</svg>
