<svg xmlns="http://www.w3.org/2000/svg" viewBox="0 0 511.33 149.3"><defs><style>.cls-1{fill:#2f2f2f;}.cls-2{fill:#86c808;}</style></defs><g id="Capa_2" data-name="Capa 2"><g id="Capa_1-2" data-name="Capa 1"><path class="cls-1" d="M3.9,23.12c-.36.49-1.58.12-2.56-.86S-.25,20,.12,19.34A13.33,13.33,0,0,0,1.22,18c4-5,12.56-11.71,22.69-15.37s22.2-4.27,32.94,3.3C57.58,6.41,58.31,7,59,7.5c14.4,11.71,5,41-5.73,65,24-31,65.39-77.1,84.05-66.86,9.88,5.49,3.54,24.77-5.73,45.51-11.47,25.74-26.72,54.77-13,62.7a4.64,4.64,0,0,1,2.19,2.93c.12,1-.61,1.22-1.71.61-19.64-11.22-5.24-43.55,7.08-71,8.3-18.79,15.62-35,11.71-37.09C113.82-4,40.26,100,38.18,102.9c-.36.61-1.46.37-2.56-.61S34,100,34.4,99.36c.12-.24,42.7-73.8,23.91-89A15.07,15.07,0,0,0,56.6,9.09C47.45,2.62,36.6,3.35,27,6.77S8.9,16.9,4.88,21.78A9,9,0,0,0,3.9,23.12Z"/><path class="cls-1" d="M141,65.57c.48-.49,1.7,0,2.68,1s1.34,2.32,1,2.93c-9.27,10.61-10,17.93-9.15,18.66C137,89.36,146.39,83.38,153,72.28l.37-.49c.49-.48,1.71-.12,2.68,1s1.47,2.32,1,2.81a4.68,4.68,0,0,1-.86.85c-1.58,1.95-10.73,14.88-1.58,10.49a42.26,42.26,0,0,0,13.54-11c.49-.61,1-1.83,2.07-.73s.37,1.71-.12,2.2c-3.29,4.27-7.93,10-12.81,12.32-4.27,2.07-9.64,1.09-10.37-4.15C134.8,96,124.92,94,131.63,79.11A55.56,55.56,0,0,1,141,65.57Z"/><path class="cls-1" d="M181,77.28a38.73,38.73,0,0,1-12.56,3.66c-8.3,17.81,24.64,2.69,28.42-4.14a1.71,1.71,0,0,1,2.68-.61c1,1,1,1.46.61,2.19-3.41,6-22.44,19.15-30.86,14.4a11.39,11.39,0,0,1-5.73-12,20.65,20.65,0,0,1,4.88-9,54,54,0,0,1,7.93-7.19c3.53-2.44,6.83-3.91,8.17-3.66a5.4,5.4,0,0,1,2.93,1.83A5.22,5.22,0,0,1,189,67.16a10.43,10.43,0,0,1-1.22,3.41A16.07,16.07,0,0,1,181,77.28Zm-8.66-2a45.46,45.46,0,0,0,5.49-2.07A16.61,16.61,0,0,0,184,67c.24-.49.37-.86.61-1.35a28.29,28.29,0,0,0-4.76,2.93A47.71,47.71,0,0,0,172.38,75.33Z"/><path class="cls-1" d="M197.51,80.21c-.49.49-1.95,1.22-2.93.25s1.59-3.3,2.08-3.79l9.15-11.1a28,28,0,0,1,2.8-2.68c.49-.49,1.71,0,2.57,1.1s1.46,2.31,1,2.8l-2.93,2.81c-2.56,2.93-6,8.17-4.63,13.78A13.34,13.34,0,0,1,204,91.8a10,10,0,0,1-2.32,2.68,8.58,8.58,0,0,1-2.81,1.35,7,7,0,0,1-4.75-.61c-7-3.54-3.18-10.37-3.18-10.49.37-.61,1.47-.37,2.57.6s1.58,2.32,1.34,2.93c0,.12-1.71,3.18-1.47,3.3a4.14,4.14,0,0,0,2.44,0,4.87,4.87,0,0,0,2.44-1.1,5.26,5.26,0,0,0,1.83-2.2,9.86,9.86,0,0,0,.61-6.71c0-1.58-1.09-1.7,1.83-7.07Z"/><path class="cls-1" d="M250.94,21.41c.37-.49,1.59-.24,2.57.85s1.46,2.32,1.1,2.81c0,.12-8.91,12.44-18.43,26.72h31.11a4.09,4.09,0,0,1,2.81,2.07c.73,1.22.61,2.2-.25,2.2H233.38c-2.56,3.9-5.13,7.93-7.57,11.83V68c0,.49-.24.73-.48.73-7.45,12.08-11.47,19-10.13,21.47,2.2,4.15,27-15.61,27-15.73.49-.37,1.22-.61,2.2.49s.24,1.7-.25,2.07c-.12.12-27.81,27.45-33.79,16.47-1.83-3.42,3.78-15.13,11.59-28.06-.12,0,.73-1.34.73-1.34.25-9.27-31-8-31-8a4,4,0,0,1-2.81-2.2c-.73-1.1-.61-2.07.24-2.07h41.24C240.58,35.81,250.82,21.53,250.94,21.41Zm-27,40.5,3.66-5.85-15.24-.61C216.05,56.91,222,59.35,224,61.91Z"/><path class="cls-1" d="M249.24,63.13c.36-.61,1.58-.24,2.56.73s1.59,2.32,1.22,2.93L248.51,74c4.27-2.07,10.12-4,12.56-1,1.1,1.22.73,4,2.32,4.15a29.35,29.35,0,0,0,9-1.34c.73-.24,1.46-.85,2.19.24s.37,1.59-.36,1.71c-3.54,1.1-9.4,2.32-12,2.08-3.17-.25-4.15-1.1-6.83-4.27-1.83-2.2-12.69,7.44-12.69,7.44-.24.12-6.59,10.85-7.2,12-.36.61-1.58.25-2.56-.73s-1.58-2.32-1.22-2.93Z"/><path class="cls-1" d="M276.93,70.09c.49-.37,1.71.12,2.68,1.22s1.22,2.31.74,2.8a7.13,7.13,0,0,0-1,.73c-2.56,2.32-4.64,6.1-6,9.89-1,3.17-1.46,6.09-.85,7.31a3.63,3.63,0,0,0,2.32,0,9.52,9.52,0,0,0,3.66-2.31,21.79,21.79,0,0,0,4.75-6.47,24.6,24.6,0,0,0,2-5A17.3,17.3,0,0,1,280.47,72a13,13,0,0,1-1.22-6c.24-1.71,1-2.93,2.44-3.17a5.3,5.3,0,0,1,3.05.61,9,9,0,0,1,3.78,4.15A13.06,13.06,0,0,1,289.86,72a18.38,18.38,0,0,1,0,5.24,15.43,15.43,0,0,0,11-1.46c.61-.37,1.22-.85,2.2.24s.73,2,.12,2.32c-5.73,3.17-10,3.66-13.79,2.32a21.76,21.76,0,0,1-2.31,6.1,23.86,23.86,0,0,1-5,6.83,11.86,11.86,0,0,1-4.14,2.56,5.93,5.93,0,0,1-4.76-.49,8.81,8.81,0,0,1-2.44-2L270,93c-2-2.81-1.83-7.32-.49-11.59a25.83,25.83,0,0,1,6.34-10.49C276.2,70.7,276.56,70.33,276.93,70.09Zm8.91,5.24a21,21,0,0,0,0-5.49,11.52,11.52,0,0,0-.61-2.68h.12a1,1,0,0,0-.86,0c-.73,0-1.09.73-1.22,1.83a7.47,7.47,0,0,0,.74,3.78A6.08,6.08,0,0,0,285.84,75.33Z"/><path class="cls-1" d="M301.21,80.21c-.49.49-1.95,1.22-2.93.25s1.59-3.3,2.07-3.79l9.15-11.1a28.65,28.65,0,0,1,2.81-2.68c.49-.49,1.71,0,2.56,1.1s1.46,2.31,1,2.8l-2.93,2.81c-2.56,2.93-6,8.17-4.64,13.78a13.21,13.21,0,0,1-.61,8.42,9.93,9.93,0,0,1-2.31,2.68,8.67,8.67,0,0,1-2.81,1.35,7,7,0,0,1-4.76-.61c-7-3.54-3.17-10.37-3.17-10.49.37-.61,1.46-.37,2.56.6s1.59,2.32,1.34,2.93c0,.12-1.7,3.18-1.46,3.3a4.13,4.13,0,0,0,2.44,0,4.9,4.9,0,0,0,2.44-1.1,5.41,5.41,0,0,0,1.83-2.2,9.92,9.92,0,0,0,.61-6.71c0-1.58-1.1-1.7,1.83-7.07Z"/><path class="cls-2" d="M77.36,120.69A15.86,15.86,0,0,1,70.74,127a23.36,23.36,0,0,1-11.09,2.39H51.49v19.4H38.32v-54H59.65a24.22,24.22,0,0,1,10.93,2.23,15.34,15.34,0,0,1,6.7,6.16,17.9,17.9,0,0,1,2.24,9A17.36,17.36,0,0,1,77.36,120.69Zm-13.09-3.58a7.7,7.7,0,0,0,0-10c-1.23-1.18-3.11-1.77-5.62-1.77H51.49v13.55h7.16C61.16,118.88,63,118.29,64.27,117.11Z"/><path class="cls-2" d="M113.93,148.76l-11.24-20.41H99.53v20.41H86.37v-54h22.1a24.28,24.28,0,0,1,10.89,2.23,15.38,15.38,0,0,1,6.74,6.12,17.06,17.06,0,0,1,2.23,8.66,16.07,16.07,0,0,1-3,9.63,16.39,16.39,0,0,1-9,6l12.48,21.41ZM99.53,119h8.17a7.49,7.49,0,0,0,5.43-1.77,6.71,6.71,0,0,0,1.8-5,6.5,6.5,0,0,0-1.8-4.85,7.49,7.49,0,0,0-5.43-1.77H99.53Z"/><path class="cls-2" d="M148.16,145.76a26.42,26.42,0,0,1-10.09-9.9,29.14,29.14,0,0,1,0-28.53,26.51,26.51,0,0,1,10.09-9.85,29.35,29.35,0,0,1,28,0,26,26,0,0,1,10,9.85,29.49,29.49,0,0,1,0,28.53,26.22,26.22,0,0,1-10,9.9,29.28,29.28,0,0,1-27.91,0ZM172.49,133q3.88-4.31,3.89-11.39t-3.89-11.44a14.82,14.82,0,0,0-20.79,0q-3.88,4.23-3.89,11.47T151.7,133a13.42,13.42,0,0,0,10.44,4.28A13.24,13.24,0,0,0,172.49,133Z"/><path class="cls-2" d="M232.28,98.09a24.27,24.27,0,0,1,9.9,9.51,30.19,30.19,0,0,1,0,28.22,24.09,24.09,0,0,1-9.94,9.55,31.46,31.46,0,0,1-14.9,3.39H197.09v-54h20.25A31.54,31.54,0,0,1,232.28,98.09Zm-4.16,35.19q4.17-4.08,4.16-11.55t-4.16-11.62Q224,105.94,216.5,106h-6.24v31.41h6.24Q224,137.36,228.12,133.28Z"/><path class="cls-2" d="M266,94.71v32.34q0,4.85,2.38,7.46t7,2.62q4.62,0,7.08-2.62t2.47-7.46V94.71h13.17V127A23,23,0,0,1,295,139.21a19.82,19.82,0,0,1-8.28,7.55,26.11,26.11,0,0,1-11.59,2.54,25.47,25.47,0,0,1-11.43-2.5,18.64,18.64,0,0,1-8-7.55A24,24,0,0,1,252.84,127V94.71Z"/><path class="cls-2" d="M308.59,107.37a24.82,24.82,0,0,1,9.66-9.78,28.11,28.11,0,0,1,14.05-3.5,26.88,26.88,0,0,1,16.48,5.08A24.41,24.41,0,0,1,357.94,113H343.47a11.73,11.73,0,0,0-4.58-5.16,12.92,12.92,0,0,0-6.74-1.77,12.57,12.57,0,0,0-9.86,4.24q-3.77,4.23-3.77,11.32T322.29,133a12.57,12.57,0,0,0,9.86,4.24,12.92,12.92,0,0,0,6.74-1.77,11.73,11.73,0,0,0,4.58-5.16h14.47a24.21,24.21,0,0,1-9.16,13.82,27,27,0,0,1-16.48,5,28,28,0,0,1-14.05-3.5,24.79,24.79,0,0,1-9.66-9.74,31.06,31.06,0,0,1,0-28.53Z"/><path class="cls-2" d="M404.91,94.71v10.54H390.59v43.51H377.42V105.25H363.1V94.71Z"/><path class="cls-2" d="M423.12,145.76a26.47,26.47,0,0,1-10.08-9.9,29.07,29.07,0,0,1,0-28.53,26.55,26.55,0,0,1,10.08-9.85,29.35,29.35,0,0,1,27.95,0,25.89,25.89,0,0,1,10,9.85,29.52,29.52,0,0,1,0,28.53,26.36,26.36,0,0,1-10,9.9,29.3,29.3,0,0,1-27.92,0ZM447.45,133q3.9-4.31,3.89-11.39t-3.89-11.44a13.34,13.34,0,0,0-10.35-4.27,13.47,13.47,0,0,0-10.44,4.24q-3.89,4.23-3.88,11.47T426.66,133a13.43,13.43,0,0,0,10.44,4.28A13.24,13.24,0,0,0,447.45,133Z"/><path class="cls-2" d="M481,147.37a17.31,17.31,0,0,1-7.51-5.69,15.6,15.6,0,0,1-3-9.09h14a6.78,6.78,0,0,0,2.08,4.58,6.69,6.69,0,0,0,4.62,1.58,7.22,7.22,0,0,0,4.62-1.35,4.5,4.5,0,0,0,1.69-3.73,4.43,4.43,0,0,0-1.34-3.31,10.9,10.9,0,0,0-3.32-2.16,54.27,54.27,0,0,0-5.58-1.92,60.27,60.27,0,0,1-8.54-3.24,15.82,15.82,0,0,1-5.7-4.77,13.32,13.32,0,0,1-2.39-8.24q0-7.55,5.47-11.82t14.24-4.27q8.94,0,14.4,4.27a15.26,15.26,0,0,1,5.85,11.9H496.39a5.56,5.56,0,0,0-1.93-4.12,6.78,6.78,0,0,0-4.54-1.51,5.66,5.66,0,0,0-3.85,1.28,4.89,4.89,0,0,0,1,7.73,40,40,0,0,0,7.7,3.16,70.7,70.7,0,0,1,8.51,3.39,16.16,16.16,0,0,1,5.66,4.7,12.56,12.56,0,0,1,2.39,7.93,15.59,15.59,0,0,1-2.35,8.39,16.46,16.46,0,0,1-6.82,6,23.28,23.28,0,0,1-10.55,2.23A27.65,27.65,0,0,1,481,147.37Z"/></g></g></svg>