<svg xmlns="http://www.w3.org/2000/svg" viewBox="0 0 1203.38 657.79"><defs><style>.cls-1{fill:#ffdc00;}.cls-2{fill:#fff;}</style></defs><g id="Capa_2" data-name="Capa 2"><g id="Capa_1-2" data-name="Capa 1"><path class="cls-1" d="M270.56,397.6H932.81c14.59,0,26.41,13.54,26.41,30.25h0c0,16.71-11.82,30.26-26.41,30.26H270.56c-14.58,0-26.41-13.55-26.41-30.26h0C244.15,411.14,256,397.6,270.56,397.6Z"/><path class="cls-2" d="M38.8,40.4q-5.89,5.51-17.7,5.5H7V75.7H0V5.8H21.1q11.7,0,17.65,5.5t6,14.6Q44.7,34.9,38.8,40.4ZM37.5,25.9q0-7-3.9-10.6T21.1,11.7H7V39.9H21.1Q37.5,39.9,37.5,25.9Z"/><path class="cls-2" d="M56.55,33.55a24,24,0,0,1,9.3-9.8A26.3,26.3,0,0,1,79.3,20.3a24.5,24.5,0,0,1,13.45,3.6,21,21,0,0,1,8.15,9.2v-12h7V75.7h-7V63.6a21.88,21.88,0,0,1-8.25,9.25A24.28,24.28,0,0,1,79.2,76.5,25.86,25.86,0,0,1,65.85,73a24.17,24.17,0,0,1-9.3-9.9A31.39,31.39,0,0,1,53.2,48.3,31.07,31.07,0,0,1,56.55,33.55ZM98.2,36.8a19.29,19.29,0,0,0-7.35-7.7A20.05,20.05,0,0,0,80.6,26.4,20.8,20.8,0,0,0,70.2,29,18.35,18.35,0,0,0,63,36.55,24.53,24.53,0,0,0,60.3,48.3,24.89,24.89,0,0,0,63,60.05a18.56,18.56,0,0,0,7.25,7.7A20.42,20.42,0,0,0,80.6,70.4a20.05,20.05,0,0,0,10.25-2.7A19.29,19.29,0,0,0,98.2,60a24,24,0,0,0,2.7-11.6A24,24,0,0,0,98.2,36.8Z"/><path class="cls-2" d="M138,22.9a22.54,22.54,0,0,1,11.65-2.8v7.3h-1.9q-7.6,0-12.2,4.1t-4.6,13.7V75.7h-7V21.1h7v9.7A17.09,17.09,0,0,1,138,22.9Z"/><path class="cls-2" d="M160.25,33.55a24,24,0,0,1,9.3-9.8A26.3,26.3,0,0,1,183,20.3a24.5,24.5,0,0,1,13.45,3.6,21,21,0,0,1,8.15,9.2v-12h7V75.7h-7V63.6a22,22,0,0,1-8.25,9.25A24.28,24.28,0,0,1,182.9,76.5,25.83,25.83,0,0,1,169.55,73a24.17,24.17,0,0,1-9.3-9.9,31.39,31.39,0,0,1-3.35-14.8A31.07,31.07,0,0,1,160.25,33.55ZM201.9,36.8a19.29,19.29,0,0,0-7.35-7.7,20.05,20.05,0,0,0-10.25-2.7A20.77,20.77,0,0,0,173.9,29a18.35,18.35,0,0,0-7.25,7.55A24.53,24.53,0,0,0,164,48.3a24.89,24.89,0,0,0,2.65,11.75,18.56,18.56,0,0,0,7.25,7.7,20.39,20.39,0,0,0,10.4,2.65,20.05,20.05,0,0,0,10.25-2.7A19.29,19.29,0,0,0,201.9,60a24,24,0,0,0,2.7-11.6A24,24,0,0,0,201.9,36.8Z"/><path class="cls-2" d="M264.1,27V60.9q0,5,1.9,6.9c1.26,1.27,3.5,1.9,6.7,1.9h6.4v6h-7.5q-7.41,0-11-3.45T257,60.9V27h-7.6V21.1H257V7.4h7.1V21.1h15V27Z"/><path class="cls-2" d="M337.89,21.1V75.7h-7V66.1a16.75,16.75,0,0,1-7.4,7.8,23.16,23.16,0,0,1-11.2,2.7q-9.8,0-16-6T290.09,53V21.1H297V52.2q0,8.89,4.45,13.6t12.15,4.7q7.91,0,12.6-5t4.7-14.7V21.1Z"/><path class="cls-2" d="M381.49,33.55a24.26,24.26,0,0,1,9.4-9.8,27,27,0,0,1,13.7-3.45q10.11,0,16.65,5a22.59,22.59,0,0,1,8.45,13.6h-7.5a15.34,15.34,0,0,0-6.05-9.25,19.27,19.27,0,0,0-11.55-3.35,19.68,19.68,0,0,0-9.9,2.5,17.57,17.57,0,0,0-6.95,7.45,26.31,26.31,0,0,0-2.55,12.15,26.61,26.61,0,0,0,2.55,12.2,17.53,17.53,0,0,0,6.95,7.5,19.68,19.68,0,0,0,9.9,2.5,19.27,19.27,0,0,0,11.55-3.35,15.37,15.37,0,0,0,6.05-9.35h7.5a22.87,22.87,0,0,1-8.5,13.5q-6.6,5.1-16.6,5.1a27,27,0,0,1-13.7-3.45,24.26,24.26,0,0,1-9.4-9.8,31.06,31.06,0,0,1-3.4-14.85A31.06,31.06,0,0,1,381.49,33.55Z"/><path class="cls-2" d="M442.74,33.55a24,24,0,0,1,9.3-9.8,26.33,26.33,0,0,1,13.45-3.45,24.5,24.5,0,0,1,13.45,3.6,21,21,0,0,1,8.15,9.2v-12h7V75.7h-7V63.6a21.88,21.88,0,0,1-8.25,9.25,24.28,24.28,0,0,1-13.45,3.65A25.88,25.88,0,0,1,452,73a24.17,24.17,0,0,1-9.3-9.9,31.51,31.51,0,0,1-3.35-14.8A31.19,31.19,0,0,1,442.74,33.55Zm41.65,3.25A19.29,19.29,0,0,0,477,29.1a20.05,20.05,0,0,0-10.25-2.7,20.8,20.8,0,0,0-10.4,2.6,18.41,18.41,0,0,0-7.25,7.55,24.53,24.53,0,0,0-2.65,11.75,24.89,24.89,0,0,0,2.65,11.75,18.62,18.62,0,0,0,7.25,7.7,20.42,20.42,0,0,0,10.4,2.65A20.05,20.05,0,0,0,477,67.7a19.29,19.29,0,0,0,7.35-7.7,24,24,0,0,0,2.7-11.6A24,24,0,0,0,484.39,36.8Z"/><path class="cls-2" d="M551.69,26.15q6.19,6,6.2,17.55v32H551V44.5q0-8.89-4.45-13.6t-12.15-4.7q-7.9,0-12.6,5t-4.7,14.7V75.7h-7V21.1h7v9.3a17.87,17.87,0,0,1,7.5-7.65,22.94,22.94,0,0,1,11.1-2.65Q545.49,20.1,551.69,26.15Z"/><path class="cls-2" d="M573.54,33.55a24,24,0,0,1,9.3-9.8,26.33,26.33,0,0,1,13.45-3.45,24.5,24.5,0,0,1,13.45,3.6,21,21,0,0,1,8.15,9.2v-12h7V75.7h-7V63.6a21.88,21.88,0,0,1-8.25,9.25,24.28,24.28,0,0,1-13.45,3.65A25.88,25.88,0,0,1,582.84,73a24.17,24.17,0,0,1-9.3-9.9,31.51,31.51,0,0,1-3.35-14.8A31.19,31.19,0,0,1,573.54,33.55Zm41.65,3.25a19.29,19.29,0,0,0-7.35-7.7,20.05,20.05,0,0,0-10.25-2.7,20.8,20.8,0,0,0-10.4,2.6,18.41,18.41,0,0,0-7.25,7.55,24.53,24.53,0,0,0-2.65,11.75,24.89,24.89,0,0,0,2.65,11.75,18.62,18.62,0,0,0,7.25,7.7,20.42,20.42,0,0,0,10.4,2.65,20.05,20.05,0,0,0,10.25-2.7,19.29,19.29,0,0,0,7.35-7.7,24,24,0,0,0,2.7-11.6A24,24,0,0,0,615.19,36.8Z"/><path class="cls-2" d="M644.34,72.15a15.82,15.82,0,0,1-6.65-11.85h7.2a10.3,10.3,0,0,0,4.35,7.45c2.57,1.9,6,2.85,10.35,2.85q5.7,0,8.95-2.7a8.39,8.39,0,0,0,3.25-6.7,6.22,6.22,0,0,0-1.8-4.6,12.8,12.8,0,0,0-4.55-2.85A71.79,71.79,0,0,0,658,51.5a75.42,75.42,0,0,1-9.9-3.2,16.87,16.87,0,0,1-6.45-4.75A12.69,12.69,0,0,1,639,35.1a12.57,12.57,0,0,1,2.4-7.4,16.28,16.28,0,0,1,6.8-5.4,23.93,23.93,0,0,1,10-2q8.8,0,14.2,4.45T678.19,37h-7a10.64,10.64,0,0,0-3.75-7.75Q664,26.3,658,26.3a13.83,13.83,0,0,0-8.6,2.5,7.52,7.52,0,0,0-3.3,6.2A7.32,7.32,0,0,0,648,40.25a13.34,13.34,0,0,0,4.85,3.2q2.9,1.15,7.8,2.55a74.74,74.74,0,0,1,9.4,3.1,16.4,16.4,0,0,1,6,4.4,11.82,11.82,0,0,1,2.6,7.7,13.42,13.42,0,0,1-2.4,7.85,16.34,16.34,0,0,1-6.7,5.45,23.3,23.3,0,0,1-9.9,2Q650.28,76.5,644.34,72.15Z"/><path class="cls-2" d="M701,27V60.9q0,5,1.9,6.9c1.26,1.27,3.5,1.9,6.7,1.9H716v6h-7.5q-7.41,0-11-3.45t-3.6-11.35V27h-7.6V21.1h7.6V7.4H701V21.1h15V27Z"/><path class="cls-2" d="M727.64,33.55a24,24,0,0,1,9.3-9.8,26.3,26.3,0,0,1,13.45-3.45,24.5,24.5,0,0,1,13.45,3.6A21,21,0,0,1,772,33.1v-12h7V75.7h-7V63.6a22,22,0,0,1-8.25,9.25,24.28,24.28,0,0,1-13.45,3.65A25.83,25.83,0,0,1,736.94,73a24.17,24.17,0,0,1-9.3-9.9,31.39,31.39,0,0,1-3.35-14.8A31.07,31.07,0,0,1,727.64,33.55Zm41.65,3.25a19.29,19.29,0,0,0-7.35-7.7,20.05,20.05,0,0,0-10.25-2.7,20.77,20.77,0,0,0-10.4,2.6A18.35,18.35,0,0,0,734,36.55a24.53,24.53,0,0,0-2.65,11.75A24.89,24.89,0,0,0,734,60.05a18.56,18.56,0,0,0,7.25,7.7,20.39,20.39,0,0,0,10.4,2.65,20.05,20.05,0,0,0,10.25-2.7,19.29,19.29,0,0,0,7.35-7.7A24,24,0,0,0,772,48.4,24,24,0,0,0,769.29,36.8Z"/><path class="cls-2" d="M843.88,27h-12.7V75.7h-7V27h-7.6V21.1h7.6V17.3q0-8.9,4.55-13.1T843.48,0V6q-6.79,0-9.55,2.6t-2.75,8.7v3.8h12.7Z"/><path class="cls-2" d="M855,33.55a24.1,24.1,0,0,1,9.3-9.8,26.33,26.33,0,0,1,13.45-3.45,24.48,24.48,0,0,1,13.45,3.6,20.91,20.91,0,0,1,8.15,9.2v-12h7V75.7h-7V63.6a21.88,21.88,0,0,1-8.25,9.25,24.25,24.25,0,0,1-13.45,3.65A25.88,25.88,0,0,1,864.33,73a24.3,24.3,0,0,1-9.3-9.9,31.51,31.51,0,0,1-3.35-14.8A31.19,31.19,0,0,1,855,33.55Zm41.65,3.25a19.29,19.29,0,0,0-7.35-7.7,20,20,0,0,0-10.25-2.7,20.82,20.82,0,0,0-10.4,2.6,18.47,18.47,0,0,0-7.25,7.55,24.65,24.65,0,0,0-2.65,11.75,25,25,0,0,0,2.65,11.75,18.69,18.69,0,0,0,7.25,7.7,20.45,20.45,0,0,0,10.4,2.65,20,20,0,0,0,10.25-2.7,19.29,19.29,0,0,0,7.35-7.7,24,24,0,0,0,2.7-11.6A24,24,0,0,0,896.68,36.8Z"/><path class="cls-2" d="M1003,26.15q6.06,6,6.05,17.55v32h-6.9V44.5q0-8.89-4.3-13.6t-11.7-4.7q-7.7,0-12.3,5.1t-4.6,14.8V75.7h-6.9V44.5q0-8.89-4.3-13.6t-11.8-4.7q-7.69,0-12.3,5.1t-4.6,14.8V75.7h-7V21.1h7v9.4a18,18,0,0,1,7.4-7.75,21.74,21.74,0,0,1,10.7-2.65,22.65,22.65,0,0,1,12.45,3.4,19.17,19.17,0,0,1,7.75,10,18.52,18.52,0,0,1,7.55-9.95,21.94,21.94,0,0,1,12.15-3.45Q997,20.1,1003,26.15Z"/><path class="cls-2" d="M1024.48,9.3a5,5,0,0,1-1.5-3.7,4.86,4.86,0,0,1,1.5-3.65,5.19,5.19,0,0,1,7.2,0,4.86,4.86,0,0,1,1.5,3.65,5,5,0,0,1-1.5,3.7,5.07,5.07,0,0,1-7.2,0Zm7.1,11.8V75.7h-7V21.1Z"/><path class="cls-2" d="M1054.48,1.7v74h-7V1.7Z"/><path class="cls-2" d="M1070.28,9.3a5,5,0,0,1-1.5-3.7,4.86,4.86,0,0,1,1.5-3.65,5.19,5.19,0,0,1,7.2,0A4.86,4.86,0,0,1,1079,5.6a5,5,0,0,1-1.5,3.7,5.07,5.07,0,0,1-7.2,0Zm7.1,11.8V75.7h-7V21.1Z"/><path class="cls-2" d="M1093.43,33.55a24,24,0,0,1,9.3-9.8,26.3,26.3,0,0,1,13.45-3.45,24.5,24.5,0,0,1,13.45,3.6,21,21,0,0,1,8.15,9.2v-12h7V75.7h-7V63.6a22,22,0,0,1-8.25,9.25,24.28,24.28,0,0,1-13.45,3.65,25.83,25.83,0,0,1-13.35-3.5,24.17,24.17,0,0,1-9.3-9.9,31.39,31.39,0,0,1-3.35-14.8A31.07,31.07,0,0,1,1093.43,33.55Zm41.65,3.25a19.29,19.29,0,0,0-7.35-7.7,20.05,20.05,0,0,0-10.25-2.7,20.77,20.77,0,0,0-10.4,2.6,18.35,18.35,0,0,0-7.25,7.55,24.53,24.53,0,0,0-2.65,11.75,24.89,24.89,0,0,0,2.65,11.75,18.56,18.56,0,0,0,7.25,7.7,20.39,20.39,0,0,0,10.4,2.65,20.05,20.05,0,0,0,10.25-2.7,19.29,19.29,0,0,0,7.35-7.7,24,24,0,0,0,2.7-11.6A24,24,0,0,0,1135.08,36.8Z"/><path class="cls-2" d="M1174.83,22.9a22.54,22.54,0,0,1,11.65-2.8v7.3h-1.9q-7.61,0-12.2,4.1t-4.6,13.7V75.7h-7V21.1h7v9.7A17.09,17.09,0,0,1,1174.83,22.9Z"/><path class="cls-2" d="M1203.38,64.1,1193,90.3h-4.8l7.4-26.2Z"/><path class="cls-2" d="M74.85,147v33.9q0,5,1.9,6.9c1.26,1.27,3.5,1.9,6.7,1.9h6.4v6h-7.5q-7.41,0-11-3.45t-3.6-11.35V147h-7.6v-5.9h7.6V127.4h7.1v13.7h15V147Z"/><path class="cls-2" d="M111.4,193.05a24.91,24.91,0,0,1-9.7-9.8,29.88,29.88,0,0,1-3.55-14.85,29.58,29.58,0,0,1,3.6-14.85,25.16,25.16,0,0,1,9.8-9.8,28.07,28.07,0,0,1,13.9-3.45,28.4,28.4,0,0,1,14,3.45,24.83,24.83,0,0,1,9.8,9.8,30,30,0,0,1,3.55,14.85,29.68,29.68,0,0,1-3.6,14.8,24.88,24.88,0,0,1-9.9,9.85,28.67,28.67,0,0,1-14,3.45A27.8,27.8,0,0,1,111.4,193.05Zm23.85-5.1a18.72,18.72,0,0,0,7.45-7.4,24,24,0,0,0,2.85-12.15,24.42,24.42,0,0,0-2.8-12.15,18.42,18.42,0,0,0-7.4-7.4,21.63,21.63,0,0,0-20,0,18,18,0,0,0-7.35,7.4,28.22,28.22,0,0,0,0,24.3,18.08,18.08,0,0,0,7.3,7.4,20.68,20.68,0,0,0,10,2.45A21,21,0,0,0,135.25,188Z"/><path class="cls-2" d="M165.75,153.55a24.28,24.28,0,0,1,9.35-9.8,26.3,26.3,0,0,1,13.45-3.45,24.71,24.71,0,0,1,13,3.5,21.45,21.45,0,0,1,8.5,9.1V121.7h7v74h-7V183.5a21,21,0,0,1-8.2,9.35,24.34,24.34,0,0,1-13.4,3.65A26,26,0,0,1,175,193a24.17,24.17,0,0,1-9.3-9.9,31.39,31.39,0,0,1-3.35-14.8A30.73,30.73,0,0,1,165.75,153.55Zm41.6,3.25a19.29,19.29,0,0,0-7.35-7.7,20.05,20.05,0,0,0-10.25-2.7,20.77,20.77,0,0,0-10.4,2.6,18.35,18.35,0,0,0-7.25,7.55,24.53,24.53,0,0,0-2.65,11.75,24.89,24.89,0,0,0,2.65,11.75,18.56,18.56,0,0,0,7.25,7.7,20.39,20.39,0,0,0,10.4,2.65A20.05,20.05,0,0,0,200,187.7a19.29,19.29,0,0,0,7.35-7.7,26.27,26.27,0,0,0,0-23.2Z"/><path class="cls-2" d="M243.09,193.05a25,25,0,0,1-9.7-9.8,30,30,0,0,1-3.55-14.85,29.58,29.58,0,0,1,3.6-14.85,25.22,25.22,0,0,1,9.8-9.8,29.83,29.83,0,0,1,27.85,0,24.71,24.71,0,0,1,9.8,9.8,32.53,32.53,0,0,1-.05,29.65,24.88,24.88,0,0,1-9.9,9.85,28.64,28.64,0,0,1-14,3.45A27.82,27.82,0,0,1,243.09,193.05Zm23.85-5.1a18.66,18.66,0,0,0,7.45-7.4,24,24,0,0,0,2.85-12.15,24.31,24.31,0,0,0-2.8-12.15,18.3,18.3,0,0,0-7.4-7.4,21.63,21.63,0,0,0-20,0,18.13,18.13,0,0,0-7.35,7.4,28.22,28.22,0,0,0,0,24.3A18.2,18.2,0,0,0,247,188a20.71,20.71,0,0,0,9.95,2.45A21,21,0,0,0,266.94,188Z"/><path class="cls-2" d="M331.64,121.7v74h-7v-74Z"/><path class="cls-2" d="M357.59,193.05a25,25,0,0,1-9.7-9.8,29.88,29.88,0,0,1-3.55-14.85,29.58,29.58,0,0,1,3.6-14.85,25.22,25.22,0,0,1,9.8-9.8,29.83,29.83,0,0,1,27.85,0,24.77,24.77,0,0,1,9.8,9.8,32.53,32.53,0,0,1-.05,29.65,24.88,24.88,0,0,1-9.9,9.85,28.67,28.67,0,0,1-14,3.45A27.82,27.82,0,0,1,357.59,193.05Zm23.85-5.1a18.66,18.66,0,0,0,7.45-7.4,24,24,0,0,0,2.85-12.15,24.31,24.31,0,0,0-2.8-12.15,18.36,18.36,0,0,0-7.4-7.4,21.63,21.63,0,0,0-20,0,18,18,0,0,0-7.35,7.4,28.22,28.22,0,0,0,0,24.3,18.14,18.14,0,0,0,7.3,7.4,20.68,20.68,0,0,0,9.95,2.45A21,21,0,0,0,381.44,188Z"/><path class="cls-2" d="M439.34,153.55a24.34,24.34,0,0,1,9.35-9.8,26.33,26.33,0,0,1,13.45-3.45,24.34,24.34,0,0,1,13.4,3.65,20.6,20.6,0,0,1,8.1,9.15v-12h7v80.4h-7V183.7a20.54,20.54,0,0,1-8.15,9.15,24.76,24.76,0,0,1-13.55,3.65,25.88,25.88,0,0,1-13.35-3.5,24.17,24.17,0,0,1-9.3-9.9,31.51,31.51,0,0,1-3.35-14.8A30.73,30.73,0,0,1,439.34,153.55Zm41.6,3.25a19.29,19.29,0,0,0-7.35-7.7,20.05,20.05,0,0,0-10.25-2.7,20.8,20.8,0,0,0-10.4,2.6,18.41,18.41,0,0,0-7.25,7.55A24.53,24.53,0,0,0,443,168.3a24.89,24.89,0,0,0,2.65,11.75,18.62,18.62,0,0,0,7.25,7.7,20.42,20.42,0,0,0,10.4,2.65,20.05,20.05,0,0,0,10.25-2.7,19.29,19.29,0,0,0,7.35-7.7,26.27,26.27,0,0,0,0-23.2Z"/><path class="cls-2" d="M553.94,141.1v54.6h-7v-9.6a16.8,16.8,0,0,1-7.4,7.8,23.22,23.22,0,0,1-11.2,2.7q-9.8,0-16-6T506.14,173V141.1H513v31.1q0,8.9,4.45,13.6t12.15,4.7q7.89,0,12.6-5t4.7-14.7V141.1Z"/><path class="cls-2" d="M619.14,171.1h-45.3a22,22,0,0,0,3,10.6,17.64,17.64,0,0,0,7.1,6.65,20.76,20.76,0,0,0,9.6,2.25A19.29,19.29,0,0,0,605,187.3a15.51,15.51,0,0,0,6.15-8.9h7.4a23.21,23.21,0,0,1-8.55,13q-6.56,5.06-16.45,5.05a27.5,27.5,0,0,1-13.8-3.45,24.36,24.36,0,0,1-9.55-9.8,30.62,30.62,0,0,1-3.45-14.85,31.26,31.26,0,0,1,3.4-14.9,23.57,23.57,0,0,1,9.5-9.8,28,28,0,0,1,13.9-3.4,26.64,26.64,0,0,1,13.65,3.4,23.54,23.54,0,0,1,9,9.15,26.08,26.08,0,0,1,3.15,12.75C619.34,168,619.27,169.83,619.14,171.1ZM609.79,155a16.55,16.55,0,0,0-6.95-6.5,21.16,21.16,0,0,0-9.6-2.2,19.08,19.08,0,0,0-13.3,5q-5.51,5-6.1,14.1h38.4A19.46,19.46,0,0,0,609.79,155Z"/><path class="cls-2" d="M701.14,146.15q6.2,6,6.2,17.55v32h-6.9V164.5q0-8.9-4.45-13.6t-12.15-4.7q-7.9,0-12.6,5t-4.7,14.7v29.8h-7V141.1h7v9.3a17.87,17.87,0,0,1,7.5-7.65,22.88,22.88,0,0,1,11.1-2.65Q694.94,140.1,701.14,146.15Z"/><path class="cls-2" d="M772,171.1h-45.3a22,22,0,0,0,3,10.6,17.64,17.64,0,0,0,7.1,6.65,20.76,20.76,0,0,0,9.6,2.25,19.29,19.29,0,0,0,11.45-3.3,15.51,15.51,0,0,0,6.15-8.9h7.4a23.21,23.21,0,0,1-8.55,13q-6.55,5.06-16.45,5.05a27.5,27.5,0,0,1-13.8-3.45,24.36,24.36,0,0,1-9.55-9.8,30.62,30.62,0,0,1-3.45-14.85,31.26,31.26,0,0,1,3.4-14.9,23.57,23.57,0,0,1,9.5-9.8,28,28,0,0,1,13.9-3.4,26.64,26.64,0,0,1,13.65,3.4,23.54,23.54,0,0,1,9,9.15,26.08,26.08,0,0,1,3.15,12.75C772.24,168,772.17,169.83,772,171.1ZM762.69,155a16.55,16.55,0,0,0-7-6.5,21.16,21.16,0,0,0-9.6-2.2,19.08,19.08,0,0,0-13.3,5q-5.51,5-6.1,14.1h38.4A19.46,19.46,0,0,0,762.69,155Z"/><path class="cls-2" d="M785.24,153.55a24.2,24.2,0,0,1,9.4-9.8,27,27,0,0,1,13.7-3.45q10.1,0,16.65,5a22.68,22.68,0,0,1,8.45,13.6h-7.5a15.38,15.38,0,0,0-6.05-9.25,19.27,19.27,0,0,0-11.55-3.35,19.63,19.63,0,0,0-9.9,2.5,17.51,17.51,0,0,0-7,7.45,26.31,26.31,0,0,0-2.55,12.15,26.61,26.61,0,0,0,2.55,12.2,17.47,17.47,0,0,0,7,7.5,19.63,19.63,0,0,0,9.9,2.5,19.27,19.27,0,0,0,11.55-3.35,15.41,15.41,0,0,0,6.05-9.35h7.5a22.92,22.92,0,0,1-8.5,13.5q-6.6,5.1-16.6,5.1a27,27,0,0,1-13.7-3.45,24.2,24.2,0,0,1-9.4-9.8,34.13,34.13,0,0,1,0-29.7Z"/><path class="cls-2" d="M895.53,171.1h-45.3a22,22,0,0,0,3,10.6,17.71,17.71,0,0,0,7.1,6.65,20.82,20.82,0,0,0,9.6,2.25,19.26,19.26,0,0,0,11.45-3.3,15.51,15.51,0,0,0,6.15-8.9h7.4a23.11,23.11,0,0,1-8.55,13q-6.54,5.06-16.45,5.05a27.56,27.56,0,0,1-13.8-3.45,24.42,24.42,0,0,1-9.55-9.8,30.62,30.62,0,0,1-3.45-14.85,31.38,31.38,0,0,1,3.4-14.9,23.69,23.69,0,0,1,9.5-9.8,28,28,0,0,1,13.9-3.4,26.64,26.64,0,0,1,13.65,3.4,23.54,23.54,0,0,1,9,9.15,26.08,26.08,0,0,1,3.15,12.75A54.52,54.52,0,0,1,895.53,171.1ZM886.18,155a16.5,16.5,0,0,0-6.95-6.5,21.1,21.1,0,0,0-9.6-2.2,19.09,19.09,0,0,0-13.3,5q-5.49,5-6.1,14.1h38.4A19.37,19.37,0,0,0,886.18,155Z"/><path class="cls-2" d="M912,192.15a15.88,15.88,0,0,1-6.65-11.85h7.2a10.36,10.36,0,0,0,4.35,7.45q3.86,2.85,10.35,2.85c3.8,0,6.79-.9,8.95-2.7a8.36,8.36,0,0,0,3.25-6.7,6.22,6.22,0,0,0-1.8-4.6,12.71,12.71,0,0,0-4.55-2.85,70.3,70.3,0,0,0-7.45-2.25,76.43,76.43,0,0,1-9.9-3.2,17,17,0,0,1-6.45-4.75,12.74,12.74,0,0,1-2.65-8.45,12.57,12.57,0,0,1,2.4-7.4,16.35,16.35,0,0,1,6.8-5.4,24,24,0,0,1,10-2q8.8,0,14.2,4.45t5.8,12.25h-7a10.64,10.64,0,0,0-3.75-7.75q-3.45-3-9.45-2.95a13.85,13.85,0,0,0-8.6,2.5,7.52,7.52,0,0,0-3.3,6.2,7.32,7.32,0,0,0,1.95,5.25,13.43,13.43,0,0,0,4.85,3.2q2.91,1.16,7.8,2.55a73.65,73.65,0,0,1,9.4,3.1,16.23,16.23,0,0,1,6,4.4,11.72,11.72,0,0,1,2.6,7.7,13.42,13.42,0,0,1-2.4,7.85,16.28,16.28,0,0,1-6.7,5.45,23.24,23.24,0,0,1-9.9,2Q917.94,196.5,912,192.15Z"/><path class="cls-2" d="M959.43,129.3a5,5,0,0,1-1.5-3.7,4.86,4.86,0,0,1,1.5-3.65,5.19,5.19,0,0,1,7.2,0,4.86,4.86,0,0,1,1.5,3.65,5,5,0,0,1-1.5,3.7,5.07,5.07,0,0,1-7.2,0Zm7.1,11.8v54.6h-7V141.1Z"/><path class="cls-2" d="M991.53,147v33.9q0,5,1.9,6.9t6.7,1.9h6.4v6H999q-7.39,0-11-3.45t-3.6-11.35V147h-7.6v-5.9h7.6V127.4h7.1v13.7h15V147Z"/><path class="cls-2" d="M1067.23,171.1h-45.3a22,22,0,0,0,3,10.6,17.71,17.71,0,0,0,7.1,6.65,20.76,20.76,0,0,0,9.6,2.25,19.29,19.29,0,0,0,11.45-3.3,15.51,15.51,0,0,0,6.15-8.9h7.4a23.11,23.11,0,0,1-8.55,13q-6.55,5.06-16.45,5.05a27.56,27.56,0,0,1-13.8-3.45,24.36,24.36,0,0,1-9.55-9.8,30.62,30.62,0,0,1-3.45-14.85,31.26,31.26,0,0,1,3.4-14.9,23.63,23.63,0,0,1,9.5-9.8,28,28,0,0,1,13.9-3.4,26.64,26.64,0,0,1,13.65,3.4,23.54,23.54,0,0,1,9,9.15,26.08,26.08,0,0,1,3.15,12.75C1067.43,168,1067.36,169.83,1067.23,171.1Zm-9.35-16.1a16.55,16.55,0,0,0-7-6.5,21.1,21.1,0,0,0-9.6-2.2,19.09,19.09,0,0,0-13.3,5q-5.51,5-6.1,14.1h38.4A19.37,19.37,0,0,0,1057.88,155Z"/><path class="cls-2" d="M1083.68,192.15A15.85,15.85,0,0,1,1077,180.3h7.2a10.3,10.3,0,0,0,4.35,7.45c2.57,1.9,6,2.85,10.35,2.85q5.7,0,9-2.7a8.39,8.39,0,0,0,3.25-6.7,6.22,6.22,0,0,0-1.8-4.6,12.8,12.8,0,0,0-4.55-2.85,71,71,0,0,0-7.45-2.25,75.42,75.42,0,0,1-9.9-3.2,17,17,0,0,1-6.45-4.75,13.69,13.69,0,0,1-.25-15.85,16.28,16.28,0,0,1,6.8-5.4,23.93,23.93,0,0,1,10-2q8.81,0,14.2,4.45t5.8,12.25h-7a10.64,10.64,0,0,0-3.75-7.75q-3.45-3-9.45-2.95a13.83,13.83,0,0,0-8.6,2.5,7.52,7.52,0,0,0-3.3,6.2,7.32,7.32,0,0,0,2,5.25,13.34,13.34,0,0,0,4.85,3.2q2.89,1.16,7.8,2.55a74.74,74.74,0,0,1,9.4,3.1,16.4,16.4,0,0,1,6,4.4,11.82,11.82,0,0,1,2.6,7.7,13.42,13.42,0,0,1-2.4,7.85,16.34,16.34,0,0,1-6.7,5.45,23.3,23.3,0,0,1-9.9,2Q1089.63,196.5,1083.68,192.15Z"/><path class="cls-2" d="M1137.63,184.1l-10.4,26.2h-4.8l7.4-26.2Z"/><path class="cls-2" d="M112.19,291.9H73.49q.41,5.21,3.35,8a10.27,10.27,0,0,0,7.25,2.75q6.41,0,8.9-5.4h18.2a24.91,24.91,0,0,1-5,9.9A25.42,25.42,0,0,1,97,314a29.3,29.3,0,0,1-12.3,2.5,30,30,0,0,1-14.6-3.5,24.94,24.94,0,0,1-10-10,30.86,30.86,0,0,1-3.6-15.2A31.29,31.29,0,0,1,60,272.6a24.63,24.63,0,0,1,9.95-10,30.2,30.2,0,0,1,14.7-3.5,29.77,29.77,0,0,1,14.4,3.4,24.39,24.39,0,0,1,9.85,9.7,29.41,29.41,0,0,1,3.55,14.7A41.46,41.46,0,0,1,112.19,291.9ZM95,282.4a8.79,8.79,0,0,0-3-7,11.06,11.06,0,0,0-7.5-2.6,10.83,10.83,0,0,0-7.25,2.5,11.15,11.15,0,0,0-3.65,7.1Z"/><path class="cls-2" d="M131.19,314a22.23,22.23,0,0,1-9-6.85,18,18,0,0,1-3.7-9.75h16.9a6.5,6.5,0,0,0,2.7,4.7,9.56,9.56,0,0,0,5.9,1.8,8.42,8.42,0,0,0,4.95-1.25,3.82,3.82,0,0,0,1.75-3.25,3.75,3.75,0,0,0-2.5-3.55,49.38,49.38,0,0,0-8.1-2.55,76.2,76.2,0,0,1-10-2.95,17.37,17.37,0,0,1-6.9-4.9q-2.89-3.34-2.9-9.05a15.41,15.41,0,0,1,2.65-8.75,17.88,17.88,0,0,1,7.8-6.25A30,30,0,0,1,143,259.1q10.5,0,16.55,5.2a20.22,20.22,0,0,1,7,13.8h-15.8a6.76,6.76,0,0,0-2.55-4.6,8.85,8.85,0,0,0-5.65-1.7,7.79,7.79,0,0,0-4.6,1.15,3.7,3.7,0,0,0-1.6,3.15,3.85,3.85,0,0,0,2.55,3.6,40.84,40.84,0,0,0,7.95,2.4,87.87,87.87,0,0,1,10.1,3.15,17.34,17.34,0,0,1,6.85,5q3,3.45,3,9.25a14.64,14.64,0,0,1-2.75,8.75,18.13,18.13,0,0,1-7.9,6.05,30.12,30.12,0,0,1-11.95,2.2A32,32,0,0,1,131.19,314Z"/><path class="cls-2" d="M208.39,301.2v14.5h-8.7q-9.3,0-14.5-4.55T180,296.3V274.1h-6.8V259.9H180V246.3h17.1v13.6h11.2v14.2h-11.2v22.4a4.68,4.68,0,0,0,1.2,3.6,5.89,5.89,0,0,0,4,1.1Z"/><path class="cls-2" d="M217.74,272.6a24.29,24.29,0,0,1,8.85-10,23.15,23.15,0,0,1,12.5-3.5,21.44,21.44,0,0,1,10.35,2.4,17.66,17.66,0,0,1,6.85,6.3v-7.9h17.1v55.8h-17.1v-7.9a18.39,18.39,0,0,1-7,6.3A21.44,21.44,0,0,1,239,316.5a22.69,22.69,0,0,1-12.4-3.55,24.58,24.58,0,0,1-8.85-10.1,33.77,33.77,0,0,1-3.25-15.15A33.44,33.44,0,0,1,217.74,272.6Zm35,5.1a11.51,11.51,0,0,0-8.65-3.7,11.63,11.63,0,0,0-8.65,3.65q-3.54,3.64-3.55,10.05t3.55,10.15a11.91,11.91,0,0,0,17.3,0q3.56-3.7,3.55-10.1T252.74,277.7Zm4.85-31.7-24.1,10.1V244.3l24.1-11.6Z"/><path class="cls-2" d="M359.29,291.9h-38.7c.27,3.47,1.38,6.12,3.35,8a10.25,10.25,0,0,0,7.25,2.75q6.4,0,8.9-5.4h18.2a24.93,24.93,0,0,1-5.05,9.9,25.3,25.3,0,0,1-9.15,6.9,29.36,29.36,0,0,1-12.3,2.5,30,30,0,0,1-14.6-3.5,24.87,24.87,0,0,1-10-10,30.86,30.86,0,0,1-3.6-15.2,31.18,31.18,0,0,1,3.55-15.2,24.57,24.57,0,0,1,9.95-10,30.2,30.2,0,0,1,14.7-3.5,29.8,29.8,0,0,1,14.4,3.4,24.45,24.45,0,0,1,9.85,9.7,29.41,29.41,0,0,1,3.55,14.7A43.61,43.61,0,0,1,359.29,291.9Zm-17.2-9.5a8.79,8.79,0,0,0-3-7,11.06,11.06,0,0,0-7.5-2.6,10.81,10.81,0,0,0-7.25,2.5,11.1,11.1,0,0,0-3.65,7.1Z"/><path class="cls-2" d="M418.24,265.65q5.85,6.35,5.85,17.45v32.6h-17V285.4q0-5.59-2.9-8.7a11.36,11.36,0,0,0-15.6,0q-2.89,3.1-2.9,8.7v30.3h-17.1V259.9h17.1v7.4a18,18,0,0,1,7-5.85,22.28,22.28,0,0,1,9.9-2.15Q412.39,259.3,418.24,265.65Z"/><path class="cls-2" d="M512.29,259.9v55.8h-17.1v-7.6a18.76,18.76,0,0,1-7.05,5.95,21.52,21.52,0,0,1-9.85,2.25,22.06,22.06,0,0,1-11.3-2.85,19.2,19.2,0,0,1-7.6-8.25,28.07,28.07,0,0,1-2.7-12.7V259.9h17v30.3q0,5.6,2.9,8.7a10.15,10.15,0,0,0,7.8,3.1,10.3,10.3,0,0,0,7.9-3.1q2.9-3.11,2.9-8.7V259.9Z"/><path class="cls-2" d="M574.24,265.65q5.85,6.35,5.85,17.45v32.6h-17V285.4q0-5.59-2.9-8.7a11.36,11.36,0,0,0-15.6,0c-1.94,2.07-2.9,5-2.9,8.7v30.3h-17.1V259.9h17.1v7.4a17.91,17.91,0,0,1,7-5.85,22.28,22.28,0,0,1,9.9-2.15Q568.39,259.3,574.24,265.65Z"/><path class="cls-2" d="M622.89,314a22.23,22.23,0,0,1-9-6.85,18,18,0,0,1-3.7-9.75h16.9a6.5,6.5,0,0,0,2.7,4.7,9.54,9.54,0,0,0,5.9,1.8,8.46,8.46,0,0,0,4.95-1.25,3.84,3.84,0,0,0,1.75-3.25,3.76,3.76,0,0,0-2.5-3.55,50,50,0,0,0-8.1-2.55,75.74,75.74,0,0,1-10-2.95,17.23,17.23,0,0,1-6.9-4.9c-1.94-2.23-2.9-5.25-2.9-9.05a15.33,15.33,0,0,1,2.65-8.75,17.77,17.77,0,0,1,7.8-6.25,29.89,29.89,0,0,1,12.25-2.3q10.5,0,16.55,5.2a20.26,20.26,0,0,1,7,13.8h-15.8a6.84,6.84,0,0,0-2.55-4.6,8.88,8.88,0,0,0-5.65-1.7,7.77,7.77,0,0,0-4.6,1.15,3.67,3.67,0,0,0-1.6,3.15,3.85,3.85,0,0,0,2.55,3.6,40.84,40.84,0,0,0,8,2.4,88.5,88.5,0,0,1,10.1,3.15,17.41,17.41,0,0,1,6.85,5q2.94,3.45,3,9.25a14.7,14.7,0,0,1-2.75,8.75,18.25,18.25,0,0,1-7.9,6.05,30.19,30.19,0,0,1-12,2.2A32,32,0,0,1,622.89,314Z"/><path class="cls-2" d="M679.64,313a25.61,25.61,0,0,1-10.3-10,32.39,32.39,0,0,1,0-30.35,25.72,25.72,0,0,1,10.4-10,33,33,0,0,1,29.6,0,25.78,25.78,0,0,1,10.4,10,31.92,31.92,0,0,1,0,30.3A26,26,0,0,1,709.24,313a31.47,31.47,0,0,1-14.85,3.5A30.81,30.81,0,0,1,679.64,313Zm23.1-14.9q3.45-3.6,3.45-10.3t-3.35-10.3a11.36,11.36,0,0,0-16.55-.05Q683,281,683,287.8t3.25,10.3a10.5,10.5,0,0,0,8.15,3.6A11.15,11.15,0,0,0,702.74,298.1Z"/><path class="cls-2" d="M749.79,241.7v74h-17.1v-74Z"/><path class="cls-2" d="M772.84,313a25.61,25.61,0,0,1-10.3-10,32.39,32.39,0,0,1,.05-30.35,25.72,25.72,0,0,1,10.4-10,33,33,0,0,1,29.6,0,25.78,25.78,0,0,1,10.4,10,31.92,31.92,0,0,1,0,30.3A26,26,0,0,1,802.44,313a31.47,31.47,0,0,1-14.85,3.5A30.81,30.81,0,0,1,772.84,313Zm23.1-14.9q3.45-3.6,3.45-10.3T796,277.5a11.36,11.36,0,0,0-16.55-.05q-3.3,3.56-3.3,10.35t3.25,10.3a10.5,10.5,0,0,0,8.15,3.6A11.15,11.15,0,0,0,795.94,298.1Z"/><path class="cls-2" d="M864.19,241.7v74h-17.1v-74Z"/><path class="cls-2" d="M931.69,259.9v55.8h-17.1v-7.6a18.84,18.84,0,0,1-7.05,5.95,21.52,21.52,0,0,1-9.85,2.25,22,22,0,0,1-11.3-2.85,19.2,19.2,0,0,1-7.6-8.25,27.93,27.93,0,0,1-2.7-12.7V259.9h17v30.3q0,5.6,2.89,8.7a10.18,10.18,0,0,0,7.81,3.1,10.3,10.3,0,0,0,7.9-3.1q2.89-3.11,2.9-8.7V259.9Z"/><path class="cls-2" d="M975.53,261.5a17.66,17.66,0,0,1,6.85,6.3v-7.9h17.1v55.7a31.45,31.45,0,0,1-3,13.95,23.29,23.29,0,0,1-9.31,9.95q-6.24,3.71-15.55,3.7-12.39,0-20.1-5.85a22.06,22.06,0,0,1-8.79-15.85h16.89a8.11,8.11,0,0,0,3.8,5.05,13.89,13.89,0,0,0,7.4,1.85,11.63,11.63,0,0,0,8.45-3q3.15-3,3.15-9.75v-7.9a18.83,18.83,0,0,1-6.9,6.35,20.83,20.83,0,0,1-10.29,2.45,22.8,22.8,0,0,1-12.5-3.55,24.53,24.53,0,0,1-8.86-10.1,33.77,33.77,0,0,1-3.25-15.15,33.44,33.44,0,0,1,3.25-15.1,24.24,24.24,0,0,1,8.86-10,23.1,23.1,0,0,1,12.5-3.5A21.42,21.42,0,0,1,975.53,261.5Zm3.3,16.2a11.51,11.51,0,0,0-8.64-3.7,11.63,11.63,0,0,0-8.66,3.65Q958,281.29,958,287.7t3.55,10.15a11.91,11.91,0,0,0,17.3,0q3.55-3.7,3.55-10.1T978.83,277.7Z"/><path class="cls-2" d="M1011.73,272.6a24.29,24.29,0,0,1,8.85-10,23.15,23.15,0,0,1,12.5-3.5,21.44,21.44,0,0,1,10.35,2.4,17.66,17.66,0,0,1,6.85,6.3v-7.9h17.1v55.8h-17.1v-7.9a18.39,18.39,0,0,1-7,6.3,21.44,21.44,0,0,1-10.35,2.4,22.69,22.69,0,0,1-12.4-3.55,24.58,24.58,0,0,1-8.85-10.1,33.77,33.77,0,0,1-3.25-15.15A33.44,33.44,0,0,1,1011.73,272.6Zm35,5.1a11.51,11.51,0,0,0-8.65-3.7,11.63,11.63,0,0,0-8.65,3.65q-3.54,3.64-3.55,10.05t3.55,10.15a11.91,11.91,0,0,0,17.3,0q3.55-3.7,3.55-10.1T1046.73,277.7Z"/><path class="cls-2" d="M1104.38,262a19.3,19.3,0,0,1,10-2.65v18.1h-4.7c-4.26,0-7.47.92-9.6,2.75s-3.2,5.05-3.2,9.65v25.9h-17.1V259.9h17.1v9.3A22.56,22.56,0,0,1,1104.38,262Z"/><path class="cls-2" d="M1123.23,313.85a8.59,8.59,0,0,1-2.85-6.55,8.85,8.85,0,0,1,2.85-6.7,10.25,10.25,0,0,1,7.35-2.7,10.12,10.12,0,0,1,7.25,2.7,8.85,8.85,0,0,1,2.85,6.7,8.59,8.59,0,0,1-2.85,6.55,10.22,10.22,0,0,1-7.25,2.65A10.35,10.35,0,0,1,1123.23,313.85Z"/><path d="M322.54,412.18a16.11,16.11,0,0,1,6.59,6.34,20.05,20.05,0,0,1,0,18.8,16.05,16.05,0,0,1-6.62,6.36,21,21,0,0,1-9.92,2.26H299.1v-36h13.49A21,21,0,0,1,322.54,412.18Zm-2.77,23.44q2.78-2.72,2.77-7.69t-2.77-7.75c-1.85-1.84-4.43-2.77-7.75-2.77h-4.15v20.93H312C315.34,438.34,317.92,437.44,319.77,435.62Z"/><path d="M344.11,443.94a17.74,17.74,0,0,1-6.72-6.6,19.37,19.37,0,0,1,0-19,17.66,17.66,0,0,1,6.72-6.57,19.54,19.54,0,0,1,18.62,0,17.26,17.26,0,0,1,6.67,6.57,19.64,19.64,0,0,1,0,19,17.61,17.61,0,0,1-6.67,6.6,19.58,19.58,0,0,1-18.6,0Zm16.21-8.52a12.46,12.46,0,0,0,0-15.21,8.85,8.85,0,0,0-6.9-2.85,9,9,0,0,0-6.95,2.82,12.53,12.53,0,0,0,0,15.26,8.94,8.94,0,0,0,6.95,2.85A8.83,8.83,0,0,0,360.32,435.42Z"/><path d="M417.5,409.92v36h-8.78v-21.6l-8.05,21.6h-7.08l-8.11-21.65v21.65h-8.77v-36h10.37l10.1,24.93,10-24.93Z"/><path d="M432.58,409.92v36h-8.77v-36Z"/><path d="M439.76,418.36a16.46,16.46,0,0,1,6.44-6.51,18.63,18.63,0,0,1,9.36-2.34,17.89,17.89,0,0,1,11,3.39,16.24,16.24,0,0,1,6.1,9.23H463A7.81,7.81,0,0,0,460,418.7a8.58,8.58,0,0,0-4.49-1.18,8.4,8.4,0,0,0-6.57,2.82,12.58,12.58,0,0,0,0,15.08,8.4,8.4,0,0,0,6.57,2.82,8.58,8.58,0,0,0,4.49-1.18,7.83,7.83,0,0,0,3.05-3.44h9.64a16.12,16.12,0,0,1-6.1,9.21,18,18,0,0,1-11,3.36,18.73,18.73,0,0,1-9.36-2.33,16.6,16.6,0,0,1-6.44-6.49,20.71,20.71,0,0,1,0-19Z"/><path d="M486.8,409.92v36H478v-36Z"/><path d="M501.94,439.16h11.49v6.78H493.16v-36h8.78Z"/><path d="M526.41,409.92v36h-8.78v-36Z"/><path d="M540.49,443.94a17.74,17.74,0,0,1-6.72-6.6,19.37,19.37,0,0,1,0-19,17.66,17.66,0,0,1,6.72-6.57,19.54,19.54,0,0,1,18.62,0,17.26,17.26,0,0,1,6.67,6.57,19.61,19.61,0,0,1,0,19,17.58,17.58,0,0,1-6.66,6.6,19.58,19.58,0,0,1-18.6,0Zm16.21-8.52a12.46,12.46,0,0,0,0-15.21,8.88,8.88,0,0,0-6.9-2.85,9,9,0,0,0-6.95,2.82,12.53,12.53,0,0,0,0,15.26,9.81,9.81,0,0,0,13.85,0Z"/><path d="M579,445a11.52,11.52,0,0,1-5-3.79,10.4,10.4,0,0,1-2-6.06h9.34a4.56,4.56,0,0,0,1.39,3.06,4.43,4.43,0,0,0,3.07,1,4.81,4.81,0,0,0,3.08-.9,3,3,0,0,0,1.13-2.49,3,3,0,0,0-.9-2.21,7.34,7.34,0,0,0-2.2-1.43,36.27,36.27,0,0,0-3.72-1.28,40.3,40.3,0,0,1-5.7-2.16,10.54,10.54,0,0,1-3.79-3.18,8.86,8.86,0,0,1-1.59-5.49,9.42,9.42,0,0,1,3.64-7.87,15,15,0,0,1,9.49-2.85q6,0,9.59,2.85a10.17,10.17,0,0,1,3.9,7.92H589.3a3.74,3.74,0,0,0-1.28-2.74,4.52,4.52,0,0,0-3-1,3.78,3.78,0,0,0-2.56.84,3.07,3.07,0,0,0-1,2.44,3,3,0,0,0,1.64,2.72,27.09,27.09,0,0,0,5.13,2.1,47.16,47.16,0,0,1,5.67,2.26,10.73,10.73,0,0,1,3.77,3.13,8.38,8.38,0,0,1,1.59,5.28,10.41,10.41,0,0,1-1.56,5.6,11,11,0,0,1-4.54,4,15.6,15.6,0,0,1-7,1.48A18.46,18.46,0,0,1,579,445Z"/><path d="M639.42,421.31a6.5,6.5,0,0,0-2.8-2.74,9,9,0,0,0-4.28-.95,8.81,8.81,0,0,0-6.82,2.79,10.64,10.64,0,0,0-2.57,7.47q0,5,2.7,7.77a9.81,9.81,0,0,0,7.41,2.8,8.92,8.92,0,0,0,5.46-1.65,9.22,9.22,0,0,0,3.26-4.72H630.65v-6.46h19.08v8.16a17.11,17.11,0,0,1-3.31,6.1,17.41,17.41,0,0,1-5.92,4.57,18.39,18.39,0,0,1-8.11,1.74,19.22,19.22,0,0,1-9.51-2.33,16.67,16.67,0,0,1-6.52-6.49,20.55,20.55,0,0,1,0-19,16.58,16.58,0,0,1,6.49-6.51,19,19,0,0,1,9.49-2.34,18.48,18.48,0,0,1,10.9,3.13,14.8,14.8,0,0,1,5.88,8.67Z"/><path d="M673,445.94l-7.49-13.6h-2.1v13.6h-8.77v-36h14.72a16.23,16.23,0,0,1,7.26,1.49,10.28,10.28,0,0,1,4.49,4.08,11.4,11.4,0,0,1,1.48,5.77,10.72,10.72,0,0,1-2,6.41,10.89,10.89,0,0,1-6,4l8.31,14.27Zm-9.59-19.81h5.44a5,5,0,0,0,3.61-1.18,4.41,4.41,0,0,0,1.21-3.33,4.28,4.28,0,0,0-1.21-3.23,5,5,0,0,0-3.61-1.18h-5.44Z"/><path d="M710.47,439.57H697l-2.15,6.37h-9.19l13-36h10.16l13,36h-9.28Zm-2.26-6.77-4.46-13.18-4.41,13.18Z"/><path d="M751.77,409.92v7h-9.54v29h-8.78V417h-9.54v-7Z"/><path d="M764.8,409.92v21.55a7.16,7.16,0,0,0,1.59,5,6,6,0,0,0,4.67,1.74,6.19,6.19,0,0,0,4.72-1.74,7,7,0,0,0,1.64-5V409.92h8.77v21.5a15.24,15.24,0,0,1-2.05,8.15,13.13,13.13,0,0,1-5.52,5,17.32,17.32,0,0,1-7.72,1.69,16.93,16.93,0,0,1-7.62-1.66,12.43,12.43,0,0,1-5.31-5,16.05,16.05,0,0,1-1.94-8.18v-21.5Z"/><path d="M801.12,409.92v36h-8.77v-36Z"/><path d="M833.39,409.92v7h-9.55v29h-8.77V417h-9.54v-7Z"/><path d="M845.52,443.94a17.74,17.74,0,0,1-6.72-6.6,19.37,19.37,0,0,1,0-19,17.66,17.66,0,0,1,6.72-6.57,19.54,19.54,0,0,1,18.62,0,17.32,17.32,0,0,1,6.67,6.57,19.61,19.61,0,0,1,0,19,17.54,17.54,0,0,1-6.67,6.6,19.56,19.56,0,0,1-18.59,0Zm16.21-8.52a12.46,12.46,0,0,0,0-15.21,9.88,9.88,0,0,0-13.85,0,12.53,12.53,0,0,0,0,15.26,9.81,9.81,0,0,0,13.85,0Z"/><path d="M884.07,445a11.52,11.52,0,0,1-5-3.79,10.4,10.4,0,0,1-2-6.06h9.34a4.6,4.6,0,0,0,1.38,3.06,4.48,4.48,0,0,0,3.08,1,4.81,4.81,0,0,0,3.08-.9,3,3,0,0,0,1.13-2.49,3,3,0,0,0-.9-2.21,7.34,7.34,0,0,0-2.2-1.43,36.27,36.27,0,0,0-3.72-1.28,40.3,40.3,0,0,1-5.7-2.16,10.54,10.54,0,0,1-3.79-3.18,8.86,8.86,0,0,1-1.59-5.49,9.42,9.42,0,0,1,3.64-7.87,15,15,0,0,1,9.49-2.85q6,0,9.59,2.85a10.17,10.17,0,0,1,3.9,7.92h-9.49a3.74,3.74,0,0,0-1.28-2.74,4.52,4.52,0,0,0-3-1,3.76,3.76,0,0,0-2.56.84,3.07,3.07,0,0,0-1,2.44,3,3,0,0,0,1.64,2.72,27.09,27.09,0,0,0,5.13,2.1,47.16,47.16,0,0,1,5.67,2.26,10.82,10.82,0,0,1,3.77,3.13,8.38,8.38,0,0,1,1.59,5.28,10.41,10.41,0,0,1-1.56,5.6,11,11,0,0,1-4.54,4,15.6,15.6,0,0,1-7,1.48A18.46,18.46,0,0,1,884.07,445Z"/><path class="cls-2" d="M423.12,635.58a21.44,21.44,0,1,0-24.77,21.18v-15h-5.47v-6.19h5.47v-4.72c0-5.37,3.18-8.35,8.08-8.35a30.45,30.45,0,0,1,4.78.45v5.24h-2.69c-2.66,0-3.51,1.66-3.51,3.36v4h6l-1,6.19h-5v15A21.44,21.44,0,0,0,423.12,635.58Z"/><path class="cls-2" d="M455.69,619.9c5.56,0,6.22,0,8.41.12a11.37,11.37,0,0,1,3.87.72,6.94,6.94,0,0,1,3.95,4,11.57,11.57,0,0,1,.72,3.87c.1,2.19.12,2.85.12,8.41s0,6.22-.12,8.41a11.57,11.57,0,0,1-.72,3.87,6.94,6.94,0,0,1-3.95,4,11.37,11.37,0,0,1-3.87.72c-2.19.1-2.85.12-8.41.12s-6.22,0-8.41-.12a11.32,11.32,0,0,1-3.87-.72,6.4,6.4,0,0,1-2.39-1.56,6.48,6.48,0,0,1-1.56-2.39,11.32,11.32,0,0,1-.72-3.87c-.1-2.19-.12-2.85-.12-8.41s0-6.22.12-8.41a11.32,11.32,0,0,1,.72-3.87A6.48,6.48,0,0,1,441,622.3a6.4,6.4,0,0,1,2.39-1.56,11.32,11.32,0,0,1,3.87-.72c2.19-.1,2.85-.12,8.41-.12m0-3.75c-5.66,0-6.36,0-8.59.12a15.62,15.62,0,0,0-5.05,1,10.62,10.62,0,0,0-6.09,6.09,15.42,15.42,0,0,0-1,5.06c-.1,2.22-.12,2.93-.12,8.58s0,6.36.12,8.58a15.42,15.42,0,0,0,1,5.06,10.62,10.62,0,0,0,6.09,6.09,15.62,15.62,0,0,0,5.05,1c2.23.1,2.93.12,8.59.12s6.36,0,8.58-.12a15.68,15.68,0,0,0,5.06-1,10.29,10.29,0,0,0,3.69-2.4,10.43,10.43,0,0,0,2.4-3.69,15.45,15.45,0,0,0,1-5.06c.11-2.22.13-2.93.13-8.58s0-6.36-.13-8.58a15.45,15.45,0,0,0-1-5.06,10.43,10.43,0,0,0-2.4-3.69,10.29,10.29,0,0,0-3.69-2.4,15.68,15.68,0,0,0-5.06-1c-2.22-.1-2.93-.12-8.58-.12Z"/><path class="cls-2" d="M455.69,626.28A10.69,10.69,0,1,0,466.38,637,10.69,10.69,0,0,0,455.69,626.28Zm0,17.63a6.94,6.94,0,1,1,6.94-6.94A6.94,6.94,0,0,1,455.69,643.91Z"/><circle class="cls-2" cx="466.8" cy="625.86" r="2.5"/><path class="cls-2" d="M520.53,625A10.24,10.24,0,0,1,524.9,629a11.88,11.88,0,0,1,1.5,6.05,14.92,14.92,0,0,1-.95,5.28,10.14,10.14,0,0,1-2.72,4.1,6.11,6.11,0,0,1-4.2,1.59,4.4,4.4,0,0,1-2.76-.78,3.36,3.36,0,0,1-1.24-2.19,7.74,7.74,0,0,1-6.07,3,5.42,5.42,0,0,1-4.16-1.6,6.15,6.15,0,0,1-1.5-4.37,11.3,11.3,0,0,1,1.09-4.9,9.13,9.13,0,0,1,3.05-3.64,7.65,7.65,0,0,1,4.42-1.36,4.49,4.49,0,0,1,4.21,2l.31-1.73h3.41l-1.72,9.87a9.08,9.08,0,0,0-.11,1.27,2.13,2.13,0,0,0,.37,1.35,1.57,1.57,0,0,0,1.29.45,2.7,2.7,0,0,0,2.24-1.3,9.08,9.08,0,0,0,1.4-3.19,15.43,15.43,0,0,0,.47-3.69q0-4.38-2.56-6.69t-7.41-2.31a13.9,13.9,0,0,0-7.3,1.93,13.58,13.58,0,0,0-5,5.31,15.56,15.56,0,0,0-1.83,7.52q0,4.43,2.62,6.73t7.48,2.31a12.73,12.73,0,0,0,5.73-1.21l.52,2.63a17.82,17.82,0,0,1-7,1.34,14.6,14.6,0,0,1-6.59-1.41,10.52,10.52,0,0,1-4.38-4,11.67,11.67,0,0,1-1.55-6.06,18,18,0,0,1,2.29-9,16.88,16.88,0,0,1,6.37-6.43,17.94,17.94,0,0,1,9.21-2.37A14.91,14.91,0,0,1,520.53,625Zm-8.22,17.2a5.9,5.9,0,0,0,1.88-2.24,6.66,6.66,0,0,0,.69-3,4,4,0,0,0-.92-2.71,3.22,3.22,0,0,0-2.57-1,4,4,0,0,0-2.6.92,6,6,0,0,0-1.73,2.36,7.89,7.89,0,0,0-.6,3,3.89,3.89,0,0,0,.79,2.57,3,3,0,0,0,2.42.94A4.5,4.5,0,0,0,512.31,642.18Z"/><path class="cls-2" d="M533.06,645.46a6.09,6.09,0,0,1-2.56-1.9,4.52,4.52,0,0,1-.93-2.81,6.84,6.84,0,0,1,.07-.76h3.83a2.45,2.45,0,0,0,.79,2.17,3.72,3.72,0,0,0,2.63.86,5.62,5.62,0,0,0,2.72-.58,1.88,1.88,0,0,0,1.07-1.73,1.78,1.78,0,0,0-.88-1.55,14.31,14.31,0,0,0-2.81-1.31,25.89,25.89,0,0,1-3-1.35,6.1,6.1,0,0,1-2-1.7,4.31,4.31,0,0,1-.83-2.71,4.67,4.67,0,0,1,.95-2.92,6.19,6.19,0,0,1,2.65-2,10.23,10.23,0,0,1,3.92-.71,9,9,0,0,1,3.57.67,5.68,5.68,0,0,1,2.45,1.9,4.67,4.67,0,0,1,.88,2.81,4.49,4.49,0,0,1,0,.73h-3.72a2.44,2.44,0,0,0-.78-2.18,3.76,3.76,0,0,0-2.6-.83,4.15,4.15,0,0,0-2.4.63,1.92,1.92,0,0,0-.91,1.69,2,2,0,0,0,.93,1.7A14.31,14.31,0,0,0,539,635a23.73,23.73,0,0,1,2.86,1.31,6.28,6.28,0,0,1,1.9,1.66,4.11,4.11,0,0,1,.8,2.58,4.52,4.52,0,0,1-1,2.95,6.47,6.47,0,0,1-2.81,1.94,11.79,11.79,0,0,1-4.08.67A9.39,9.39,0,0,1,533.06,645.46Z"/><path class="cls-2" d="M565.33,628.5a7.06,7.06,0,0,1,2.12,5.38,13.27,13.27,0,0,1-.17,1.9,15.14,15.14,0,0,1-.48,1.86H552.27a6.53,6.53,0,0,0,0,.73,4.28,4.28,0,0,0,1.26,3.24,4.53,4.53,0,0,0,3.29,1.21,5.54,5.54,0,0,0,4.93-2.66H566a10.94,10.94,0,0,1-3.87,4.3,10.53,10.53,0,0,1-5.89,1.67,9,9,0,0,1-4.18-.93,6.62,6.62,0,0,1-2.79-2.68,8,8,0,0,1-1-4.08,12.73,12.73,0,0,1,.2-2.14,12.5,12.5,0,0,1,2.11-5.16,10.84,10.84,0,0,1,4-3.43,11.08,11.08,0,0,1,5.16-1.21A8,8,0,0,1,565.33,628.5Zm-1.91,5.42a3.77,3.77,0,0,0-1.26-3,4.76,4.76,0,0,0-3.26-1.11,5.93,5.93,0,0,0-3.8,1.35,6.68,6.68,0,0,0-2.31,3.65h10.56C563.39,634.4,563.42,634.1,563.42,633.92Z"/><path class="cls-2" d="M577.8,620.29l-4.52,25.53h-3.93l4.52-25.53Z"/><path class="cls-2" d="M595.72,628.5a7,7,0,0,1,2.12,5.38,12,12,0,0,1-.17,1.9,15.14,15.14,0,0,1-.48,1.86H582.66a6.53,6.53,0,0,0,0,.73,4.28,4.28,0,0,0,1.26,3.24,4.54,4.54,0,0,0,3.29,1.21,5.55,5.55,0,0,0,4.94-2.66h4.24a10.91,10.91,0,0,1-3.86,4.3,10.58,10.58,0,0,1-5.9,1.67,9,9,0,0,1-4.18-.93,6.73,6.73,0,0,1-2.79-2.68,8,8,0,0,1-1-4.08,11.82,11.82,0,0,1,.21-2.14,12.35,12.35,0,0,1,2.1-5.16,10.84,10.84,0,0,1,3.95-3.43,11.08,11.08,0,0,1,5.16-1.21A7.93,7.93,0,0,1,595.72,628.5Zm-1.91,5.42a3.77,3.77,0,0,0-1.26-3,4.76,4.76,0,0,0-3.26-1.11,6,6,0,0,0-3.8,1.35,6.79,6.79,0,0,0-2.31,3.65h10.56C593.78,634.4,593.81,634.1,593.81,633.92Z"/><path class="cls-2" d="M602.21,631.14a10.79,10.79,0,0,1,8.95-4.64,8.25,8.25,0,0,1,5.42,1.64,6.58,6.58,0,0,1,2.24,4.67h-4.25a3.51,3.51,0,0,0-1.27-2.2,4.29,4.29,0,0,0-2.73-.8,5.67,5.67,0,0,0-4.14,1.71,8.62,8.62,0,0,0-2.27,4.78,11.54,11.54,0,0,0-.18,1.79,4.93,4.93,0,0,0,1.14,3.5,4.12,4.12,0,0,0,3.18,1.23,5.35,5.35,0,0,0,5-3h4.25a11,11,0,0,1-3.92,4.6,10.49,10.49,0,0,1-5.95,1.71,7.79,7.79,0,0,1-5.69-2,7.41,7.41,0,0,1-2.11-5.57,12.14,12.14,0,0,1,.21-2.21A12.61,12.61,0,0,1,602.21,631.14Z"/><path class="cls-2" d="M626,640.54a5,5,0,0,0-.07.62,1.2,1.2,0,0,0,.45,1.05,2.55,2.55,0,0,0,1.48.33h2.42l-.59,3.28h-3.1a5.71,5.71,0,0,1-3.49-.92,3.42,3.42,0,0,1-1.21-2.91,7.51,7.51,0,0,1,.14-1.45L623.85,630h-2.24l.55-3.21h2.28l.83-4.73h4l-.83,4.73H633l-.56,3.21h-4.62Z"/><path class="cls-2" d="M637.34,645.13a7,7,0,0,1-2.84-2.83,8.42,8.42,0,0,1-1-4.17,11.73,11.73,0,0,1,1.5-5.87,11.23,11.23,0,0,1,4.14-4.21A11.43,11.43,0,0,1,645,626.5a8.77,8.77,0,0,1,4.28,1,7.4,7.4,0,0,1,2.91,2.83,8.08,8.08,0,0,1,1.06,4.19,11.53,11.53,0,0,1-5.76,10.05,11.55,11.55,0,0,1-5.9,1.54A8.7,8.7,0,0,1,637.34,645.13Zm8.33-3.43a7.72,7.72,0,0,0,2.57-3,8.55,8.55,0,0,0,.94-4,4.83,4.83,0,0,0-1.35-3.67,4.65,4.65,0,0,0-3.38-1.3,6.06,6.06,0,0,0-3.57,1.12,7.56,7.56,0,0,0-2.45,3,9.36,9.36,0,0,0-.88,4,4.89,4.89,0,0,0,1.26,3.59,4.39,4.39,0,0,0,3.26,1.28A6.28,6.28,0,0,0,645.67,641.7Z"/><path class="cls-2" d="M664.46,623.15a3.57,3.57,0,0,0-1.14,2.31l-.24,1.35h3.52L666,630h-3.51l-2.8,15.8h-4l2.8-15.8h-2.24l.55-3.21h2.24l.24-1.35a7.29,7.29,0,0,1,2.59-4.77,9.4,9.4,0,0,1,5.73-1.5l-.56,3.27A4.2,4.2,0,0,0,664.46,623.15Z"/><path class="cls-2" d="M676.2,627.47a6.74,6.74,0,0,1,3.57-1l-.72,4.07h-1a5.56,5.56,0,0,0-3.66,1.14,6.61,6.61,0,0,0-1.93,3.93l-1.79,10.18h-3.94l3.35-19H674l-.58,3.35A8.85,8.85,0,0,1,676.2,627.47Z"/><path class="cls-2" d="M697.25,628.5a7.06,7.06,0,0,1,2.12,5.38,13.27,13.27,0,0,1-.17,1.9,17.55,17.55,0,0,1-.49,1.86H684.19a6.53,6.53,0,0,0,0,.73,4.27,4.27,0,0,0,1.25,3.24,4.55,4.55,0,0,0,3.3,1.21,5.54,5.54,0,0,0,4.93-2.66h4.25a11,11,0,0,1-3.87,4.3,10.56,10.56,0,0,1-5.9,1.67,8.93,8.93,0,0,1-4.17-.93,6.7,6.7,0,0,1-2.8-2.68,8.11,8.11,0,0,1-1-4.08,11.82,11.82,0,0,1,.21-2.14,12.62,12.62,0,0,1,2.1-5.16,10.92,10.92,0,0,1,3.95-3.43,11.14,11.14,0,0,1,5.16-1.21A8,8,0,0,1,697.25,628.5Zm-1.92,5.42a3.77,3.77,0,0,0-1.26-3,4.74,4.74,0,0,0-3.26-1.11,5.93,5.93,0,0,0-3.79,1.35,6.68,6.68,0,0,0-2.31,3.65h10.55A8,8,0,0,0,695.33,633.92Z"/><path class="cls-2" d="M704.68,645.46a6,6,0,0,1-2.55-1.9,4.52,4.52,0,0,1-.93-2.81,5,5,0,0,1,.07-.76h3.83a2.43,2.43,0,0,0,.79,2.17,3.68,3.68,0,0,0,2.62.86,5.69,5.69,0,0,0,2.73-.58,1.88,1.88,0,0,0,1.07-1.73,1.8,1.8,0,0,0-.88-1.55,14.75,14.75,0,0,0-2.82-1.31,25.64,25.64,0,0,1-3-1.35,6.14,6.14,0,0,1-2-1.7,4.37,4.37,0,0,1-.83-2.71,4.73,4.73,0,0,1,.95-2.92,6.16,6.16,0,0,1,2.66-2,10.17,10.17,0,0,1,3.91-.71,8.91,8.91,0,0,1,3.57.67,5.62,5.62,0,0,1,2.45,1.9,4.67,4.67,0,0,1,.88,2.81,6.53,6.53,0,0,1,0,.73h-3.73a2.44,2.44,0,0,0-.77-2.18,3.77,3.77,0,0,0-2.61-.83,4.15,4.15,0,0,0-2.4.63,1.92,1.92,0,0,0-.91,1.69,2,2,0,0,0,.93,1.7,14.59,14.59,0,0,0,2.86,1.4,24,24,0,0,1,2.87,1.31,6.4,6.4,0,0,1,1.9,1.66,4.17,4.17,0,0,1,.79,2.58,4.52,4.52,0,0,1-1,2.95,6.41,6.41,0,0,1-2.81,1.94,11.73,11.73,0,0,1-4.07.67A9.45,9.45,0,0,1,704.68,645.46Z"/><path class="cls-2" d="M737.52,628.1a6,6,0,0,1,1.73,4.57,14,14,0,0,1-.17,1.94l-2,11.21h-3.89l1.89-10.63a9.77,9.77,0,0,0,.14-1.38,3.79,3.79,0,0,0-1.05-2.89,4,4,0,0,0-2.92-1,5.46,5.46,0,0,0-3.77,1.36,6.33,6.33,0,0,0-2,3.91v-.07l-1.9,10.7h-3.93l4.52-25.53h3.93L726.59,629a8.14,8.14,0,0,1,2.86-1.86,9.32,9.32,0,0,1,3.48-.66A6.47,6.47,0,0,1,737.52,628.1Z"/><path class="cls-2" d="M773.3,628.12a5.89,5.89,0,0,1,1.79,4.59,13.27,13.27,0,0,1-.17,1.9l-2,11.21H769l1.9-10.63a11,11,0,0,0,.13-1.38,3.79,3.79,0,0,0-1-2.89,4,4,0,0,0-2.91-1,5.47,5.47,0,0,0-3.78,1.36,6.44,6.44,0,0,0-1.95,3.91l-1.9,10.63h-3.89l1.89-10.63a11.59,11.59,0,0,0,.14-1.38,3.79,3.79,0,0,0-1.05-2.89,4,4,0,0,0-2.92-1,5.46,5.46,0,0,0-3.77,1.36,6.33,6.33,0,0,0-2,3.91v-.1L746,645.82h-3.93l3.34-19h3.94L749,629a8.13,8.13,0,0,1,2.74-1.85,8.5,8.5,0,0,1,3.33-.67,7.49,7.49,0,0,1,3.91,1,5.13,5.13,0,0,1,2.3,2.79,8,8,0,0,1,3.14-2.74,8.92,8.92,0,0,1,4.1-1A6.9,6.9,0,0,1,773.3,628.12Z"/><path class="cls-2" d="M780.39,631.16a11.16,11.16,0,0,1,3.84-3.44A10,10,0,0,1,789,626.5a7.34,7.34,0,0,1,3.76.88,6.17,6.17,0,0,1,2.28,2.19l.48-2.76h4l-3.35,19h-4l.51-2.83a9.91,9.91,0,0,1-3.12,2.24,9.32,9.32,0,0,1-4.09.9,7.45,7.45,0,0,1-3.81-1,6.72,6.72,0,0,1-2.62-2.74,8.57,8.57,0,0,1-.95-4.09,10.84,10.84,0,0,1,.21-2.1A12.31,12.31,0,0,1,780.39,631.16ZM794,634.88a4.86,4.86,0,0,0-1.37-3.64,4.69,4.69,0,0,0-3.4-1.32,6.33,6.33,0,0,0-3,.74,7.21,7.21,0,0,0-2.52,2.17,7.88,7.88,0,0,0-1.42,3.4,7,7,0,0,0-.13,1.41,5,5,0,0,0,1.36,3.71,4.61,4.61,0,0,0,3.4,1.36,6.24,6.24,0,0,0,3-.76,7.16,7.16,0,0,0,2.52-2.22,8,8,0,0,0,1.42-3.43A7,7,0,0,0,794,634.88Z"/><path class="cls-2" d="M810.78,627.47a6.74,6.74,0,0,1,3.57-1l-.73,4.07h-1a5.55,5.55,0,0,0-3.65,1.14,6.56,6.56,0,0,0-1.93,3.93l-1.8,10.18h-3.93l3.34-19h3.94l-.59,3.35A8.88,8.88,0,0,1,810.78,627.47Z"/><path class="cls-2" d="M823.73,636.33l7.11,9.49h-5.31l-5.59-8.18-1.45,8.18h-3.93l4.51-25.53H823l-2.62,14.8,8.34-8.28h5.45Z"/><path class="cls-2" d="M850.93,628.5a7,7,0,0,1,2.12,5.38,12,12,0,0,1-.17,1.9,15.14,15.14,0,0,1-.48,1.86H837.88a4.49,4.49,0,0,0,0,.73,4.28,4.28,0,0,0,1.26,3.24,4.54,4.54,0,0,0,3.29,1.21,5.55,5.55,0,0,0,4.94-2.66h4.24a10.91,10.91,0,0,1-3.86,4.3,10.58,10.58,0,0,1-5.9,1.67,9,9,0,0,1-4.18-.93,6.73,6.73,0,0,1-2.79-2.68,8,8,0,0,1-1-4.08,11.82,11.82,0,0,1,.21-2.14,12.35,12.35,0,0,1,2.1-5.16,10.84,10.84,0,0,1,4-3.43,11.11,11.11,0,0,1,5.16-1.21A7.93,7.93,0,0,1,850.93,628.5ZM849,633.92a3.77,3.77,0,0,0-1.26-3,4.76,4.76,0,0,0-3.26-1.11,6,6,0,0,0-3.8,1.35,6.79,6.79,0,0,0-2.31,3.65H849C849,634.4,849,634.1,849,633.92Z"/><path class="cls-2" d="M860.47,640.54a5,5,0,0,0-.07.62,1.2,1.2,0,0,0,.45,1.05,2.55,2.55,0,0,0,1.48.33h2.42l-.59,3.28h-3.1a5.71,5.71,0,0,1-3.49-.92,3.41,3.41,0,0,1-1.2-2.91,7.52,7.52,0,0,1,.13-1.45L858.37,630h-2.25l.56-3.21H859l.83-4.73h4l-.83,4.73h4.59L867,630h-4.63Z"/></g></g></svg>