<svg xmlns="http://www.w3.org/2000/svg" viewBox="0 0 410.79 149.97"><defs><style>.cls-1{fill:#2f2f2f;}.cls-2{fill:#099149;}</style></defs><g id="Capa_2" data-name="Capa 2"><g id="Capa_1-2" data-name="Capa 1"><path class="cls-1" d="M144.81,25.54c-.49.49-1.71,0-2.68-1.09s-1.35-2.32-.86-2.81a3.32,3.32,0,0,0,1-2.07,6.84,6.84,0,0,0-1.1-4.88,15.65,15.65,0,0,0-5.61-5.13C115.41-1.78,75.76,8.1,56.12,17.25,46.73,21.64,23.67,34.69,30,48.11c2.93,6.35,13.18,9.88,23.18,13.3,5.74,2.07,11.47,4,16.23,6.71,34.52,19.4-8.54,61.12-42.46,61.73-12.32.61-26.71-5.25-27-17.57-.12-5.61,4.27-12.93,15.13-21.59.49-.49,1.71.12,2.68,1.22s1.35,2.32.74,2.68C8.05,103,3.91,109.84,4,114.84c.12,7.81,13.66,8.67,19,8.42,29.64-.73,72.34-37.21,46.84-51.6-4.26-2.32-9.75-4.27-15.37-6.22-11.59-4-23.42-8.06-28-17.94-7.45-16,13.9-29.89,25.61-35.38,21-9.75,61.49-18.29,83-6.1a24.36,24.36,0,0,1,9.15,8.67,12.27,12.27,0,0,1,2.07,7.8A5.1,5.1,0,0,1,144.81,25.54Z"/><path class="cls-1" d="M108.34,75a38.76,38.76,0,0,1-12.57,3.66c-8.29,17.81,24.64,2.69,28.43-4.15a1.72,1.72,0,0,1,2.68-.61c1,1,1,1.47.61,2.2C124.07,82,105,95.2,96.63,90.44a11.39,11.39,0,0,1-5.74-12,20.65,20.65,0,0,1,4.88-9,55.18,55.18,0,0,1,7.93-7.2c3.54-2.44,6.83-3.9,8.17-3.66a5.49,5.49,0,0,1,2.93,1.83,5.29,5.29,0,0,1,1.47,4.4,10.75,10.75,0,0,1-1.22,3.41A16.24,16.24,0,0,1,108.34,75Zm-8.67-2a45.46,45.46,0,0,0,5.49-2.07,16.56,16.56,0,0,0,6.1-6.23c.25-.48.37-.85.61-1.34a28.26,28.26,0,0,0-4.75,2.93A47.77,47.77,0,0,0,99.67,73Z"/><path class="cls-1" d="M141.15,76.66c-.36.73-1.46.49-2.44-.49s-1.7-2.32-1.46-2.93c.12,0,2.07-4.27,1.59-4.27-2.32-.12-7.32,3.18-11.11,7.45a27.12,27.12,0,0,0-3.65,5,12.37,12.37,0,0,0-1.47,4.75,3.8,3.8,0,0,0,.85,2.69c5.13,4.51,30.14-14.27,30.26-14.27.49-.13,1.59-1.59,2.44-1.35,1,1.1,1.34,2.32.85,2.81-.12,0-26.47,22.57-34.64,15.25-2.69-2.44-3.78-5.13-3.66-7.81a11.9,11.9,0,0,1,1.58-5.61,30,30,0,0,1,3.79-5.25c4-4.51,9.51-8,12.32-7.93C146.77,65.07,141.15,76.66,141.15,76.66Z"/><path class="cls-1" d="M171.53,76.66c-.36.73-1.46.49-2.44-.49s-1.71-2.32-1.46-2.93c.12,0,2.07-4.27,1.58-4.27-2.31-.12-7.32,3.18-11.1,7.45a27.65,27.65,0,0,0-3.66,5A12.52,12.52,0,0,0,153,86.17a3.76,3.76,0,0,0,.85,2.69C159,93.37,184,74.59,184.1,74.59c.48-.13,1.58-1.59,2.44-1.35,1,1.1,1.34,2.32.85,2.81-.12,0-26.47,22.57-34.65,15.25-2.68-2.44-3.78-5.13-3.66-7.81a11.8,11.8,0,0,1,1.59-5.61,30.42,30.42,0,0,1,3.78-5.25c4-4.51,9.52-8,12.32-7.93C177.14,65.07,171.53,76.66,171.53,76.66Z"/><path class="cls-1" d="M193.12,64.22c.61-.49,1.83,0,2.81,1.09s1.34,2.32.73,2.81a49.88,49.88,0,0,0-9.76,12.69c-1.71,3.41-1.58,5.36-.36,6,5,.73,18.54-12.45,18.54-12.57.49-.49,1.34-1.46,2.32-.37s.61,1.47.12,2c-.12,0-20.37,22-25.62,12.8-1.71-3-.85-7.19,1.22-11.34A47.69,47.69,0,0,1,193.12,64.22Zm7.57-3.54c-.49.61-1.71.12-2.69-.86s-1.46-2.31-1-2.92l6.83-7.81c.49-.61,1.59-.12,2.68.85s1.35,2.32,1,2.93Z"/><path class="cls-1" d="M209.59,67.75c.49-.36,1.71.13,2.69,1.22s1.22,2.32.73,2.81a6.93,6.93,0,0,0-1,.73c-2.56,2.32-4.63,6.1-6,9.88-1,3.17-1.47,6.1-.86,7.32a3.63,3.63,0,0,0,2.32,0,9.49,9.49,0,0,0,3.66-2.32,21.74,21.74,0,0,0,4.76-6.46,25.4,25.4,0,0,0,1.95-5,17.41,17.41,0,0,1-4.76-6.22,13.2,13.2,0,0,1-1.22-6c.25-1.71,1-2.93,2.44-3.17a5.21,5.21,0,0,1,3.05.61,8.9,8.9,0,0,1,3.78,4.14,13.2,13.2,0,0,1,1.35,4.4,19.13,19.13,0,0,1,0,5.24,15.4,15.4,0,0,0,11-1.46c.61-.37,1.22-.86,2.2.24s.73,2,.12,2.32c-5.73,3.17-10,3.66-13.78,2.32a21.78,21.78,0,0,1-2.32,6.1,23.66,23.66,0,0,1-5,6.83,12.13,12.13,0,0,1-4.15,2.56,5.93,5.93,0,0,1-4.76-.49,9.19,9.19,0,0,1-2.44-2l-.73-.73c-1.95-2.81-1.83-7.32-.49-11.59a25.67,25.67,0,0,1,6.35-10.49C208.86,68.36,209.23,68,209.59,67.75Zm6.1-12.07a6.94,6.94,0,0,0,.74-1,13.05,13.05,0,0,0,1.95-4,2.34,2.34,0,0,1,1.34-1.58c.73-.37,2.44.85,2.44,1.46-.24,1.71-4.76,8.54-8.17,7.57-.13,0-.25-.13-.37-.25s0-1,.61-1.58C214.72,55.92,215.33,55.55,215.69,55.68ZM218.5,73a21,21,0,0,0,0-5.49,11,11,0,0,0-.61-2.68H218c-.12-.13-.49-.13-.85,0-.73,0-1.1.73-1.22,1.83a7.47,7.47,0,0,0,.73,3.78A6.32,6.32,0,0,0,218.5,73Z"/><path class="cls-1" d="M237.16,66.9c.37-.61,1.59-.37,2.57.61s1.58,2.32,1.22,2.93l-3,5.49c6.58-5.49,13.78-10.86,16.47-10.13h.24c3.66,1.1,4.27,3.42,3.42,6.47A35.32,35.32,0,0,1,256,77c-1.58,3.17-3.41,6.7-3.41,6.7,3.9,2.57,17.08-9,17.2-9,.36-.49,1.71-2.08,2.68-1s.37,1.22-.12,1.83c0,0-13.3,15.74-19.64,11.59-5.49-3.54-2.81-8.9-.49-13.66a29.29,29.29,0,0,0,1.34-2.93c-6.95,3.66-23.18,19.15-23.66,19.64s-1.47.12-2.44-.73c-1-1.1-1.59-2.32-1.22-2.93Z"/><path class="cls-2" d="M57,95.37,37.81,149.43H21.33L2.16,95.37h14l13.4,40.81L43.05,95.37Z"/><path class="cls-2" d="M75.62,105.92v10.94H93.25V127H75.62v11.86H95.56v10.55H62.45V95.37H95.56v10.55Z"/><path class="cls-2" d="M131.67,149.43,120.43,129h-3.16v20.41H104.11V95.37H126.2a24.32,24.32,0,0,1,10.9,2.24,15.43,15.43,0,0,1,6.74,6.12,17.06,17.06,0,0,1,2.23,8.66,16.11,16.11,0,0,1-3,9.63,16.39,16.39,0,0,1-9,6l12.47,21.41Zm-14.4-29.72h8.16q3.63,0,5.43-1.78a6.65,6.65,0,0,0,1.81-5,6.46,6.46,0,0,0-1.81-4.85q-1.8-1.77-5.43-1.77h-8.16Z"/><path class="cls-2" d="M189.5,98.76a24.18,24.18,0,0,1,9.89,9.51,30.12,30.12,0,0,1,0,28.22,24,24,0,0,1-9.93,9.55,31.49,31.49,0,0,1-14.9,3.39H154.31V95.37h20.25A31.43,31.43,0,0,1,189.5,98.76ZM185.34,134q4.16-4.08,4.16-11.55t-4.16-11.63q-4.16-4.15-11.63-4.15h-6.23V138h6.23Q181.18,138,185.34,134Z"/><path class="cls-2" d="M223.22,95.37v32.34q0,4.86,2.39,7.47t7,2.62q4.62,0,7.08-2.62c1.64-1.74,2.47-4.23,2.47-7.47V95.37h13.16v32.27a23,23,0,0,1-3.08,12.24,19.71,19.71,0,0,1-8.28,7.55A26,26,0,0,1,232.39,150,25.35,25.35,0,0,1,221,147.46a18.62,18.62,0,0,1-8-7.54,24.11,24.11,0,0,1-2.92-12.28V95.37Z"/><path class="cls-2" d="M292.14,149.43,280.9,129h-3.16v20.41H264.57V95.37h22.1a24.35,24.35,0,0,1,10.9,2.24,15.4,15.4,0,0,1,6.73,6.12,17.07,17.07,0,0,1,2.24,8.66,16.12,16.12,0,0,1-3.05,9.63,16.32,16.32,0,0,1-9,6L307,149.43Zm-14.4-29.72h8.16a7.45,7.45,0,0,0,5.43-1.78,6.69,6.69,0,0,0,1.81-5,6.5,6.5,0,0,0-1.81-4.85,7.49,7.49,0,0,0-5.43-1.77h-8.16Z"/><path class="cls-2" d="M348.42,139.88H328.25L325,149.43H311.23l19.56-54.06H346l19.56,54.06H351.66ZM345,129.72l-6.7-19.79-6.63,19.79Z"/><path class="cls-2" d="M380.46,148a17.2,17.2,0,0,1-7.51-5.7,15.55,15.55,0,0,1-3-9.08h14a6.78,6.78,0,0,0,2.08,4.58,6.69,6.69,0,0,0,4.62,1.58,7.22,7.22,0,0,0,4.62-1.35,4.5,4.5,0,0,0,1.69-3.73,4.44,4.44,0,0,0-1.35-3.32,10.82,10.82,0,0,0-3.31-2.15,52.37,52.37,0,0,0-5.58-1.93,59.82,59.82,0,0,1-8.55-3.23,16,16,0,0,1-5.7-4.77,13.34,13.34,0,0,1-2.38-8.24q0-7.55,5.47-11.82t14.24-4.28q8.92,0,14.4,4.28a15.31,15.31,0,0,1,5.85,11.89H395.86a5.63,5.63,0,0,0-1.93-4.12,6.77,6.77,0,0,0-4.54-1.5,5.69,5.69,0,0,0-3.85,1.27,4.58,4.58,0,0,0-1.46,3.66,4.52,4.52,0,0,0,2.46,4.08,40,40,0,0,0,7.7,3.16,71.38,71.38,0,0,1,8.51,3.39,16.13,16.13,0,0,1,5.66,4.69,12.6,12.6,0,0,1,2.38,7.93,15.64,15.64,0,0,1-2.34,8.4,16.44,16.44,0,0,1-6.82,6A23.31,23.31,0,0,1,391.08,150,27.65,27.65,0,0,1,380.46,148Z"/></g></g></svg>